<svg xmlns="http://www.w3.org/2000/svg" width="100" height="100"><g transform="matrix(.926 0 0 .926 -24.764 -830.295)"><path transform="translate(0 852.362)" d="M46.72 115.589l35.103-15.91.032.347-16.541 30.431" stroke="#000" stroke-width="1.08" fill="none"/><path transform="translate(0 852.362)" d="M82.327 99.49l-20.582 16.289" stroke="#000" stroke-width="1.08" fill="none"/><path d="M410.122 367.479c0 97.073-78.693 175.767-175.767 175.767-97.073 0-175.767-78.693-175.767-175.767 0-97.073 78.693-175.767 175.767-175.767 97.073 0 175.767 78.693 175.767 175.767z" transform="matrix(.287 0 0 .083 14.034 921.122)" stroke="#999" stroke-width="7.012" fill="none"/><rect transform="matrix(1 0 .235 .972 0 0)" y="995.978" x="-187.382" height="15.07" width="14.647" fill="#fff" stroke="#000" stroke-width="1.096"/><path transform="matrix(.287 0 0 .287 14.034 846.148)" d="M410.122 367.479c0 97.073-78.693 175.767-175.767 175.767-97.073 0-175.767-78.693-175.767-175.767 0-97.073 78.693-175.767 175.767-175.767 97.073 0 175.767 78.693 175.767 175.767z" stroke="#000" stroke-width="3.767" fill="none"/></g></svg>