<svg xmlns="http://www.w3.org/2000/svg" width="125" height="200"><defs><marker orient="auto" id="a" overflow="visible"><path d="M0 5.65v-11.3" transform="scale(.4)" stroke="#000" stroke-width="1pt" fill="none"/></marker><marker orient="auto" overflow="visible"><path d="M0 5.65v-11.3" transform="scale(.4)" stroke="#000" stroke-width="1pt" fill="none"/></marker><marker orient="auto" overflow="visible"><path d="M0 5.65v-11.3" transform="scale(.4)" stroke="#000" stroke-width="1pt" fill="none"/></marker><marker orient="auto" overflow="visible"><path d="M0 5.65v-11.3" transform="scale(.4)" stroke="#000" stroke-width="1pt" fill="none"/></marker></defs><g transform="translate(0 -852.362)"><path d="M94.107 58.661a35.268 9.911 0 1 1-70.536 0 35.268 9.911 0 1 1 70.536 0z" transform="translate(-12.5 810.219)" stroke="#000" fill="none"/><path transform="matrix(.451 0 0 .451 19.67 861.714)" d="M94.107 58.661a35.268 9.911 0 1 1-70.536 0 35.268 9.911 0 1 1 70.536 0z" fill="#b3b3b3"/><path d="M80.878 18.585l-34.985 33.558-31.723-31.514" transform="translate(0 852.362)" stroke="#000" fill="none"/><path d="M11.079 916.873v-48.601" stroke="#808080" stroke-width=".968" stroke-dasharray="0.96763669, 0.96763669" fill="none"/><path d="M45.75 919.716h-34.742" stroke="#000" stroke-width=".984" marker-start="url(#a)" marker-end="url(#a)" fill="none"/><text style="line-height:125%" x="26.408" y="928.998" font-size="11.194" letter-spacing="0" word-spacing="0" font-family="Sans"><tspan x="26.408" y="928.998">r</tspan></text><path d="M45.633 916.873v-13.068" stroke="#808080" stroke-width=".968" stroke-dasharray="0.96763669, 0.96763669" fill="none"/><path d="M85.2 904.005v-35.058" stroke="#000" stroke-width=".984" marker-start="url(#a)" marker-end="url(#a)" fill="none"/><path d="M47.262 904.063h35.032" stroke="#808080" stroke-width=".968" stroke-dasharray="0.96763669, 0.96763669" fill="none"/><path d="M55.5 42.938l-9.594 9.219-9.25-9.188c-14.768 1.183-25.594 5.002-25.594 9.531 0 5.474 15.803 9.906 35.281 9.906 19.478 0 35.25-4.433 35.25-9.906 0-4.58-11.072-8.426-26.094-9.563z" transform="translate(0 852.362)" stroke="#000" fill="none"/><text y="888.844" x="87.775" style="line-height:125%" font-size="11.194" letter-spacing="0" word-spacing="0" font-family="Sans"><tspan y="888.844" x="87.775">r</tspan></text><path d="M48.487 16.152a2.525 2.525 0 1 1-5.051 0 2.525 2.525 0 1 1 5.051 0z" transform="matrix(.3 0 0 .3 32.551 864.034)"/><path d="M47.262 868.951h35.032" stroke="#808080" stroke-width=".968" stroke-dasharray="0.96763669, 0.96763669" fill="none"/><path transform="translate(-12.5 898.608)" d="M94.107 58.661a35.268 9.911 0 1 1-70.536 0 35.268 9.911 0 1 1 70.536 0z" stroke="#000" fill="none"/><path d="M11.079 1005.261v-48.601" stroke="#808080" stroke-width=".968" stroke-dasharray="0.96763669, 0.96763669" fill="none"/><path d="M45.75 1008.105h-34.742" stroke="#000" stroke-width=".984" marker-start="url(#a)" marker-end="url(#a)" fill="none"/><text y="1017.386" x="26.408" style="line-height:125%" font-size="11.194" letter-spacing="0" word-spacing="0" font-family="Sans"><tspan y="1017.386" x="26.408">r</tspan></text><path d="M45.633 1005.261v-13.068" stroke="#808080" stroke-width=".968" stroke-dasharray="0.96763669, 0.96763669" fill="none"/><path d="M85.2 992.393v-35.058" stroke="#000" stroke-width=".984" marker-start="url(#a)" marker-end="url(#a)" fill="none"/><path d="M47.262 992.451h35.032" stroke="#808080" stroke-width=".968" stroke-dasharray="0.96763669, 0.96763669" fill="none"/><text style="line-height:125%" x="87.775" y="977.232" font-size="11.194" letter-spacing="0" word-spacing="0" font-family="Sans"><tspan x="87.775" y="977.232">r</tspan></text><g stroke="#000" fill="none"><path d="M82.112 992.624c0 5.474-15.79 9.911-35.268 9.911s-35.268-4.437-35.268-9.911c0-5.474 15.79-9.911 35.268-9.911s35.268 4.437 35.268 9.911z"/><path d="M82.105 992.444c0-19.527-15.789-35.156-35.267-35.156-19.477 0-35.267 15.83-35.267 35.357" stroke-width=".999"/></g><path d="M47.262 957.34h35.032" stroke="#808080" stroke-width=".968" stroke-dasharray="0.96763669, 0.96763669" fill="none"/><path transform="matrix(.412 0 0 .412 27.412 950.637)" d="M48.487 16.152a2.525 2.525 0 1 1-5.051 0 2.525 2.525 0 1 1 5.051 0z"/><path d="M48.487 16.152a2.525 2.525 0 1 1-5.051 0 2.525 2.525 0 1 1 5.051 0z" transform="matrix(.412 0 0 .412 27.033 985.803)"/><path d="M46.628 967.956c-19.635 0-35.565 4.433-35.565 9.906 0 5.474 15.931 9.906 35.565 9.906 19.635 0 35.534-4.433 35.534-9.906 0-5.474-15.899-9.906-35.534-9.906zm0 2.906c17.464 0 32.48 2.886 32.48 6.747 0 3.861-15.016 7.253-32.48 7.253s-32.074-3.139-32.074-7 14.61-7 32.074-7z" fill="#b3b3b3"/><g stroke="#000" fill="none"><path d="M82.112 992.624c0 5.474-15.79 9.911-35.268 9.911s-35.268-4.437-35.268-9.911c0-5.474 15.79-9.911 35.268-9.911s35.268 4.437 35.268 9.911z"/><path d="M78.631 977.192c-.376-.73-1.171-2.266-1.595-2.966-6.178-10.18-17.391-16.938-30.198-16.938-13.734 0-25.635 7.871-31.459 19.359-.154.303-.438.917-.583 1.226" stroke-width=".999"/></g></g></svg>