<svg xmlns="http://www.w3.org/2000/svg" width="220" height="220"><defs><marker orient="auto" id="a" overflow="visible"><path d="M0 5.65v-11.3" transform="scale(.4)" stroke="#000" stroke-width="1pt" fill="none"/></marker><marker orient="auto" overflow="visible"><path d="M0 5.65v-11.3" transform="scale(.4)" stroke="#000" stroke-width="1pt" fill="none"/></marker></defs><g transform="translate(0 -832.362)"><g transform="matrix(.81 0 0 .81 28.524 182.54)" stroke="#000" stroke-width="1.235"><path d="M3.817 839.51l11.874-6.949h28.85v35.04l-11.874 6.949h-28.85z" fill="#fff"/><rect width="179.106" height="35.04" x="51.843" y="987.572" fill="#fff"/><rect y="956.263" x="45.516" height="35.04" width="147.795" fill="#fff"/><rect width="117.51" height="35.04" x="38.702" y="925.441" fill="#fff"/><rect y="894.457" x="32.375" height="35.04" width="86.307" fill="#fff"/><rect width="56.022" height="35.04" x="25.724" y="863.148" fill="#fff"/><path d="M230.949 987.572l-44.454 27.138v35.04l44.454-27.138z" fill="#fff"/><path d="M44.541 832.561l-11.874 6.949v35.04l11.874-6.949z" fill="#fff"/><path d="M81.745 863.148l-18.334 11.402v35.04l18.334-11.402z" fill="#fff"/><path d="M118.682 894.457l-24.986 15.133v35.04l24.986-15.133z" fill="#fff"/><path d="M156.212 925.441l-31.313 19.189v35.04l31.313-19.189z" fill="#fff"/><path d="M193.311 956.263l-38.127 23.407v35.04l38.127-23.407z" fill="#fff"/><path d="M44.541 832.561l-11.874 6.949v35.04l11.874-6.949z" fill="#fff"/><path d="M3.817 874.55h59.594v35.04h-59.594z" fill="#fff"/><path d="M3.817 909.59h89.879v35.04h-89.879z" fill="#fff"/><path d="M3.817 944.63h121.082v35.04h-121.082z" fill="#fff"/><path d="M3.817 979.67h151.367v35.04h-151.367z" fill="#fff"/><path d="M3.817 1014.71h182.678v35.04h-182.678z" fill="#fff"/><path d="M3.817 839.51l11.874-6.949h28.85" fill="none"/><path d="M3.817 839.51h28.85v35.04h-28.85z" fill="#fff"/></g><path d="M24.924 863.305v168.971" stroke="#000" stroke-width="1.243" marker-start="url(#a)" marker-end="url(#a)" fill="none"/><text y="951.797" x="9.407" style="line-height:125%" font-size="11.194" letter-spacing="0" word-spacing="0" font-family="Sans"><tspan y="951.797" x="9.407">H</tspan></text><g transform="translate(.045 -140)"><path d="M17.424 1003.305v28.971" stroke="#000" stroke-width="1.243" marker-start="url(#a)" marker-end="url(#a)" fill="none"/><text y="1021.439" x="-.771" style="line-height:125%" font-size="11.194" letter-spacing="0" word-spacing="0" font-family="Sans"><tspan y="1021.439" x="-.771">H/n</tspan></text></g><path d="M64.945 850.558h-23.214" stroke="#000" stroke-width="1.243" marker-start="url(#a)" marker-end="url(#a)" fill="none"/><text y="845.636" x="45.122" style="line-height:125%" font-size="11.194" letter-spacing="0" word-spacing="0" font-family="Sans"><tspan y="845.636" x="45.122">W/n</tspan></text><path d="M217.775 1014.246l-36.469 22.218" stroke="#000" stroke-width="1.243" marker-start="url(#a)" marker-end="url(#a)" fill="none"/><text style="line-height:125%" x="203.097" y="1033.227" font-size="11.194" letter-spacing="0" word-spacing="0" font-family="Sans"><tspan x="203.097" y="1033.227">L</tspan></text><path d="M37.709 853.098l-9.613 5.626" stroke="#000" stroke-width="1.243" marker-start="url(#a)" marker-end="url(#a)" fill="none"/><text style="line-height:125%" x="20.562" y="851.823" font-size="11.194" letter-spacing="0" word-spacing="0" font-family="Sans"><tspan x="20.562" y="851.823">L/n</tspan></text><path d="M179.51 1038.856h-147.896" stroke="#000" stroke-width="1.243" marker-start="url(#a)" marker-end="url(#a)" fill="none"/><text style="line-height:125%" x="100.274" y="1051.26" font-size="11.194" letter-spacing="0" word-spacing="0" font-family="Sans"><tspan x="100.274" y="1051.26">W</tspan></text></g></svg>