<svg xmlns="http://www.w3.org/2000/svg" width="165" height="280"><defs><marker orient="auto" id="a" overflow="visible"><path d="M0 5.65v-11.3" transform="scale(.4)" stroke="#000" stroke-width="1pt" fill="none"/></marker><marker orient="auto" overflow="visible"><path d="M0 5.65v-11.3" transform="scale(.8)" stroke="#000" stroke-width="1pt" fill="none"/></marker><marker orient="auto" overflow="visible"><path transform="scale(.8)" d="M0 5.65v-11.3" stroke="#000" stroke-width="1pt" fill="none"/></marker><marker orient="auto" overflow="visible"><path transform="scale(.4)" d="M0 5.65v-11.3" stroke="#000" stroke-width="1pt" fill="none"/></marker><marker orient="auto" overflow="visible"><path transform="scale(.8)" d="M0 5.65v-11.3" stroke="#000" stroke-width="1pt" fill="none"/></marker><marker orient="auto" overflow="visible"><path transform="scale(.4)" d="M0 5.65v-11.3" stroke="#000" stroke-width="1pt" fill="none"/></marker></defs><g transform="translate(0 -772.362)"><g transform="translate(29.098 -39.77)"><path d="M2.566 885.87h41.5" stroke="#000" marker-start="url(#a)" marker-end="url(#a)" fill="none"/><text y="895.556" x="19.301" style="line-height:125%" font-size="11.194" letter-spacing="0" word-spacing="0" font-family="Sans"><tspan y="895.556" x="19.301">b</tspan></text><path d="M47.316 885.87h41.5" stroke="#000" marker-start="url(#a)" marker-end="url(#a)" fill="none"/><text style="line-height:125%" x="64.051" y="895.556" font-size="11.194" letter-spacing="0" word-spacing="0" font-family="Sans"><tspan x="64.051" y="895.556">b</tspan></text><path d="M125.165 814.154v68.257" stroke="#000" stroke-width="1.243" marker-start="url(#a)" marker-end="url(#a)" fill="none"/><text style="line-height:125%" x="127.301" y="851.406" font-size="11.194" letter-spacing="0" word-spacing="0" font-family="Sans"><tspan x="127.301" y="851.406">h</tspan></text><rect width="40.815" height="5.226" x="2.916" y="877.153" stroke="#000" stroke-width="1.257" fill="none"/><rect y="871.927" x="2.916" height="5.226" width="40.815" stroke="#000" stroke-width="1.257" fill="none"/><rect width="40.815" height="5.226" x="2.916" y="866.701" stroke="#000" stroke-width="1.257" fill="none"/><rect y="861.475" x="2.916" height="5.226" width="40.815" stroke="#000" stroke-width="1.257" fill="none"/><rect width="40.815" height="5.226" x="2.916" y="856.249" stroke="#000" stroke-width="1.257" fill="none"/><rect y="851.023" x="2.916" height="5.226" width="40.815" stroke="#000" stroke-width="1.257" fill="none"/><rect width="40.815" height="5.226" x="2.916" y="845.797" stroke="#000" stroke-width="1.257" fill="none"/><rect y="840.571" x="2.916" height="5.226" width="40.815" stroke="#000" stroke-width="1.257" fill="none"/><rect width="40.815" height="5.226" x="2.916" y="835.345" stroke="#000" stroke-width="1.257" fill="none"/><rect y="830.12" x="2.916" height="5.226" width="40.815" stroke="#000" stroke-width="1.257" fill="none"/><rect width="40.815" height="5.226" x="2.916" y="824.894" stroke="#000" stroke-width="1.257" fill="none"/><rect y="819.668" x="2.916" height="5.226" width="40.815" stroke="#000" stroke-width="1.257" fill="none"/><rect width="40.815" height="5.226" x="2.916" y="814.442" stroke="#000" stroke-width="1.257" fill="none"/><rect transform="scale(-1 1)" y="877.153" x="-88.482" height="5.226" width="40.815" stroke="#000" stroke-width="1.257" fill="none"/><rect transform="scale(-1 1)" width="40.815" height="5.226" x="-91.044" y="871.927" stroke="#000" stroke-width="1.257" fill="none"/><rect transform="scale(-1 1)" y="866.701" x="-93.607" height="5.226" width="40.815" stroke="#000" stroke-width="1.257" fill="none"/><rect transform="scale(-1 1)" width="40.815" height="5.226" x="-96.169" y="861.475" stroke="#000" stroke-width="1.257" fill="none"/><rect transform="scale(-1 1)" y="856.249" x="-98.732" height="5.226" width="40.815" stroke="#000" stroke-width="1.257" fill="none"/><rect transform="scale(-1 1)" width="40.815" height="5.226" x="-101.294" y="851.023" stroke="#000" stroke-width="1.257" fill="none"/><rect transform="scale(-1 1)" y="845.797" x="-103.857" height="5.226" width="40.815" stroke="#000" stroke-width="1.257" fill="none"/><rect transform="scale(-1 1)" width="40.815" height="5.226" x="-106.419" y="840.571" stroke="#000" stroke-width="1.257" fill="none"/><rect transform="scale(-1 1)" y="835.345" x="-108.982" height="5.226" width="40.815" stroke="#000" stroke-width="1.257" fill="none"/><rect transform="scale(-1 1)" width="40.815" height="5.226" x="-111.544" y="830.12" stroke="#000" stroke-width="1.257" fill="none"/><rect transform="scale(-1 1)" y="824.894" x="-114.107" height="5.226" width="40.815" stroke="#000" stroke-width="1.257" fill="none"/><rect transform="scale(-1 1)" width="40.815" height="5.226" x="-116.669" y="819.668" stroke="#000" stroke-width="1.257" fill="none"/><rect y="814.442" x="78.416" height="5.226" width="40.815" stroke="#000" stroke-width="1.257" fill="none"/></g><g transform="translate(29.098 -97.238)"><path d="M2.566 1041.87h41.5" stroke="#000" marker-start="url(#a)" marker-end="url(#a)" fill="none"/><text y="1051.556" x="19.301" style="line-height:125%" font-size="11.194" letter-spacing="0" word-spacing="0" font-family="Sans"><tspan y="1051.556" x="19.301">b</tspan></text><path d="M47.316 1041.87h41.5" stroke="#000" marker-start="url(#a)" marker-end="url(#a)" fill="none"/><text style="line-height:125%" x="64.051" y="1051.556" font-size="11.194" letter-spacing="0" word-spacing="0" font-family="Sans"><tspan x="64.051" y="1051.556">b</tspan></text><path d="M125.139 969.89v68.257" stroke="#000" stroke-width="1.243" marker-start="url(#a)" marker-end="url(#a)" fill="none"/><text style="line-height:125%" x="127.301" y="1007.406" font-size="11.194" letter-spacing="0" word-spacing="0" font-family="Sans"><tspan x="127.301" y="1007.406">h</tspan></text><rect y="969.813" x="2.916" height="68.565" width="40.815" stroke="#000" stroke-width="1.257" fill="none"/><path d="M78.666 969.813h40.815l-31.25 68.565h-40.815z" stroke="#000" stroke-width="1.257" fill="none"/></g><g transform="translate(-.152 -.065)"><path d="M43.691 969.37v68h-40.75z" stroke="#000" fill="none"/><path d="M68.25 969.37l20.25 68h-40.75z" stroke="#000" fill="none"/><path d="M148.993 969.37l-16.139 68h-40.75z" stroke="#000" fill="none"/><path d="M2.566 1041.87h41.5" stroke="#000" marker-start="url(#a)" marker-end="url(#a)" fill="none"/><text y="1051.556" x="19.301" style="line-height:125%" font-size="11.194" letter-spacing="0" word-spacing="0" font-family="Sans"><tspan y="1051.556" x="19.301">b</tspan></text><path d="M47.316 1041.87h41.5" stroke="#000" marker-start="url(#a)" marker-end="url(#a)" fill="none"/><text style="line-height:125%" x="64.051" y="1051.556" font-size="11.194" letter-spacing="0" word-spacing="0" font-family="Sans"><tspan x="64.051" y="1051.556">b</tspan></text><path d="M91.816 1041.87h41.5" stroke="#000" marker-start="url(#a)" marker-end="url(#a)" fill="none"/><text y="1051.556" x="108.551" style="line-height:125%" font-size="11.194" letter-spacing="0" word-spacing="0" font-family="Sans"><tspan y="1051.556" x="108.551">b</tspan></text><path d="M153.639 969.271v68.257" stroke="#000" stroke-width="1.243" marker-start="url(#a)" marker-end="url(#a)" fill="none"/><text style="line-height:125%" x="156.551" y="1005.556" font-size="11.194" letter-spacing="0" word-spacing="0" font-family="Sans"><tspan x="156.551" y="1005.556">h</tspan></text></g></g></svg>