<svg xmlns="http://www.w3.org/2000/svg" width="180" height="70"><defs><marker orient="auto" id="a" overflow="visible"><path d="M0 5.65v-11.3" transform="scale(.4)" stroke="#000" stroke-width="1pt" fill="none"/></marker><marker orient="auto" overflow="visible"><path d="M0 5.65v-11.3" transform="scale(.4)" stroke="#000" stroke-width="1pt" fill="none"/></marker><marker orient="auto" overflow="visible"><path d="M0 5.65v-11.3" transform="scale(.4)" stroke="#000" stroke-width="1pt" fill="none"/></marker><marker orient="auto" overflow="visible"><path d="M0 5.65v-11.3" transform="scale(.4)" stroke="#000" stroke-width="1pt" fill="none"/></marker></defs><g transform="translate(0 -982.362)"><g fill="none" transform="translate(-3.536 -6.071)"><path d="M82.459 1025.951l-74.375-1.75" stroke="#b3b3b3" transform="translate(3.841 8.579)"/><path d="M7.897 1024.201l33.3 13.005 41.763-11.316v-40.924l-41.75 12.485-33-12.5v39.75" stroke="#000" transform="translate(3.841 8.579)"/><path d="M41.136 997.394v39.649" stroke="#000" stroke-width=".941" transform="translate(3.841 8.579)"/><path d="M83.416 984.701h-75.457" stroke="#000" transform="translate(3.841 8.579)"/></g><g fill="none" transform="translate(-.684 -69.72)"><path d="M165.292 1098.177l-74.375-1.75" stroke="#b3b3b3"/><path d="M90.729 1096.427l33.3 13.005 41.763-11.316m-41.8-36.118l-32.95 34.928" stroke="#000"/><path d="M123.991 1061.902l-.023 47.367" stroke="#000" stroke-width=".941"/><path d="M165.534 1097.641l-41.543-35.739" stroke="#000"/></g><path d="M85.082 987.288l80.005.179" stroke="#808080" stroke-width=".968" stroke-dasharray="0.96763669, 0.96763669" fill="none"/><path d="M168.843 987.732v40.949" stroke="#000" stroke-width="1.243" marker-start="url(#a)" marker-end="url(#a)" fill="none"/><text y="1011.465" x="171.417" style="line-height:125%" font-size="11.194" letter-spacing="0" word-spacing="0" font-family="Sans"><tspan y="1011.465" x="171.417">h</tspan></text><path d="M8.782 1041.98h74.7" stroke="#000" marker-start="url(#a)" marker-end="url(#a)" fill="none"/><text style="line-height:125%" x="40.001" y="1051.544" font-size="11.194" letter-spacing="0" word-spacing="0" font-family="Sans"><tspan x="40.001" y="1051.544">b</tspan></text><path d="M89.867 1041.98h74.7" stroke="#000" marker-start="url(#a)" marker-end="url(#a)" fill="none"/><text y="1051.544" x="121.086" style="line-height:125%" font-size="11.194" letter-spacing="0" word-spacing="0" font-family="Sans"><tspan y="1051.544" x="121.086">b</tspan></text></g></svg>