<svg xmlns="http://www.w3.org/2000/svg" width="135" height="85"><defs><marker orient="auto" id="a" overflow="visible"><path d="M0 5.65v-11.3" transform="scale(.4)" stroke="#000" stroke-width="1pt" fill="none"/></marker><marker orient="auto" overflow="visible"><path d="M0 5.65v-11.3" transform="scale(.8)" stroke="#000" stroke-width="1pt" fill="none"/></marker></defs><g transform="translate(0 -967.362)"><path d="M2.566 1041.87h41.5" stroke="#000" marker-start="url(#a)" marker-end="url(#a)" fill="none"/><text style="line-height:125%" x="19.301" y="1051.556" font-size="11.194" letter-spacing="0" word-spacing="0" font-family="Sans"><tspan x="19.301" y="1051.556">b</tspan></text><path d="M47.316 1041.87h41.5" stroke="#000" marker-start="url(#a)" marker-end="url(#a)" fill="none"/><text y="1051.556" x="64.051" style="line-height:125%" font-size="11.194" letter-spacing="0" word-spacing="0" font-family="Sans"><tspan y="1051.556" x="64.051">b</tspan></text><path d="M125.165 970.154v68.257" stroke="#000" stroke-width="1.243" marker-start="url(#a)" marker-end="url(#a)" fill="none"/><text y="1007.406" x="127.301" style="line-height:125%" font-size="11.194" letter-spacing="0" word-spacing="0" font-family="Sans"><tspan y="1007.406" x="127.301">h</tspan></text><rect y="1033.153" x="2.916" height="5.226" width="40.815" stroke="#000" stroke-width="1.257" fill="none"/><rect width="40.815" height="5.226" x="2.916" y="1027.927" stroke="#000" stroke-width="1.257" fill="none"/><rect y="1022.701" x="2.916" height="5.226" width="40.815" stroke="#000" stroke-width="1.257" fill="none"/><rect width="40.815" height="5.226" x="2.916" y="1017.475" stroke="#000" stroke-width="1.257" fill="none"/><rect y="1012.249" x="2.916" height="5.226" width="40.815" stroke="#000" stroke-width="1.257" fill="none"/><rect width="40.815" height="5.226" x="2.916" y="1007.023" stroke="#000" stroke-width="1.257" fill="none"/><rect y="1001.797" x="2.916" height="5.226" width="40.815" stroke="#000" stroke-width="1.257" fill="none"/><rect width="40.815" height="5.226" x="2.916" y="996.571" stroke="#000" stroke-width="1.257" fill="none"/><rect y="991.345" x="2.916" height="5.226" width="40.815" stroke="#000" stroke-width="1.257" fill="none"/><rect width="40.815" height="5.226" x="2.916" y="986.12" stroke="#000" stroke-width="1.257" fill="none"/><rect y="980.894" x="2.916" height="5.226" width="40.815" stroke="#000" stroke-width="1.257" fill="none"/><rect width="40.815" height="5.226" x="2.916" y="975.668" stroke="#000" stroke-width="1.257" fill="none"/><rect y="970.442" x="2.916" height="5.226" width="40.815" stroke="#000" stroke-width="1.257" fill="none"/><rect width="40.815" height="5.226" x="-88.482" y="1033.153" transform="scale(-1 1)" stroke="#000" stroke-width="1.257" fill="none"/><rect y="1027.927" x="-91.044" height="5.226" width="40.815" transform="scale(-1 1)" stroke="#000" stroke-width="1.257" fill="none"/><rect width="40.815" height="5.226" x="-93.607" y="1022.701" transform="scale(-1 1)" stroke="#000" stroke-width="1.257" fill="none"/><rect y="1017.475" x="-96.169" height="5.226" width="40.815" transform="scale(-1 1)" stroke="#000" stroke-width="1.257" fill="none"/><rect width="40.815" height="5.226" x="-98.732" y="1012.249" transform="scale(-1 1)" stroke="#000" stroke-width="1.257" fill="none"/><rect y="1007.023" x="-101.294" height="5.226" width="40.815" transform="scale(-1 1)" stroke="#000" stroke-width="1.257" fill="none"/><rect width="40.815" height="5.226" x="-103.857" y="1001.797" transform="scale(-1 1)" stroke="#000" stroke-width="1.257" fill="none"/><rect y="996.571" x="-106.419" height="5.226" width="40.815" transform="scale(-1 1)" stroke="#000" stroke-width="1.257" fill="none"/><rect width="40.815" height="5.226" x="-108.982" y="991.345" transform="scale(-1 1)" stroke="#000" stroke-width="1.257" fill="none"/><rect y="986.12" x="-111.544" height="5.226" width="40.815" transform="scale(-1 1)" stroke="#000" stroke-width="1.257" fill="none"/><rect width="40.815" height="5.226" x="-114.107" y="980.894" transform="scale(-1 1)" stroke="#000" stroke-width="1.257" fill="none"/><rect y="975.668" x="-116.669" height="5.226" width="40.815" transform="scale(-1 1)" stroke="#000" stroke-width="1.257" fill="none"/><rect width="40.815" height="5.226" x="78.416" y="970.442" stroke="#000" stroke-width="1.257" fill="none"/></g></svg>