<svg xmlns="http://www.w3.org/2000/svg" width="140" height="190"><rect width="20" height="20" x="85" y="140" fill="#E0E0E0" stroke="#808080"/><line x1="105" y1="20" x2="105" y2="140" stroke="#808080"/><path d="M30 130q20 7 13 30" stroke="#000" fill="none"/><path d="M10 160l95-140v140z" stroke="#000" fill="none"/><path d="M28.516 72.085l4.834-2.358h.483v16.772c0 1.113.046 1.807.139 2.08.093.273.286.483.579.63.293.146.889.229 1.787.249v.542h-7.471v-.542c.937-.02 1.543-.1 1.816-.242.273-.142.464-.332.571-.571.107-.239.161-.955.161-2.146v-10.723c0-1.445-.049-2.373-.146-2.783-.068-.312-.193-.542-.374-.688-.181-.146-.398-.22-.652-.22-.361 0-.864.151-1.509.454z" font-size="30" fill="#999" font-family="Serif"/><path d="M112.396 96.582h6.313v.542c-.4 0-.681.068-.842.205-.161.137-.242.317-.242.542 0 .234.171.596.513 1.084l.483.732.952 1.523 1.099-1.523c.703-.967 1.055-1.577 1.055-1.831 0-.205-.083-.378-.249-.52-.166-.142-.435-.212-.806-.212v-.542h4.541v.542c-.479.029-.894.161-1.245.396-.479.332-1.133 1.055-1.963 2.168l-1.831 2.446 3.34 4.805c.82 1.182 1.406 1.892 1.758 2.131.352.239.806.374 1.362.403v.527h-6.328v-.527c.439 0 .781-.098 1.025-.293.186-.137.278-.317.278-.542 0-.225-.313-.791-.938-1.699l-1.963-2.871-2.153 2.871c-.664.889-.996 1.416-.996 1.582 0 .234.11.447.33.637.22.19.549.295.989.315v.527h-4.38v-.527c.352-.049.659-.171.923-.366.371-.283.996-1.006 1.875-2.168l2.813-3.735-2.549-3.691c-.723-1.055-1.282-1.716-1.677-1.985-.396-.269-.891-.403-1.487-.403z" font-size="30" fill="#999" font-family="Serif"/><path d="M52.104 125.666c1.375 0 2.535.804 3.479 2.411s1.416 3.701 1.416 6.281c0 2.783-.509 4.976-1.526 6.58-1.017 1.603-2.193 2.405-3.528 2.405-1.31 0-2.464-.779-3.461-2.338-.997-1.558-1.495-3.672-1.495-6.342 0-2.677.494-4.846 1.483-6.506.989-1.66 2.199-2.49 3.632-2.49zm2.625 8.423c0-5.143-.903-7.715-2.71-7.715-1.855 0-2.783 2.572-2.783 7.715zm-5.493.757c0 2.661.248 4.624.745 5.89.496 1.265 1.164 1.898 2.002 1.898 1.815 0 2.73-2.596 2.747-7.788z" font-size="25" font-family="Serif"/></svg>