<svg xmlns="http://www.w3.org/2000/svg" xmlns:xlink="http://www.w3.org/1999/xlink" width="75" height="75"><defs><linearGradient id="a"><stop offset="0" stop-color="#fff"/><stop offset="1" stop-color="#808080"/></linearGradient><linearGradient><stop offset="0" stop-color="#fff" stop-opacity=".498"/><stop offset=".25" stop-color="#60ffff" stop-opacity=".373"/><stop offset=".966" stop-color="#ff5fff" stop-opacity=".247"/><stop offset="1" stop-color="#fff" stop-opacity="0"/></linearGradient><linearGradient><stop offset="0" stop-color="#fff"/><stop offset="1" stop-color="#fff" stop-opacity="0"/></linearGradient><marker orient="auto" overflow="visible"><path d="M0 0l5-5-17.5 5 17.5 5-5-5z" transform="matrix(.4 0 0 .4 4 0)" fill-rule="evenodd" stroke="#000" stroke-width="1pt"/></marker><marker orient="auto" overflow="visible"><path d="M-5.231-2.42l6.556 2.411-6.556 2.411c1.047-1.423 1.041-3.37 0-4.821z" fill-rule="evenodd"/></marker><marker orient="auto" id="c" overflow="visible"><path d="M0 5.65v-11.3" transform="scale(.4)" stroke="#000" stroke-width="1pt" fill="none"/></marker><marker orient="auto" overflow="visible"><path d="M0 5.65v-11.3" transform="scale(.4)" stroke="#000" stroke-width="1pt" fill="none"/></marker><marker orient="auto" overflow="visible"><path d="M0 5.65v-11.3" transform="scale(.4)" stroke="#000" stroke-width="1pt" fill="none"/></marker><marker orient="auto" overflow="visible"><path d="M0 5.65v-11.3" transform="scale(.4)" stroke="#000" stroke-width="1pt" fill="none"/></marker><linearGradient xlink:href="#a" id="b" x1="57.756" y1="62.244" x2="57.587" y2="69.246" gradientUnits="userSpaceOnUse"/></defs><g transform="translate(0 -977.362)"><text y="1047.084" x="54.418" style="line-height:125%" font-size="11.194" letter-spacing="0" word-spacing="0" font-family="Sans"><tspan y="1047.084" x="54.418">r</tspan></text><g><path d="M43.364 980.608c-14.534 0-26.313 3.284-26.313 7.344 0 .495.166 1.001.5 1.469v36.563c-.325.461-.5.95-.5 1.438 0 4.059 11.778 7.344 26.313 7.344 14.534 0 26.313-3.284 26.313-7.344 0-.359-.103-.717-.281-1.063v-37.344c.178-.346.281-.703.281-1.063 0-4.059-11.778-7.344-26.313-7.344z" fill="#fff"/><path d="M94.107 58.661c0 5.474-15.79 9.911-35.268 9.911s-35.268-4.437-35.268-9.911c0-5.474 15.79-9.911 35.268-9.911s35.268 4.437 35.268 9.911z" transform="matrix(.746 0 0 .742 -.545 944.456)" fill="url(#b)" stroke="#000" stroke-width="1.344"/><path d="M23.863 1023.878c0-4.059 11.782-7.35 26.316-7.35 14.534 0 26.316 3.291 26.316 7.35" stroke="#ccc" fill="none" transform="translate(-6.819 3.536)"/><path d="M23.876 1023.954l-.014-39.543" stroke="#000" fill="none" transform="translate(-6.819 3.536)"/><path d="M76.503 1023.983l-.014-39.269" stroke="#000" fill="none" transform="translate(-6.819 3.536)"/><path d="M76.496 1023.878c0 4.059-11.782 7.35-26.316 7.35-14.534 0-26.316-3.291-26.316-7.35" stroke="#000" fill="none" transform="translate(-6.819 3.536)"/></g><path d="M69.185 1038.678h-26.724" stroke="#000" stroke-width=".984" marker-start="url(#c)" marker-end="url(#c)" fill="none"/><path d="M48.487 16.152a2.525 2.525 0 1 1-5.051 0 2.525 2.525 0 1 1 5.051 0z" transform="matrix(.412 0 0 .412 23.659 1020.667)" fill="#808080"/><text style="line-height:125%" x="2.184" y="1010.388" font-size="11.194" letter-spacing="0" word-spacing="0" font-family="Sans"><tspan x="2.184" y="1010.388">h</tspan></text><path d="M44.155 1027.151h24.588" stroke="#808080" stroke-width=".968" stroke-dasharray="0.9676367, 0.9676367" fill="none"/></g></svg>