<svg xmlns="http://www.w3.org/2000/svg" width="75" height="75"><defs><marker orient="auto" overflow="visible"><path d="M0 0l5-5-17.5 5 17.5 5-5-5z" transform="matrix(.4 0 0 .4 4 0)" fill-rule="evenodd" stroke="#000" stroke-width="1pt"/></marker><marker orient="auto" overflow="visible"><path d="M-5.231-2.42l6.556 2.411-6.556 2.411c1.047-1.423 1.041-3.37 0-4.821z" fill-rule="evenodd"/></marker></defs><g transform="translate(0 -977.362)"><text style="line-height:125%" x="3.172" y="1013.806" font-size="11.194" letter-spacing="0" word-spacing="0" font-family="Sans"><tspan x="3.172" y="1013.806">y</tspan></text><text y="1044.542" x="60.235" style="line-height:125%" font-size="11.194" letter-spacing="0" word-spacing="0" font-family="Sans"><tspan y="1044.542" x="60.235">x</tspan></text><g fill="none"><path d="M26.012-57.937l38.468 11.479 33.744-12.379" stroke="#000" stroke-width="2.323" transform="matrix(.864 0 0 .858 -11.169 1080.921)"/><path d="M57.01-114.828v21.644" stroke="#666" stroke-width="1.161" transform="matrix(.864 0 0 .858 -11.169 1080.921)"/><path d="M97.775-103.256l-40.943-11.028-30.543 12.061" stroke="#000" stroke-width="1.161" transform="matrix(.864 0 0 .858 -11.169 1080.921)"/><path d="M26.012-102.131l38.468 11.479 33.744-12.379" stroke="#000" stroke-width="1.161" transform="matrix(.864 0 0 .858 -11.169 1080.921)"/><path transform="matrix(.864 0 0 .858 -11.169 960.801)" d="M26.369 37.66l.295 44.341" stroke="#000" stroke-width="2.323"/><path transform="matrix(.864 0 0 .858 -11.169 960.801)" d="M97.816 36.629l-.147 44.341" stroke="#000" stroke-width="1.161"/><path transform="matrix(.864 0 0 .858 -11.169 960.801)" d="M64.523 49.592v43.752" stroke="#000" stroke-width="1.161"/></g><text y="1044.907" x="22.916" style="line-height:125%" font-size="11.194" letter-spacing="0" word-spacing="0" font-family="Sans"><tspan y="1044.907" x="22.916">x</tspan></text></g></svg>