<svg xmlns="http://www.w3.org/2000/svg" width="210" height="210"><defs><marker orient="auto" id="a" overflow="visible"><path d="M5.77 0l-8.65 5v-10l8.65 5z" transform="matrix(.4 0 0 .4 -1.8 0)" fill="#fff" fill-rule="evenodd" stroke="#000" stroke-width="1pt"/></marker><marker orient="auto" id="b" overflow="visible"><path d="M-5.231-2.42l6.556 2.411-6.556 2.411c1.047-1.423 1.041-3.37 0-4.821z" fill-rule="evenodd"/></marker><marker orient="auto" overflow="visible"><path d="M-10.69-4.437l12.018 4.419-12.018 4.419c1.92-2.609 1.909-6.179 0-8.839z" fill-rule="evenodd"/></marker></defs><g><path d="M2.547 990.823h206.068" stroke="#000" stroke-width=".674" marker-end="url(#a)" fill="none" transform="translate(0 -842.362)"/><path d="M48.672 1029.318v-183.682" stroke="#000" stroke-width=".782" marker-end="url(#a)" fill="none" transform="translate(0 -842.362)"/><path d="M.764 1005.435c5.419 1.892 11.004 3.473 16.673 4.707 24.475 5.327 50.524 4.195 71.642-6.188 49.403-24.289 57.654-92.168 85.283-141.693" stroke="#000" stroke-width="2" fill="none" transform="translate(0 -842.362)"/><path d="M-5.876 1036.588l212.92-70.339" stroke="#000" stroke-dasharray="2, 2" fill="none" transform="translate(0 -842.362)"/><path style="line-height:125%" d="M128.53 152.238l2.945-3.693-2.725-3.412h1.708l1.237 1.666c.233.317.42.582.562.796.223-.294.428-.555.615-.783l1.359-1.679h1.632l-2.786 3.345 2.998 3.76h-1.677l-1.655-2.208-.44-.595-2.118 2.803z" font-size="40" letter-spacing="0" word-spacing="0" font-family="Sans"/><path style="line-height:125%" d="M132.175 984.935v-13.482000000000001" font-size="40" letter-spacing="0" word-spacing="0" stroke="#000" marker-end="url(#b)" font-family="Sans" fill="none" transform="translate(0 -842.362)"/><path transform="translate(0 -842.362) translate(-207.094 256.053)" d="M341.937 702.344a2.525 2.525 0 1 1-5.051 0 2.525 2.525 0 1 1 5.051 0z" fill="#fff" stroke="#000"/><path d="M341.937 702.344a2.525 2.525 0 1 1-5.051 0 2.525 2.525 0 1 1 5.051 0z" transform="matrix(1.148 0 0 1.148 -281.411 -657.463)" stroke="#000"/></g></svg>