<svg xmlns="http://www.w3.org/2000/svg" width="744.094" height="1052.362"><defs><marker orient="auto" id="a" overflow="visible"><path d="M5.77 0l-8.65 5v-10l8.65 5z" transform="scale(.4) translate(-4.5)" fill-rule="evenodd" fill="#fff" stroke="#000" stroke-width="1pt"/></marker><marker orient="auto" id="b" overflow="visible"><path d="M-5.231-2.42l6.556 2.411-6.556 2.411c1.047-1.423 1.041-3.37 0-4.821z" fill-rule="evenodd"/></marker><marker orient="auto" overflow="visible"><path d="M-10.69-4.437l12.018 4.419-12.018 4.419c1.92-2.609 1.909-6.179 0-8.839z" fill-rule="evenodd"/></marker></defs><g><path d="M262.588 683.162h206.068" stroke="#000" stroke-width=".674" marker-end="url(#a)" fill="none"/><path d="M308.712 721.657v-183.682" stroke="#000" stroke-width=".782" marker-end="url(#a)" fill="none"/><path d="M260.804 697.775c5.419 1.892 11.004 3.473 16.673 4.707 24.475 5.327 50.524 4.195 71.642-6.187 49.403-24.289 57.654-92.168 85.283-141.694" stroke="#000" stroke-width="2" fill="none"/><path d="M254.164 728.928l212.92-70.339" stroke="#000" stroke-dasharray="2,2" fill="none"/><path style="line-height:125%" d="M388.57 686.939l2.945-3.693-2.725-3.412h1.708l1.237 1.666c.233.317.42.582.562.796.223-.294.428-.555.615-.783l1.359-1.679h1.632l-2.786 3.345 2.998 3.76h-1.677l-1.655-2.208-.44-.595-2.118 2.803z" font-size="40" letter-spacing="0" word-spacing="0" font-family="Sans"/><path style="line-height:125%" d="M392.215 677.274v-13.482000000000001" font-size="40" letter-spacing="0" word-spacing="0" stroke="#000" marker-end="url(#b)" font-family="Sans" fill="none"/><path transform="translate(52.946 -51.607)" d="M341.937 702.344a2.525 2.525 0 1 1-5.051 0 2.525 2.525 0 1 1 5.051 0z" fill="#fff" stroke="#000"/><path d="M268.558 196.452h200.105" stroke="#000" stroke-width=".665" marker-end="url(#a)" fill="none"/><path d="M309.311 234.943v-187.711" stroke="#000" stroke-width=".789" marker-end="url(#a)" fill="none"/><path d="M268.451 213.495c11.866 3.407 24.314 5.318 36.557 5.395 15.576.098 30.82-2.772 44.11-9.307 49.403-24.289 57.654-92.168 85.283-141.694" stroke="#000" stroke-width="2" fill="none"/><path transform="matrix(1.148 0 0 1.148 -21.245 -609.724)" d="M341.937 702.344a2.525 2.525 0 1 1-5.051 0 2.525 2.525 0 1 1 5.051 0z" stroke="#000"/><path style="line-height:125%" d="M334.401 200.229l2.945-3.693-2.725-3.412h1.708l1.237 1.666c.233.317.42.582.562.796.223-.294.428-.555.615-.783l1.359-1.679h1.632l-2.786 3.345 2.998 3.76h-1.677l-1.655-2.208-.44-.595-2.118 2.803z" font-size="40" letter-spacing="0" word-spacing="0" font-family="Sans"/><path d="M341.937 702.344a2.525 2.525 0 1 1-5.051 0 2.525 2.525 0 1 1 5.051 0z" transform="matrix(1.148 0 0 1.148 -21.371 -122.761)" stroke="#000"/><path d="M261.066 963.162h196.998" stroke="#000" stroke-width=".661" marker-end="url(#a)" fill="none"/><path d="M308.712 1001.656v-184.689" stroke="#000" stroke-width=".784" marker-end="url(#a)" fill="none"/><path d="M261.954 978.171c28.555 9.697 61.501 10.741 87.165-1.877 49.403-24.289 57.654-92.168 85.283-141.694" stroke="#000" stroke-width="2" fill="none"/><path style="line-height:125%" d="M372.142 966.939l2.945-3.693-2.725-3.412h1.708l1.237 1.666c.233.317.42.582.562.796.223-.294.428-.555.615-.783l1.359-1.679h1.632l-2.786 3.345 2.998 3.76h-1.677l-1.655-2.208-.44-.595-2.118 2.803z" font-size="40" letter-spacing="0" word-spacing="0" font-family="Sans"/><path transform="matrix(1.148 0 0 1.148 -21.371 157.239)" d="M341.937 702.344a2.525 2.525 0 1 1-5.051 0 2.525 2.525 0 1 1 5.051 0z" stroke="#000"/><path d="M350.18 1008.263l107.591-196.741" stroke="#000" stroke-dasharray="2, 2" fill="none"/><path d="M341.937 702.344a2.525 2.525 0 1 1-5.051 0 2.525 2.525 0 1 1 5.051 0z" transform="translate(52.946 228.393)" fill="#fff" stroke="#000"/><path d="M262.083 436.019h206.572" stroke="#000" stroke-width=".675" marker-end="url(#a)" fill="none"/><path d="M309.003 474.514v-183.682" stroke="#000" stroke-width=".782" marker-end="url(#a)" fill="none"/><path d="M261.303 450.805c3.155 1.089 6.365 2.071 9.615 2.942 26.31 7.048 55.185 6.721 78.201-4.596 49.403-24.289 57.654-92.168 85.283-141.694" stroke="#000" stroke-width="2" fill="none"/><path d="M254.164 481.785l212.92-70.339" stroke="#000" stroke-dasharray="2, 2" fill="none"/><path transform="translate(-1.429 -248.75)" d="M341.937 702.344a2.525 2.525 0 1 1-5.051 0 2.525 2.525 0 1 1 5.051 0z" fill="#fff" stroke="#000"/><path style="line-height:125%" d="M334.401 439.797l2.945-3.693-2.725-3.412h1.708l1.237 1.666c.233.317.42.582.562.796.223-.294.428-.555.615-.783l1.359-1.679h1.632l-2.786 3.345 2.998 3.76h-1.677l-1.655-2.208-.44-.595-2.118 2.803z" font-size="40" letter-spacing="0" word-spacing="0" font-family="Sans"/><path style="line-height:125%" d="M338.036 438.344v13.482000000000001" font-size="40" letter-spacing="0" word-spacing="0" stroke="#000" marker-end="url(#b)" font-family="Sans" fill="none"/><path transform="matrix(1.148 0 0 1.148 -21.371 -369.904)" d="M341.937 702.344a2.525 2.525 0 1 1-5.051 0 2.525 2.525 0 1 1 5.051 0z" stroke="#000"/></g></svg>