<svg xmlns="http://www.w3.org/2000/svg" width="200" height="44"><defs><marker orient="auto" id="a" overflow="visible"><path d="M0 5.65v-11.3" transform="scale(.4)" stroke="#000" stroke-width="1pt" fill="none"/></marker><marker orient="auto" overflow="visible"><path d="M0 5.65v-11.3" transform="scale(.4)" stroke="#000" stroke-width="1pt" fill="none"/></marker><marker orient="auto" overflow="visible"><path d="M0 5.65v-11.3" transform="scale(.4)" stroke="#000" stroke-width="1pt" fill="none"/></marker><marker orient="auto" overflow="visible"><path d="M0 5.65v-11.3" transform="scale(.4)" stroke="#000" stroke-width="1pt" fill="none"/></marker><marker orient="auto" overflow="visible"><path d="M0 5.65v-11.3" transform="scale(.4)" stroke="#000" stroke-width="1pt" fill="none"/></marker><marker orient="auto" overflow="visible"><path d="M0 5.65v-11.3" transform="scale(.4)" stroke="#000" stroke-width="1pt" fill="none"/></marker><marker orient="auto" overflow="visible"><path d="M0 5.65v-11.3" transform="scale(.4)" stroke="#000" stroke-width="1pt" fill="none"/></marker><marker orient="auto" overflow="visible"><path d="M0 5.65v-11.3" transform="scale(.4)" stroke="#000" stroke-width="1pt" fill="none"/></marker><marker orient="auto" overflow="visible"><path transform="scale(.4)" d="M0 5.65v-11.3" stroke="#000" stroke-width="1pt" fill="none"/></marker><marker orient="auto" overflow="visible"><path transform="scale(.4)" d="M0 5.65v-11.3" stroke="#000" stroke-width="1pt" fill="none"/></marker><marker orient="auto" overflow="visible"><path transform="scale(.4)" d="M0 5.65v-11.3" stroke="#000" stroke-width="1pt" fill="none"/></marker><marker orient="auto" overflow="visible"><path transform="scale(.4)" d="M0 5.65v-11.3" stroke="#000" stroke-width="1pt" fill="none"/></marker></defs><g transform="translate(0 -16)"><path d="M51.454 51.522l129.481.12" stroke="#808080" stroke-width=".968" stroke-dasharray="0.96763671, 0.96763671" fill="none"/><g stroke-width="1.344" fill="none"><path transform="matrix(.746 0 0 .742 108.64 -18.139)" d="M94.107 58.661a35.268 9.911 0 1 1-70.536 0 35.268 9.911 0 1 1 70.536 0z" stroke="#000"/><path d="M23.571 58.661c0-5.474 15.79-9.911 35.268-9.911s35.268 4.437 35.268 9.911" transform="matrix(.746 0 0 .742 108.64 8.45)" stroke="#666"/><path transform="matrix(.746 0 0 .742 41.874 -76.275)" d="M113.088 172.948l-.018-35.863" stroke="#000"/><path transform="matrix(.746 0 0 .742 41.874 -76.275)" d="M183.615 172.986l-.018-35.975" stroke="#000"/><path transform="matrix(.746 0 0 .742 108.64 8.45)" d="M94.107 58.661c0 5.474-15.79 9.911-35.268 9.911s-35.268-4.437-35.268-9.911" stroke="#000"/></g><g stroke-width="1.601" fill="none"><path d="M97.775-59.062l-40.943-11.028-30.543 12.061" stroke="#666" transform="matrix(.626 0 0 .623 51.053 88.088)"/><path d="M26.012-57.937l38.468 11.479 33.744-12.379" stroke="#000" transform="matrix(.626 0 0 .623 51.053 88.088)"/><path transform="matrix(.626 0 0 .623 51.053 .868)" d="M57.01 25.58v44.047" stroke="#666"/><path d="M97.775-103.256l-40.943-11.028-30.543 12.061" stroke="#000" transform="matrix(.626 0 0 .623 51.053 88.088)"/><path d="M26.012-102.131l38.468 11.479 33.744-12.379" stroke="#000" transform="matrix(.626 0 0 .623 51.053 88.088)"/><path transform="matrix(.626 0 0 .623 51.053 .868)" d="M26.369 37.66l.295 44.341" stroke="#000"/><path transform="matrix(.626 0 0 .623 51.053 .868)" d="M97.816 36.629l-.147 44.341" stroke="#000"/><path transform="matrix(.626 0 0 .623 51.053 .868)" d="M64.523 49.592v43.752" stroke="#000"/></g><g fill="none" transform="matrix(.677 0 0 .672 -6.928 -643.503)"><path d="M82.459 1025.951l-74.375-1.75" stroke="#b3b3b3" stroke-width="1.483" transform="translate(3.841 8.579)"/><path d="M7.897 1024.201l33.3 13.005 41.763-11.316v-40.924l-41.75 12.485-33-12.5v39.75" stroke="#000" stroke-width="1.483" transform="translate(3.841 8.579)"/><path d="M41.136 997.394v39.649" stroke="#000" stroke-width="1.396" transform="translate(3.841 8.579)"/><path d="M83.416 984.701h-75.457" stroke="#000" stroke-width="1.483" transform="translate(3.841 8.579)"/></g><path d="M23.849 24.417l157.085.12" stroke="#808080" stroke-width=".968" stroke-dasharray="0.96763671, 0.96763671" fill="none"/><path d="M183.95 24.716v27.533" stroke="#000" stroke-width="1.243" marker-start="url(#a)" marker-end="url(#a)" fill="none"/><text y="40.798" x="185.122" style="line-height:125%" transform="scale(1.003 .997)" font-size="7.55" letter-spacing="0" word-spacing="0" font-family="Sans"><tspan y="40.798" x="185.122">h</tspan></text></g></svg>