<svg xmlns="http://www.w3.org/2000/svg" width="138" height="179"><defs><marker orient="auto" id="a" overflow="visible"><path d="M0 5.65v-11.3" transform="scale(.4)" stroke="#000" stroke-width="1pt" fill="none"/></marker><marker orient="auto" overflow="visible"><path d="M0 5.65v-11.3" transform="scale(.4)" stroke="#000" stroke-width="1pt" fill="none"/></marker><marker orient="auto" overflow="visible"><path d="M0 5.65v-11.3" transform="scale(.4)" stroke="#000" stroke-width="1pt" fill="none"/></marker><marker orient="auto" overflow="visible"><path d="M0 5.65v-11.3" transform="scale(.4)" stroke="#000" stroke-width="1pt" fill="none"/></marker><marker orient="auto" overflow="visible"><path d="M0 5.65v-11.3" transform="scale(.4)" stroke="#000" stroke-width="1pt" fill="none"/></marker><marker orient="auto" overflow="visible"><path d="M0 5.65v-11.3" transform="scale(.4)" stroke="#000" stroke-width="1pt" fill="none"/></marker><marker orient="auto" overflow="visible"><path d="M0 5.65v-11.3" transform="scale(.4)" stroke="#000" stroke-width="1pt" fill="none"/></marker><marker orient="auto" overflow="visible"><path d="M0 5.65v-11.3" transform="scale(.4)" stroke="#000" stroke-width="1pt" fill="none"/></marker><marker orient="auto" overflow="visible"><path transform="scale(.4)" d="M0 5.65v-11.3" stroke="#000" stroke-width="1pt" fill="none"/></marker><marker orient="auto" overflow="visible"><path transform="scale(.4)" d="M0 5.65v-11.3" stroke="#000" stroke-width="1pt" fill="none"/></marker><marker orient="auto" overflow="visible"><path transform="scale(.4)" d="M0 5.65v-11.3" stroke="#000" stroke-width="1pt" fill="none"/></marker><marker orient="auto" overflow="visible"><path transform="scale(.4)" d="M0 5.65v-11.3" stroke="#000" stroke-width="1pt" fill="none"/></marker></defs><g transform="translate(0 119)"><g transform="matrix(.795 0 0 .795 -4.369 13.867)"><g stroke-width="1.258" fill="none"><path d="M94.107 58.661c0 5.474-15.79 9.911-35.268 9.911s-35.268-4.437-35.268-9.911c0-5.474 15.79-9.911 35.268-9.911s35.268 4.437 35.268 9.911z" transform="translate(-104.723) translate(89.499 -61.65)" stroke="#000"/><path transform="translate(-104.723) translate(89.499 -25.816)" d="M23.571 58.661c0-5.474 15.79-9.911 35.268-9.911s35.268 4.437 35.268 9.911" stroke="#666"/><path d="M113.088 172.948l-.018-35.863" transform="translate(-104.723) translate(0 -140)" stroke="#000"/><path d="M183.615 172.986l-.018-35.975" transform="translate(-104.723) translate(0 -140)" stroke="#000"/><path d="M94.107 58.661c0 5.474-15.79 9.911-35.268 9.911s-35.268-4.437-35.268-9.911" transform="translate(-104.723) translate(89.499 -25.816)" stroke="#000"/></g><g stroke-width="1.258" fill="none"><path d="M25.712 55.253c.884-.678 2.024-1.322 3.387-1.921 6.264-2.755 17.243-4.582 29.741-4.582 11.939 0 22.493 1.667 28.874 4.218 1.662.665 3.042 1.389 4.088 2.16" transform="translate(52.361) translate(15.696 -25.816)" stroke="#666"/><path d="M40.04 30.746l34.544-33.742 33.561 32.819" stroke="#000" transform="translate(52.361)"/><path d="M91.801 55.129c1.49 1.097 2.306 2.288 2.306 3.532 0 5.474-15.79 9.911-35.268 9.911s-35.268-4.437-35.268-9.911c0-1.197.756-2.345 2.14-3.408" transform="translate(52.361) translate(15.696 -25.816)" stroke="#000"/></g><path d="M43.98-3.86h120.068" stroke="#808080" stroke-width="1.217" stroke-dasharray="1.21688654, 1.21688654" fill="none"/><path d="M8.635 48.058h70.562" stroke="#000" stroke-width="1.258" marker-start="url(#a)" marker-end="url(#a)" fill="none"/><text style="line-height:125%" x="40.667" y="57.745" font-size="11.194" letter-spacing="0" word-spacing="0" font-family="Sans"><tspan x="40.667" y="57.745">b</tspan></text><path d="M91.552 48.058h70.562" stroke="#000" stroke-width="1.258" marker-start="url(#a)" marker-end="url(#a)" fill="none"/><text y="57.745" x="123.584" style="line-height:125%" font-size="11.194" letter-spacing="0" word-spacing="0" font-family="Sans"><tspan y="57.745" x="123.584">b</tspan></text><path d="M167.439-3.65v36.319" stroke="#000" stroke-width="1.563" marker-start="url(#a)" marker-end="url(#a)" fill="none"/><text y="18.516" x="170.486" style="line-height:125%" font-size="11.194" letter-spacing="0" word-spacing="0" font-family="Sans"><tspan y="18.516" x="170.486">h</tspan></text></g><g transform="matrix(.795 0 0 .795 -4.92 -37.911)"><g stroke-width="1.258" fill="none"><path d="M136.924-70.063l1.377-32.888" stroke="#666" transform="translate(-13.473 13.489)"/><path d="M177.894-59.062l-40.943-11.028-30.543 12.061" stroke="#666" transform="translate(-13.473 13.489)"/><path d="M106.131-57.937l38.468 11.479 33.744-12.379-40.043-44.114z" stroke="#000" transform="translate(-13.473 13.489)"/><path d="M144.825-46.458l-6.644-56.707" stroke="#000" transform="translate(-13.473 13.489)"/></g><path d="M44.397-89.121h124.199" stroke="#808080" stroke-width="1.217" stroke-dasharray="1.21688654, 1.21688654" fill="none"/><g stroke-width="1.258" fill="none"><path d="M97.775-59.062l-40.943-11.028-30.543 12.061" stroke="#666" transform="translate(-16.389 13.489)"/><path d="M26.012-57.937l38.468 11.479 33.744-12.379" stroke="#000" transform="translate(-16.389 13.489)"/><path d="M57.01 25.58v44.047" transform="translate(-16.389 13.489) translate(0 -140)" stroke="#666"/><path d="M97.775-103.256l-40.943-11.028-30.543 12.061" stroke="#000" transform="translate(-16.389 13.489)"/><path d="M26.012-102.131l38.468 11.479 33.744-12.379" stroke="#000" transform="translate(-16.389 13.489)"/><path d="M26.369 37.66l.295 44.341" transform="translate(-16.389 13.489) translate(0 -140)" stroke="#000"/><path d="M97.816 36.629l-.147 44.341" transform="translate(-16.389 13.489) translate(0 -140)" stroke="#000"/><path d="M64.523 49.592v43.752" transform="translate(-16.389 13.489) translate(0 -140)" stroke="#000"/></g><path d="M167.708-89.391v51.799" stroke="#000" stroke-width="1.563" marker-start="url(#a)" marker-end="url(#a)" fill="none"/><text style="line-height:125%" x="170.495" y="-59.485" font-size="11.194" letter-spacing="0" word-spacing="0" font-family="Sans"><tspan x="170.495" y="-59.485">h</tspan></text><path d="M8.09-41.167l38.448 11.748" stroke="#000" stroke-width="1.258" marker-start="url(#a)" marker-end="url(#a)" fill="none"/><text style="line-height:125%" x="17.646" y="-27.204" font-size="11.194" letter-spacing="0" word-spacing="0" font-family="Sans"><tspan x="17.646" y="-27.204">b</tspan></text><path d="M91.319-41.241l38.239 11.822" stroke="#000" stroke-width="1.258" marker-start="url(#a)" marker-end="url(#a)" fill="none"/><text y="-27.204" x="100.667" style="line-height:125%" font-size="11.194" letter-spacing="0" word-spacing="0" font-family="Sans"><tspan y="-27.204" x="100.667">b</tspan></text></g><g transform="matrix(.795 0 0 .795 -4.309 -837.948)"><g fill="none" transform="translate(-3.536 -6.071)"><path d="M82.459 1025.951l-74.375-1.75" stroke="#b3b3b3" stroke-width="1.258" transform="translate(3.841 8.579)"/><path d="M7.897 1024.201l33.3 13.005 41.763-11.316v-40.924l-41.75 12.485-33-12.5v39.75" stroke="#000" stroke-width="1.258" transform="translate(3.841 8.579)"/><path d="M41.136 997.394v39.649" stroke="#000" stroke-width="1.184" transform="translate(3.841 8.579)"/><path d="M83.416 984.701h-75.457" stroke="#000" stroke-width="1.258" transform="translate(3.841 8.579)"/></g><g fill="none" transform="translate(-.684 -69.72)"><path d="M165.292 1098.177l-74.375-1.75" stroke="#b3b3b3" stroke-width="1.258"/><path d="M90.729 1096.427l33.3 13.005 41.763-11.316m-41.8-36.118l-32.95 34.928" stroke="#000" stroke-width="1.258"/><path d="M123.991 1061.902l-.023 47.367" stroke="#000" stroke-width="1.184"/><path d="M165.534 1097.641l-41.543-35.739" stroke="#000" stroke-width="1.258"/></g><path d="M85.082 987.288l80.005.179" stroke="#808080" stroke-width="1.217" stroke-dasharray="1.21688654, 1.21688654" fill="none"/><path d="M168.843 987.732v40.949" stroke="#000" stroke-width="1.563" marker-start="url(#a)" marker-end="url(#a)" fill="none"/><text style="line-height:125%" x="171.417" y="1011.465" font-size="11.194" letter-spacing="0" word-spacing="0" font-family="Sans"><tspan x="171.417" y="1011.465">h</tspan></text><path d="M8.782 1041.98h74.7" stroke="#000" stroke-width="1.258" marker-start="url(#a)" marker-end="url(#a)" fill="none"/><text y="1051.544" x="40.001" style="line-height:125%" font-size="11.194" letter-spacing="0" word-spacing="0" font-family="Sans"><tspan y="1051.544" x="40.001">b</tspan></text><path d="M89.867 1041.98h74.7" stroke="#000" stroke-width="1.258" marker-start="url(#a)" marker-end="url(#a)" fill="none"/><text style="line-height:125%" x="121.086" y="1051.544" font-size="11.194" letter-spacing="0" word-spacing="0" font-family="Sans"><tspan x="121.086" y="1051.544">b</tspan></text></g></g></svg>