<svg xmlns="http://www.w3.org/2000/svg" width="330" height="100"><defs><marker orient="auto" overflow="visible"><path d="M0 5.65v-11.3" transform="scale(.4)" stroke="#000" stroke-width="1pt" fill="none"/></marker><marker orient="auto" overflow="visible"><path d="M0 5.65v-11.3" transform="scale(.8)" stroke="#000" stroke-width="1pt" fill="none"/></marker></defs><g transform="translate(0 -952.362)"><g transform="translate(-90.065 7.674)"><g><path d="M90.941 985.658l.27 39.5 32.5 12.5 41.48-11 .145-41.125z" fill="#fff"/><path d="M91.21 1025.158l74.125-39.625" stroke="#ff8080" stroke-dasharray="1, 2" fill="none"/><path d="M165.191 1026.658l-74.375-1.75" stroke="#e6e6e6" fill="none"/><path d="M90.628 1024.908l33.3 13.005 41.763-11.316v-40.924l-41.75 12.485-33-12.5v39.75" stroke="#000" fill="none"/><path d="M123.867 998.101v39.649" stroke="#000" stroke-width=".941" fill="none"/><path d="M166.148 985.408h-75.457" stroke="#000" fill="none"/><path d="M123.835 1037.658l41.625-51.875" stroke="#008000" fill="none"/><path d="M91.335 985.658l32.375 52" stroke="#000080" fill="none"/></g><path transform="translate(-60.799 944.188)" d="M184.727 93.725l41.763-11.316" stroke="#f60" fill="none"/><path d="M123.941 998.158l41.75-12.485" stroke="#f60" fill="none"/></g><g transform="translate(-107.872)"><g transform="translate(82.494 -5.244)"><g><path d="M225.362 995.662l.23 40.814-41.855 11.061-33.207-12.75z" fill="#fff"/><g fill="none"><path d="M228.324 879.776l33.3 13.005 41.763-11.316v-40.924l-74.75 39.735" stroke="#000" transform="translate(-77.794 155.011)"/><path d="M261.531 892.526l41.625-51.875" stroke="#008000" transform="translate(-77.794 155.011)"/></g></g><path d="M183.83 1047.792l41.763-11.316" stroke="#f60" fill="none"/></g><g transform="translate(34.467 147.026)"><path d="M172 846.362l-.25 39.25 32.75 12.25 42-51.5z" fill="#fff"/><g fill="none"><path d="M170.406 1017.026l74.125-39.625" stroke="#f00" stroke-dasharray="1, 2" transform="translate(1.768 -131.168)"/><path d="M169.824 1016.776l33.3 13.005m-32.987-52.255v39.75" stroke="#000" transform="translate(1.768 -131.168)"/><path d="M245.344 977.276h-75.457" stroke="#000" transform="translate(1.768 -131.168)"/><path d="M203.031 1029.526l41.625-51.875" stroke="#008000" transform="translate(1.768 -131.168)"/><path d="M170.531 977.526l32.375 52" stroke="#000080" transform="translate(1.768 -131.168)"/></g></g><g transform="translate(80.51 -1.984)"><g transform="translate(-71.543 197.347)"><path d="M198.75 786.362l32 51 41.75-50.5z" fill="#fff" fill-opacity=".767"/><g fill="none"><path d="M245.063 842.131l-41.75 12.485-33-12.5" stroke="#000" transform="translate(27.931 -55.508)"/><path d="M203.24 854.558v39.649" stroke="#000" stroke-width=".941" transform="translate(27.931 -55.508)"/><path d="M245.52 841.865h-75.457" stroke="#000" transform="translate(27.931 -55.508)"/><path d="M203.208 894.115l41.625-51.875" stroke="#008000" transform="translate(27.931 -55.508)"/><path d="M170.708 842.115l32.375 52" stroke="#000080" transform="translate(27.931 -55.508)"/></g></g><path d="M159.701 996.454l41.75-12.485" stroke="#f60" fill="none"/></g></g><g transform="translate(-99.64) translate(307.692 74.128)"><g transform="translate(-12 -11.25)"><g transform="translate(9.75 7.5)"><g fill="#fff"><path d="M228.324 879.776l33.3 13.005 41.763-11.316v-40.924l-74.75 39.735" stroke="#000" transform="translate(-179.844 78.562)"/><path d="M261.531 892.526l41.625-51.875" stroke="#008000" transform="translate(-179.844 78.562)"/></g><path d="M81.78 971.343l41.763-11.316" stroke="#f60" fill="none"/></g><path transform="translate(0 877.362)" d="M58.542 88.976l74.52-39.625" stroke="#f00" fill="none"/></g><g transform="translate(-158.094 72.812)"><path d="M172 846.362l.174 39.496 32.326 12.004 42-51.5z" fill="#fff"/><g fill="none"><path d="M170.406 1017.026l74.125-39.625" stroke="#f00" stroke-dasharray="1, 2" transform="translate(1.768 -131.168)"/><path d="M169.824 1016.776l33.3 13.005m-32.987-52.255v39.75" stroke="#000" transform="translate(1.768 -131.168)"/><path d="M245.344 977.276h-75.457" stroke="#000" transform="translate(1.768 -131.168)"/><path d="M203.031 1029.526l41.625-51.875" stroke="#000080" transform="translate(1.768 -131.168)"/><path d="M170.531 977.526l32.375 52" stroke="#000080" transform="translate(1.768 -131.168)"/></g></g><g transform="translate(-23.335 41.366)"><g transform="translate(-161.241 60.5)"><path d="M198.75 786.362l32.389 52.245 41.361-51.745z" fill="#fff"/><g fill="none"><path d="M245.063 842.131l-41.75 12.485-33-12.5" stroke="#000" transform="translate(27.931 -55.508)"/><path d="M203.24 854.558v39.649" stroke="#000" stroke-width=".941" transform="translate(27.931 -55.508)"/><path d="M245.52 841.865h-75.457" stroke="#000" transform="translate(27.931 -55.508)"/><path d="M203.208 894.115l41.625-51.875" stroke="#008000" transform="translate(27.931 -55.508)"/><path d="M170.708 842.115l32.375 52" stroke="#000080" transform="translate(27.931 -55.508)"/></g></g><path d="M69.509 859.847l41.75-12.485" stroke="#f60" fill="none"/></g></g></g></svg>