<svg xmlns="http://www.w3.org/2000/svg" width="175" height="175"><defs><marker orient="auto" id="c" overflow="visible"><path d="M-5.231-2.42l6.556 2.411-6.556 2.411c1.047-1.423 1.041-3.37 0-4.821z" fill-rule="evenodd"/></marker><marker orient="auto" overflow="visible"><path d="M0 0l5-5-17.5 5 17.5 5-5-5z" transform="matrix(.2 0 0 .2 1.2 0)" fill-rule="evenodd" stroke="#000" stroke-width="1pt"/></marker><marker orient="auto" id="b" overflow="visible"><path d="M0 0l5-5-17.5 5 17.5 5-5-5z" transform="matrix(.4 0 0 .4 4 0)" fill-rule="evenodd" stroke="#000" stroke-width="1pt"/></marker><marker orient="auto" overflow="visible"><path d="M10.69 4.437l-12.018-4.419 12.018-4.419c-1.92 2.609-1.909 6.179 0 8.839z" fill-rule="evenodd"/></marker><marker orient="auto" id="a" overflow="visible"><path d="M0 5.65v-11.3" transform="scale(.4)" stroke="#000" stroke-width="1pt" fill="none"/></marker><marker orient="auto" overflow="visible"><path d="M0 5.65v-11.3" transform="scale(.4)" stroke="#000" stroke-width="1pt" fill="none"/></marker><marker orient="auto" overflow="visible"><path d="M0 5.65v-11.3" transform="scale(.4)" stroke="#000" stroke-width="1pt" fill="none"/></marker><marker orient="auto" overflow="visible"><path d="M0 5.65v-11.3" transform="scale(.4)" stroke="#000" stroke-width="1pt" fill="none"/></marker></defs><g transform="translate(0 -877.362)"><g transform="translate(-2.857 28.214)"><path transform="translate(-12.5 810.219)" d="M94.107 58.661c0 5.474-15.79 9.911-35.268 9.911s-35.268-4.437-35.268-9.911c0-5.474 15.79-9.911 35.268-9.911s35.268 4.437 35.268 9.911z" stroke="#000" fill="none"/><path d="M62.123 888.177c0 2.469-7.123 4.471-15.91 4.471-8.787 0-15.91-2.002-15.91-4.471 0-2.469 7.123-4.471 15.91-4.471 8.787 0 15.91 2.002 15.91 4.471z" fill="#b3b3b3"/><path d="M80.878 870.947l-34.985 33.558-31.723-31.514" stroke="#000" fill="none"/><path d="M11.079 916.873v-48.601" stroke="#808080" stroke-width=".968" stroke-dasharray="0.96763669, 0.96763669" fill="none"/><path d="M45.75 919.716h-34.742" stroke="#000" stroke-width=".984" marker-start="url(#a)" marker-end="url(#a)" fill="none"/><text y="928.998" x="26.408" style="line-height:125%" font-size="11.194" letter-spacing="0" word-spacing="0" font-family="Sans"><tspan y="928.998" x="26.408">r</tspan></text><path d="M45.633 916.873v-13.068" stroke="#808080" stroke-width=".968" stroke-dasharray="0.96763669, 0.96763669" fill="none"/><path d="M85.2 904.005v-35.058" stroke="#000" stroke-width=".984" marker-start="url(#a)" marker-end="url(#a)" fill="none"/><path d="M47.262 904.063h35.032" stroke="#808080" stroke-width=".968" stroke-dasharray="0.96763669, 0.96763669" fill="none"/><path d="M55.5 895.3l-9.594 9.219-9.25-9.188c-14.768 1.183-25.594 5.002-25.594 9.531 0 5.474 15.803 9.906 35.281 9.906 19.478 0 35.25-4.433 35.25-9.906 0-4.58-11.072-8.426-26.094-9.563z" stroke="#000" fill="none"/><text style="line-height:125%" x="87.775" y="888.844" font-size="11.194" letter-spacing="0" word-spacing="0" font-family="Sans"><tspan x="87.775" y="888.844">r</tspan></text><path d="M47.097 868.88c0 .418-.339.758-.758.758-.418 0-.758-.339-.758-.758 0-.418.339-.758.758-.758.418 0 .758.339.758.758z"/><path d="M47.262 868.951h35.032" stroke="#808080" stroke-width=".968" stroke-dasharray="0.96763669, 0.96763669" fill="none"/></g><g transform="translate(-2.857 28.214)"><path d="M94.107 58.661c0 5.474-15.79 9.911-35.268 9.911s-35.268-4.437-35.268-9.911c0-5.474 15.79-9.911 35.268-9.911s35.268 4.437 35.268 9.911z" transform="translate(-12.5 898.608)" stroke="#000" fill="none"/><path d="M11.079 1005.261v-48.601" stroke="#808080" stroke-width=".968" stroke-dasharray="0.96763669, 0.96763669" fill="none"/><path d="M45.75 1008.105h-34.742" stroke="#000" stroke-width=".984" marker-start="url(#a)" marker-end="url(#a)" fill="none"/><text style="line-height:125%" x="26.408" y="1017.386" font-size="11.194" letter-spacing="0" word-spacing="0" font-family="Sans"><tspan x="26.408" y="1017.386">r</tspan></text><path d="M45.633 1005.261v-13.068" stroke="#808080" stroke-width=".968" stroke-dasharray="0.96763669, 0.96763669" fill="none"/><path d="M85.2 992.393v-35.058" stroke="#000" stroke-width=".984" marker-start="url(#a)" marker-end="url(#a)" fill="none"/><path d="M47.262 992.451h35.032" stroke="#808080" stroke-width=".968" stroke-dasharray="0.96763669, 0.96763669" fill="none"/><text y="977.232" x="87.775" style="line-height:125%" font-size="11.194" letter-spacing="0" word-spacing="0" font-family="Sans"><tspan y="977.232" x="87.775">r</tspan></text><g stroke="#000" fill="none"><path d="M82.112 992.624c0 5.474-15.79 9.911-35.268 9.911s-35.268-4.437-35.268-9.911c0-5.474 15.79-9.911 35.268-9.911s35.268 4.437 35.268 9.911z"/><path d="M82.105 992.444c0-19.527-15.789-35.156-35.267-35.156-19.477 0-35.267 15.83-35.267 35.357" stroke-width=".999"/></g><path d="M47.262 957.34h35.032" stroke="#808080" stroke-width=".968" stroke-dasharray="0.96763669, 0.96763669" fill="none"/><path d="M47.413 957.3c0 .575-.466 1.042-1.042 1.042-.575 0-1.042-.466-1.042-1.042 0-.575.466-1.042 1.042-1.042.575 0 1.042.466 1.042 1.042z"/><path d="M47.034 992.466c0 .575-.466 1.042-1.042 1.042-.575 0-1.042-.466-1.042-1.042 0-.575.466-1.042 1.042-1.042.575 0 1.042.466 1.042 1.042z"/><path d="M46.628 967.956c-19.635 0-36.092 4.455-36.092 9.929s16.457 9.884 36.092 9.884c19.635 0 35.85-4.559 35.85-10.033 0-5.474-16.215-9.78-35.85-9.78zm0 2.906c17.464 0 32.164 2.918 32.164 6.779 0 3.861-14.7 7.221-32.164 7.221-17.464 0-31.918-3.072-31.918-6.933 0-3.861 14.454-7.067 31.918-7.067z" fill="#b3b3b3"/><g stroke="#000" fill="none"><path d="M82.112 992.624c0 5.474-15.79 9.911-35.268 9.911s-35.268-4.437-35.268-9.911c0-5.474 15.79-9.911 35.268-9.911s35.268 4.437 35.268 9.911z"/><path d="M78.631 977.192c-.376-.73-1.171-2.266-1.595-2.966-6.178-10.18-17.391-16.938-30.198-16.938-13.734 0-25.635 7.871-31.459 19.359-.154.303-.438.917-.583 1.226" stroke-width=".999"/></g></g><g transform="translate(-52.143 27.996)"><path d="M168.69 904.063h35.032" stroke="#808080" stroke-width=".968" stroke-dasharray="0.96763669, 0.96763669" fill="none"/><path transform="translate(0 852.362)" d="M167.143 51.964l36.25-34.286" stroke="#808080" fill="none"/><path transform="translate(0 852.362)" d="M214.643 51.607h-47.5v-42.679" stroke="#000" marker-start="url(#b)" marker-end="url(#c)" fill="none"/><text y="861.702" x="158.684" style="line-height:125%" font-size="11.194" letter-spacing="0" word-spacing="0" font-family="Sans"><tspan y="861.702" x="158.684">y</tspan></text><text style="line-height:125%" x="217.933" y="908.253" font-size="11.194" letter-spacing="0" word-spacing="0" font-family="Sans"><tspan x="217.933" y="908.253">x</tspan></text><path d="M163.897 890.611h6.313" stroke="#000" fill="none"/><path d="M180.502 901.155v6.313" stroke="#000" fill="none"/><path d="M182.394 891.01c0 .924-.749 1.673-1.673 1.673s-1.673-.749-1.673-1.673.749-1.673 1.673-1.673 1.673.749 1.673 1.673z"/><text style="line-height:125%" x="157.042" y="893.278" font-size="11.194" letter-spacing="0" word-spacing="0" font-family="Sans"><tspan x="157.042" y="893.278">h</tspan></text></g><g transform="translate(-53.839 27.996)"><text style="line-height:125%" x="183.857" y="984.169" font-size="11.194" letter-spacing="0" word-spacing="0" font-family="Sans"><tspan x="183.857" y="984.169">r</tspan></text><path d="M168.377 992.184l33.247-12.768" stroke="#808080" stroke-width=".968" stroke-dasharray="0.96763669, 0.96763669" fill="none"/><path d="M169.405 992.451h35.032" stroke="#808080" stroke-width=".968" stroke-dasharray="0.96763669, 0.96763669" fill="none"/><path d="M204.248 992.444c0-19.527-15.789-35.156-35.267-35.156" stroke="#808080" stroke-width=".999" fill="none"/><path d="M216.071 992.541h-47.5v-42.679" stroke="#000" marker-start="url(#b)" marker-end="url(#c)" fill="none"/><text style="line-height:125%" x="161.714" y="949.08" font-size="11.194" letter-spacing="0" word-spacing="0" font-family="Sans"><tspan x="161.714" y="949.08">y</tspan></text><text y="996.58" x="218.714" style="line-height:125%" font-size="11.194" letter-spacing="0" word-spacing="0" font-family="Sans"><tspan y="996.58" x="218.714">x</tspan></text><path d="M203.487 979.488c0 .924-.749 1.673-1.673 1.673s-1.673-.749-1.673-1.673.749-1.673 1.673-1.673 1.673.749 1.673 1.673z"/><path d="M165.66 979.425h6.313" stroke="#000" fill="none"/><path d="M201.661 989.254v6.313" stroke="#000" fill="none"/><text y="981.667" x="158.557" style="line-height:125%" font-size="11.194" letter-spacing="0" word-spacing="0" font-family="Sans"><tspan y="981.667" x="158.557">h</tspan></text></g></g></svg>