<svg xmlns="http://www.w3.org/2000/svg" width="86" height="90"><defs><marker orient="auto" id="a" overflow="visible"><path d="M0 5.65v-11.3" transform="scale(.4)" stroke="#000" stroke-width="1pt" fill="none"/></marker><marker orient="auto" overflow="visible"><path d="M0 5.65v-11.3" transform="scale(.8)" stroke="#000" stroke-width="1pt" fill="none"/></marker></defs><g transform="translate(0 -962.362) translate(-3.471)"><path d="M53.202 1039.68h-28.698" stroke="#000" stroke-width="1.244" marker-start="url(#a)" marker-end="url(#a)" fill="none"/><text y="1050.343" x="35.992" style="line-height:125%" font-size="11.194" letter-spacing="0" word-spacing="0" font-family="Sans"><tspan y="1050.343" x="35.992">b</tspan></text><path d="M4.651 1014.727l33.903-13.614" stroke="#ccc" fill="none"/><path d="M4.651 987.068l33.858 13.725" stroke="#ccc" fill="none"/><path d="M39.122 1001.211l34.168 13.902" stroke="#ccc" fill="none"/><path d="M38.769 1000.806l34.654-14.321" stroke="#ccc" fill="none"/><path d="M38.769 1000.806l14.501-34.651" stroke="#ccc" fill="none"/><path d="M38.769 1000.806l-14.225-34.607" stroke="#ccc" fill="none"/><path d="M80.8 1035.467v-34.761" stroke="#000" stroke-width="1.244" marker-start="url(#a)" marker-end="url(#a)" fill="none"/><path d="M77.342 1000.65h-38.343" stroke="#808080" stroke-width=".96" stroke-dasharray="0.95971984, 0.95971984" fill="none"/><path d="M76.9 1035.298h-22.168" stroke="#808080" stroke-width=".96" stroke-dasharray="0.95971984, 0.95971984" fill="none"/><path transform="matrix(1.786 -.74 .74 1.786 34.27 1055.629)" d="M32.54-25.309l-5.699 13.759-13.759 5.699-13.759-5.699-5.699-13.759 5.699-13.759 13.759-5.699 13.759 5.699z" stroke="#000" stroke-width=".517" fill="none"/><path d="M53.126 1035.164l-14.463-33.616-14.063 33.514" stroke="#000" fill="none"/><text style="line-height:125%" x="83.722" y="1022.413" font-size="11.194" letter-spacing="0" word-spacing="0" font-family="Sans"><tspan x="83.722" y="1022.413">h</tspan></text><text y="1018.648" x="24.121" style="line-height:125%" font-size="11.194" letter-spacing="0" word-spacing="0" font-family="Sans"><tspan y="1018.648" x="24.121">s</tspan></text><path d="M24.108 1034.751l14.364-34.313" stroke="#000" stroke-width="1.244" fill="none"/></g></svg>