<svg xmlns="http://www.w3.org/2000/svg" width="125" height="105"><defs><marker orient="auto" id="a" overflow="visible"><path d="M0 5.65v-11.3" transform="scale(.4)" stroke="#000" stroke-width="1pt" fill="none"/></marker><marker orient="auto" overflow="visible"><path d="M0 5.65v-11.3" transform="scale(.4)" stroke="#000" stroke-width="1pt" fill="none"/></marker></defs><g transform="translate(0 -947.362)"><path d="M38.005 1033.014l24.286-11.429-3.214-67.857z" fill="#e6e6e6" stroke="#00f" stroke-dasharray="1, 1"/><path d="M57.248 1005.558l2.186-52.186" stroke="#b3b3b3" fill="none"/><path d="M122.291 1023.014l-65-17.5-48.488 19.138" stroke="#666" fill="none"/><path d="M68.201 1047.85l-62.007-18.615" stroke="#000" stroke-width="1.244" marker-start="url(#a)" marker-end="url(#a)" fill="none"/><text style="line-height:125%" x="30.016" y="1049.596" font-size="11.194" letter-spacing="0" word-spacing="0" font-family="Sans"><tspan x="30.016" y="1049.596">b</tspan></text><text y="1033.209" x="53.213" style="line-height:125%" font-size="11.194" letter-spacing="0" word-spacing="0" font-family="Sans"><tspan y="1033.209" x="53.213">r</tspan></text><text style="line-height:125%" x="38.078" y="1006.666" font-size="11.194" letter-spacing="0" word-spacing="0" font-family="Sans"><tspan x="38.078" y="1006.666">s</tspan></text><text y="995.666" x="54.728" style="line-height:125%" font-size="11.194" letter-spacing="0" word-spacing="0" font-family="Sans"><tspan y="995.666" x="54.728">h</tspan></text><path d="M4.712 1021.809l51.066-71.408" stroke="#000" stroke-width="1.244" marker-start="url(#a)" marker-end="url(#a)" fill="none"/><text y="985.487" x="22.228" style="line-height:125%" font-size="11.194" letter-spacing="0" word-spacing="0" font-family="Sans"><tspan y="985.487" x="22.228">e</tspan></text><path d="M8.363 1024.8l61.071 18.214 53.571-19.643-63.571-70z" stroke="#000" fill="none"/><path d="M69.791 1043.014l-10.548-89.982" stroke="#000" fill="none"/><path d="M61.457 1006.636l-4.166-1.122-13.448 5.308" stroke="#b3b3b3" fill="none"/></g></svg>