<svg xmlns="http://www.w3.org/2000/svg" width="140" height="190"><rect width="20" height="20" x="85" y="140" fill="#E0E0E0" stroke="#808080"/><line x1="105" y1="20" x2="105" y2="140" stroke="#808080"/><path d="M30 130q20 7 13 30" stroke="#000" fill="none"/><path d="M10 160l95-140v140z" stroke="#000" fill="none"/><path d="M29.878 69.17v9.814c1.084-1.191 1.943-1.956 2.578-2.292.635-.337 1.27-.505 1.904-.505.762 0 1.416.21 1.963.63.547.42.952 1.079 1.216 1.978.186.625.278 1.768.278 3.428v4.746c0 .85.068 1.431.205 1.743.098.234.264.42.498.557.234.137.664.205 1.289.205v.527h-6.592v-.527h.308c.625 0 1.06-.095 1.304-.286.244-.19.415-.471.513-.842.029-.156.044-.615.044-1.377v-4.746c0-1.465-.076-2.427-.227-2.886-.151-.459-.393-.803-.725-1.033-.332-.229-.732-.344-1.201-.344-.479 0-.977.127-1.494.381-.518.254-1.138.767-1.86 1.538v7.09c0 .918.051 1.489.154 1.714.103.225.293.413.571.564.278.151.759.227 1.443.227v.527h-6.65v-.527c.596 0 1.064-.093 1.406-.278.195-.098.352-.283.469-.557.117-.273.176-.83.176-1.67v-12.144c0-1.533-.037-2.476-.11-2.827-.073-.352-.186-.591-.337-.718-.151-.127-.354-.19-.608-.19-.205 0-.537.078-.996.234l-.205-.513 4.014-1.641z" style="-inkscape-font-specification:Serif" font-family="Serif" font-size="30" fill="#999"/><path d="M57.54 183.066c-1.377 1.064-2.241 1.68-2.593 1.846-.527.244-1.089.366-1.685.366-.928 0-1.692-.317-2.292-.952-.601-.635-.901-1.47-.901-2.505 0-.654.146-1.221.439-1.699.4-.664 1.096-1.289 2.087-1.875.991-.586 2.639-1.299 4.944-2.139v-.527c0-1.338-.212-2.256-.637-2.754-.425-.498-1.042-.747-1.853-.747-.615 0-1.104.166-1.465.498-.371.332-.557.713-.557 1.143l.029.85c0 .449-.115.796-.344 1.04-.229.244-.53.366-.901.366-.361 0-.657-.127-.886-.381-.229-.254-.344-.601-.344-1.04 0-.84.43-1.611 1.289-2.314.859-.703 2.065-1.055 3.618-1.055 1.191 0 2.168.2 2.93.601.576.303 1.001.776 1.274 1.421.176.42.264 1.279.264 2.578v4.556c0 1.279.024 2.063.073 2.351.049.288.129.481.242.579.112.098.242.146.388.146.156 0 .293-.034.41-.103.205-.127.601-.483 1.187-1.069v.82c-1.094 1.465-2.139 2.197-3.135 2.197-.479 0-.859-.166-1.143-.498-.283-.332-.43-.898-.439-1.699zm0-.952v-5.112c-1.475.586-2.427 1.001-2.856 1.245-.771.43-1.323.879-1.655 1.348-.332.469-.498.981-.498 1.538 0 .703.21 1.287.63 1.75.42.464.903.696 1.45.696.742 0 1.719-.488 2.93-1.465z" font-size="30" fill="#999" font-family="Serif"/><path d="M117.5 96.187c2.031 0 3.662.771 4.893 2.314 1.045 1.318 1.567 2.832 1.567 4.541 0 1.201-.288 2.417-.864 3.647-.576 1.23-1.37 2.158-2.38 2.783-1.011.625-2.136.938-3.376.938-2.021 0-3.628-.806-4.819-2.417-1.006-1.357-1.509-2.881-1.509-4.57 0-1.23.305-2.454.916-3.669.61-1.216 1.414-2.114 2.41-2.695.996-.581 2.051-.872 3.164-.872zm-.454.952c-.518 0-1.038.154-1.56.461-.522.308-.945.847-1.267 1.619-.322.771-.483 1.763-.483 2.974 0 1.953.388 3.638 1.165 5.054.776 1.416 1.799 2.124 3.069 2.124.947 0 1.729-.391 2.344-1.172.615-.781.923-2.124.923-4.028 0-2.383-.513-4.258-1.538-5.625-.693-.937-1.577-1.406-2.651-1.406z" font-size="30" fill="#999" font-family="Serif"/><path d="M52.104 125.666c1.375 0 2.535.804 3.479 2.411s1.416 3.701 1.416 6.281c0 2.783-.509 4.976-1.526 6.58-1.017 1.603-2.193 2.405-3.528 2.405-1.31 0-2.464-.779-3.461-2.338-.997-1.558-1.495-3.672-1.495-6.342 0-2.677.494-4.846 1.483-6.506.989-1.66 2.199-2.49 3.632-2.49zm2.625 8.423c0-5.143-.903-7.715-2.71-7.715-1.855 0-2.783 2.572-2.783 7.715zm-5.493.757c0 2.661.248 4.624.745 5.89.496 1.265 1.164 1.898 2.002 1.898 1.815 0 2.73-2.596 2.747-7.788z" font-size="25" font-family="Serif"/></svg>