<svg xmlns="http://www.w3.org/2000/svg" width="100" height="50"><g transform="translate(0 -1002.362)"><path d="M8.233 1017.414h53.697" stroke="#008000" fill="none"/><path d="M13.929 12.679a3.571 3.571 0 1 1-7.143 0 3.571 3.571 0 1 1 7.143 0z" transform="matrix(.475 0 0 .475 3.313 1011.392)"/><path d="M95.897 1017.414h-33.967" stroke="#000080" fill="none"/><path transform="matrix(.475 0 0 .475 57.011 1011.392)" d="M13.929 12.679a3.571 3.571 0 1 1-7.143 0 3.571 3.571 0 1 1 7.143 0z"/><path d="M13.929 12.679a3.571 3.571 0 1 1-7.143 0 3.571 3.571 0 1 1 7.143 0z" transform="matrix(.475 0 0 .475 90.977 1011.392)"/><text y="1012.259" x="32.004" style="line-height:125%" font-size="11.194" letter-spacing="0" word-spacing="0" font-family="Sans"><tspan y="1012.259" x="32.004">a</tspan></text><text y="1012.259" x="76.093" style="line-height:125%" font-size="11.194" letter-spacing="0" word-spacing="0" font-family="Sans"><tspan y="1012.259" x="76.093">b</tspan></text><path d="M8.233 1041.414h33.3" stroke="#008000" fill="none"/><path d="M62.597 1041.414h-21.064" stroke="#000080" fill="none"/><path d="M62.597 1041.414h33.3" stroke="#008000" fill="none"/><path transform="matrix(.475 0 0 .475 3.313 1035.391)" d="M13.929 12.679a3.571 3.571 0 1 1-7.143 0 3.571 3.571 0 1 1 7.143 0z"/><path d="M13.929 12.679a3.571 3.571 0 1 1-7.143 0 3.571 3.571 0 1 1 7.143 0z" transform="matrix(.475 0 0 .475 57.677 1035.391)"/><path transform="matrix(.475 0 0 .475 90.977 1035.392)" d="M13.929 12.679a3.571 3.571 0 1 1-7.143 0 3.571 3.571 0 1 1 7.143 0z"/><text y="1050.971" x="20.914" style="line-height:125%" font-size="11.194" letter-spacing="0" word-spacing="0" font-family="Sans"><tspan y="1050.971" x="20.914">a&apos;</tspan></text><text style="line-height:125%" x="75.336" y="1050.971" font-size="11.194" letter-spacing="0" word-spacing="0" font-family="Sans"><tspan x="75.336" y="1050.971">a&apos;</tspan></text><text style="line-height:125%" x="46.42" y="1050.971" font-size="11.194" letter-spacing="0" word-spacing="0" font-family="Sans"><tspan x="46.42" y="1050.971">b&apos;</tspan></text><path d="M8.233 1020.176v20.733" stroke="#000" stroke-dasharray="0.99999999, 0.99999999" fill="none"/><path d="M95.897 15.052l-33.3 24" transform="translate(0 1002.362)" stroke="#000" stroke-dasharray="1, 1" fill="none"/></g></svg>