<svg xmlns="http://www.w3.org/2000/svg" width="200" height="200"><rect width="20" height="20" x="105" y="140" fill="#E0E0E0" stroke="#808080"/><line x1="105" y1="20" x2="105" y2="140" stroke="#808080"/><path d="M30 130q20 7 13 30" stroke="#000" fill="none"/><path d="M10 160l95-140 85 140z" stroke="#000" fill="none"/><path d="M101.167 188.174c1.606.342 2.808.889 3.606 1.641 1.105 1.048 1.658 2.33 1.658 3.845 0 1.151-.365 2.253-1.094 3.307-.729 1.054-1.729 1.823-2.999 2.307s-3.21.726-5.819.726h-10.938v-.632h.872c.968 0 1.663-.308 2.085-.923.262-.399.393-1.248.393-2.546v-14.971c0-1.436-.165-2.341-.496-2.717-.444-.501-1.105-.752-1.982-.752h-.872v-.632h10.015c1.868 0 3.367.137 4.495.41 1.709.41 3.013 1.136 3.914 2.179.9 1.042 1.35 2.242 1.35 3.597 0 1.162-.353 2.202-1.06 3.119-.706.917-1.749 1.598-3.127 2.042zm-8.955-.923c.422.08.903.14 1.444.179.541.04 1.136.06 1.786.06 1.663 0 2.914-.179 3.751-.538.837-.359 1.478-.909 1.923-1.649.444-.741.666-1.549.667-2.427 0-1.356-.553-2.512-1.658-3.469-1.105-.957-2.717-1.436-4.836-1.436-1.139 0-2.165.125-3.076.376zm0 11.074c1.322.308 2.626.461 3.914.461 2.062 0 3.634-.464 4.717-1.393 1.082-.929 1.624-2.076 1.624-3.444 0-.9-.245-1.766-.735-2.598-.49-.832-1.287-1.487-2.393-1.965-1.105-.479-2.472-.718-4.102-.718-.706 0-1.31.011-1.812.034-.501.023-.906.063-1.213.12z" font-size="35" font-family="Serif"/><path d="M28.572 71.296l.53 7.878h-.53c-.706-2.358-1.715-4.056-3.025-5.093-1.31-1.037-2.883-1.555-4.717-1.555-1.538 0-2.928.39-4.17 1.171-1.242.78-2.219 2.025-2.931 3.734-.712 1.709-1.068 3.834-1.068 6.375 0 2.096.336 3.914 1.008 5.452.672 1.538 1.683 2.717 3.033 3.538 1.35.82 2.891 1.23 4.623 1.23 1.504 0 2.831-.322 3.982-.966 1.151-.644 2.415-1.923 3.794-3.837l.53.342c-1.162 2.062-2.518 3.572-4.067 4.529-1.549.957-3.39 1.436-5.52 1.436-3.84 0-6.813-1.424-8.921-4.272-1.572-2.119-2.358-4.614-2.358-7.485 0-2.313.518-4.438 1.555-6.375 1.037-1.937 2.464-3.438 4.281-4.503 1.817-1.065 3.802-1.598 5.956-1.598 1.675 0 3.327.41 4.956 1.23.478.251.82.376 1.025.376.308 0 .575-.108.803-.325.296-.308.507-.735.632-1.282z" font-size="35" font-family="Serif"/><path d="M181.513 87.241h-8.972l-1.572 3.657c-.387.9-.581 1.572-.581 2.017 0 .353.168.664.504.931.336.268 1.062.441 2.179.521v.632h-7.297v-.632c.968-.171 1.595-.393 1.88-.667.581-.547 1.225-1.658 1.931-3.333l8.152-19.072h.598l8.066 19.277c.649 1.549 1.239 2.555 1.769 3.016.53.461 1.267.721 2.213.778v.632h-9.143v-.632c.923-.046 1.547-.199 1.871-.461.325-.262.487-.581.487-.957 0-.501-.228-1.293-.684-2.375zm-.479-1.265l-3.931-9.365-4.033 9.365z" font-size="35" fill="#606060" font-family="Serif"/><path d="M47.193 176.636c-.01 1.992.474 3.555 1.45 4.688.977 1.133 2.124 1.699 3.442 1.699.879 0 1.643-.242 2.292-.725.649-.483 1.194-1.311 1.633-2.483l.454.293c-.205 1.338-.801 2.556-1.787 3.655-.986 1.099-2.222 1.648-3.706 1.648-1.611 0-2.991-.627-4.138-1.882-1.147-1.255-1.721-2.942-1.721-5.061 0-2.295.588-4.084 1.765-5.369 1.177-1.284 2.654-1.926 4.431-1.926 1.504 0 2.739.496 3.706 1.487.967.991 1.45 2.317 1.45 3.977zm0-.85h6.211c-.049-.859-.151-1.465-.308-1.816-.244-.547-.608-.977-1.091-1.289-.483-.312-.989-.469-1.516-.469-.811 0-1.536.315-2.175.945-.64.63-1.013 1.506-1.121 2.629z" font-size="30" fill="#999" font-family="Serif"/><path d="M141.182 172.637v8.818c0 1.25.137 2.041.41 2.373.361.43.845.645 1.45.645h1.216v.527h-8.013v-.527h.601c.391 0 .747-.098 1.069-.293.322-.195.544-.459.666-.791s.183-.977.183-1.934v-8.818h-2.607v-1.055h2.607v-.879c0-1.338.215-2.471.645-3.398.43-.928 1.086-1.677 1.97-2.249.884-.571 1.877-.857 2.981-.857 1.025 0 1.968.332 2.827.996.566.439.85.933.85 1.479 0 .293-.127.569-.381.828s-.527.388-.82.388c-.225 0-.461-.081-.71-.242-.249-.161-.554-.508-.916-1.04-.361-.532-.693-.891-.996-1.077-.303-.186-.64-.278-1.011-.278-.449 0-.83.12-1.143.359-.313.239-.537.61-.674 1.113s-.205 1.799-.205 3.889v.967h3.457v1.055z" font-size="30" fill="#999" font-family="Serif"/><path d="M114.878 89.17v9.814c1.084-1.191 1.943-1.956 2.578-2.292.635-.337 1.27-.505 1.904-.505.762 0 1.416.21 1.963.63.547.42.952 1.079 1.216 1.978.186.625.278 1.768.278 3.428v4.746c0 .85.068 1.431.205 1.743.098.234.264.42.498.557.234.137.664.205 1.289.205v.527h-6.592v-.527h.308c.625 0 1.06-.095 1.304-.286.244-.19.415-.471.513-.842.029-.156.044-.615.044-1.377v-4.746c0-1.465-.076-2.427-.227-2.886-.151-.459-.393-.803-.725-1.033-.332-.229-.732-.344-1.201-.344-.479 0-.977.127-1.494.381-.518.254-1.138.767-1.86 1.538v7.09c0 .918.051 1.489.154 1.714.103.225.293.413.571.564.278.151.759.227 1.443.227v.527h-6.65v-.527c.596 0 1.064-.093 1.406-.278.195-.098.352-.283.469-.557.117-.273.176-.83.176-1.67v-12.144c0-1.533-.037-2.476-.11-2.827-.073-.352-.186-.591-.337-.718-.151-.127-.354-.19-.608-.19-.205 0-.537.078-.996.234l-.205-.513 4.014-1.641z" font-size="30" fill="#999" font-family="Serif"/><path d="M55.619 131.818h2.075l-1.257 5.652c-.244 1.074-.411 1.733-.5 1.978.326 1.497.798 2.246 1.416 2.246.732 0 1.111-.505 1.135-1.514h.439c-.024.944-.197 1.707-.519 2.289-.321.582-.743.873-1.263.873-.431 0-.753-.175-.964-.525-.212-.35-.439-1.066-.684-2.148-.846 1.782-2.23 2.673-4.15 2.673-1.31 0-2.352-.511-3.125-1.532-.773-1.021-1.16-2.484-1.16-4.388 0-1.872.423-3.328 1.27-4.37.846-1.042 1.864-1.562 3.052-1.563.838 0 1.526.297 2.063.891.537.594 1.013 1.563 1.428 2.905zm-1.074 4.785c-.382-1.31-.81-2.334-1.282-3.07-.472-.736-1.038-1.105-1.697-1.105-1.489 0-2.234 1.742-2.234 5.225 0 3.304.712 4.956 2.136 4.956 1.237 0 2.152-1.457 2.747-4.37z" font-size="25" font-family="Serif"/></svg>