<svg xmlns="http://www.w3.org/2000/svg" width="75" height="75"><defs><marker orient="auto" overflow="visible"><path d="M0 0l5-5-17.5 5 17.5 5-5-5z" transform="matrix(.4 0 0 .4 4 0)" fill-rule="evenodd" stroke="#000" stroke-width="1pt"/></marker><marker orient="auto" overflow="visible"><path d="M-5.231-2.42l6.556 2.411-6.556 2.411c1.047-1.423 1.041-3.37 0-4.821z" fill-rule="evenodd"/></marker></defs><g transform="translate(0 -977.362)"><text style="line-height:125%" x="3.172" y="1013.806" font-size="11.194" letter-spacing="0" word-spacing="0" font-family="Sans"><tspan x="3.172" y="1013.806">y</tspan></text><text y="1044.542" x="60.235" style="line-height:125%" font-size="11.194" letter-spacing="0" word-spacing="0" font-family="Sans"><tspan y="1044.542" x="60.235">x</tspan></text><g stroke="#000" fill="none"><path d="M11.299 1031.186l33.226 9.854 29.146-10.627" stroke-width="2.323"/><path d="M73.283 992.282l-35.364-9.467-26.381 10.353" stroke-width="1.161"/><path d="M11.299 993.248l33.226 9.854 29.146-10.627" stroke-width="1.161"/><path d="M11.614 993.052l.255 38.045" stroke-width="2.323"/><path d="M73.344 992.168l-.127 38.045" stroke-width="1.161"/><path d="M44.579 1003.29v37.539" stroke-width="1.161"/></g><text y="1044.907" x="22.916" style="line-height:125%" font-size="11.194" letter-spacing="0" word-spacing="0" font-family="Sans"><tspan y="1044.907" x="22.916">x</tspan></text></g></svg>