<svg xmlns="http://www.w3.org/2000/svg" width="210" height="195"><defs><marker orient="auto" id="a" overflow="visible"><path d="M5.77 0l-8.65 5v-10l8.65 5z" transform="matrix(.4 0 0 .4 -1.8 0)" fill="#fff" fill-rule="evenodd" stroke="#000" stroke-width="1pt"/></marker><marker orient="auto" overflow="visible"><path d="M-5.231-2.42l6.556 2.411-6.556 2.411c1.047-1.423 1.041-3.37 0-4.821z" fill-rule="evenodd"/></marker><marker orient="auto" overflow="visible"><path d="M-10.69-4.437l12.018 4.419-12.018 4.419c1.92-2.609 1.909-6.179 0-8.839z" fill-rule="evenodd"/></marker></defs><g><path d="M6.498 1008.691h200.105" stroke="#000" stroke-width=".665" marker-end="url(#a)" fill="none" transform="translate(0 -857.362)"/><path d="M47.251 1047.182v-187.711" stroke="#000" stroke-width=".789" marker-end="url(#a)" fill="none" transform="translate(0 -857.362)"/><path d="M6.391 1025.735c11.866 3.407 24.314 5.319 36.557 5.396 15.576.098 30.82-2.772 44.11-9.307 49.403-24.289 57.654-92.168 85.283-141.693" stroke="#000" stroke-width="2" fill="none" transform="translate(0 -857.362)"/><path transform="matrix(1.148 0 0 1.148 -283.305 -654.846)" d="M341.937 702.344a2.525 2.525 0 1 1-5.051 0 2.525 2.525 0 1 1 5.051 0z" stroke="#000"/><path style="line-height:125%" d="M72.34 155.107l2.945-3.693-2.725-3.412h1.708l1.237 1.666c.233.317.42.582.562.796.223-.294.428-.555.615-.783l1.359-1.679h1.632l-2.786 3.345 2.998 3.76h-1.677l-1.655-2.208-.44-.596-2.118 2.803z" font-size="40" letter-spacing="0" word-spacing="0" font-family="Sans"/></g></svg>