<svg xmlns="http://www.w3.org/2000/svg" width="100" height="50"><g transform="translate(0 -1002.362)"><path d="M9.929 1014.808c0 .937-.76 1.696-1.696 1.696-.937 0-1.696-.76-1.696-1.696 0-.937.76-1.696 1.696-1.696.937 0 1.696.76 1.696 1.696z"/><path d="M8.233 1014.808h58.284" stroke="#008000" fill="none"/><path d="M90.659 1014.808h-24.142" stroke="#000080" fill="none"/><path d="M68.213 1014.808c0 .937-.76 1.696-1.696 1.696-.937 0-1.696-.76-1.696-1.696 0-.937.76-1.696 1.696-1.696.937 0 1.696.76 1.696 1.696z"/><path d="M92.356 1014.808c0 .937-.76 1.696-1.696 1.696-.937 0-1.696-.76-1.696-1.696 0-.937.76-1.696 1.696-1.696.937 0 1.696.76 1.696 1.696z"/><path d="M9.929 1037.915c0 .937-.76 1.696-1.696 1.696-.937 0-1.696-.76-1.696-1.696 0-.937.76-1.696 1.696-1.696.937 0 1.696.76 1.696 1.696z"/><path d="M8.233 1037.915h47.927" stroke="#008000" fill="none"/><path d="M34.071 1037.915c0 .937-.76 1.696-1.696 1.696-.937 0-1.696-.76-1.696-1.696 0-.937.76-1.696 1.696-1.696.937 0 1.696.76 1.696 1.696z"/><path d="M66.661 1037.915h-9.965" stroke="#000080" fill="none"/><path d="M58.213 1037.915c0 .937-.76 1.696-1.696 1.696-.937 0-1.696-.76-1.696-1.696 0-.937.76-1.696 1.696-1.696.937 0 1.696.76 1.696 1.696z"/><path d="M66.626 1037.915h23.998" stroke="#008000" fill="none"/><path d="M92.356 1037.915c0 .937-.76 1.696-1.696 1.696-.937 0-1.696-.76-1.696-1.696 0-.937.76-1.696 1.696-1.696.937 0 1.696.76 1.696 1.696z"/><path d="M68.213 1037.915c0 .937-.76 1.696-1.696 1.696-.937 0-1.696-.76-1.696-1.696 0-.937.76-1.696 1.696-1.696.937 0 1.696.76 1.696 1.696z"/><path d="M8.233 1014.808l24.142 23.107" stroke="#000" stroke-dasharray="1, 2" fill="none"/><path d="M66.517 1037.915l24.142-23.107" stroke="#000" stroke-dasharray="1, 2" fill="none"/><path d="M56.696 1037.915l9.821-23.107" stroke="#000" stroke-dasharray="1, 2" fill="none"/><text y="1011.42" x="33.725" style="line-height:125%" font-size="11.194" letter-spacing="0" word-spacing="0" font-family="Sans"><tspan y="1011.42" x="33.725">a</tspan></text><text y="1011.42" x="75.461" style="line-height:125%" font-size="11.194" letter-spacing="0" word-spacing="0" font-family="Sans"><tspan y="1011.42" x="75.461">b</tspan></text><text style="line-height:125%" x="16.493" y="1051.956" font-size="11.194" letter-spacing="0" word-spacing="0" font-family="Sans"><tspan x="16.493" y="1051.956">a&apos;</tspan></text><text y="1051.956" x="39.797" style="line-height:125%" font-size="11.194" letter-spacing="0" word-spacing="0" font-family="Sans"><tspan y="1051.956" x="39.797">a&apos;</tspan></text><text style="line-height:125%" x="56.493" y="1051.956" font-size="11.194" letter-spacing="0" word-spacing="0" font-family="Sans"><tspan x="56.493" y="1051.956">b&apos;</tspan></text><text y="1051.956" x="76.225" style="line-height:125%" font-size="11.194" letter-spacing="0" word-spacing="0" font-family="Sans"><tspan y="1051.956" x="76.225">a&apos;</tspan></text></g></svg>