<svg xmlns="http://www.w3.org/2000/svg" width="300" height="100"><g transform="translate(0 -952.362)"><path d="M6.328 1001.39h286.884" stroke="#000" fill="none"/><path d="M149.503 956.178v91.94" stroke="#000" fill="none"/><text style="line-height:125%" x="138.361" y="966.496" font-size="11.194" letter-spacing="0" word-spacing="0" font-family="Sans"><tspan x="138.361" y="966.496">1</tspan></text><text style="line-height:125%" x="209.692" y="1021.333" font-size="11.194" letter-spacing="0" word-spacing="0" font-family="Sans"><tspan x="209.692" y="1021.333">π</tspan></text><text style="line-height:125%" x="270.927" y="1021.333" font-size="11.194" letter-spacing="0" word-spacing="0" font-family="Sans"><tspan x="270.927" y="1021.333">2π</tspan></text><text style="line-height:125%" x="155.481" y="1041.757" font-size="11.194" letter-spacing="0" word-spacing="0" font-family="Sans"><tspan x="155.481" y="1041.757">-1</tspan></text><text style="line-height:125%" x="12.64" y="1021.333" font-size="11.194" letter-spacing="0" word-spacing="0" font-family="Sans"><tspan x="12.64" y="1021.333">-2π</tspan></text><path d="M151.065 1037.675c0 .863-.7 1.563-1.562 1.563-.863 0-1.563-.7-1.563-1.563s.7-1.562 1.563-1.562 1.562.7 1.562 1.562z"/><path transform="translate(0 952.362)" stroke="#000" fill="none"/><path d="M151.065 966.603c0 .863-.7 1.563-1.562 1.563-.863 0-1.563-.7-1.563-1.563s.7-1.562 1.563-1.562 1.562.7 1.562 1.562z"/><path transform="matrix(1.296 0 0 1.296 -100.065 938.371)" d="M143.839 76.384a1.205 1.205 0 1 1-2.411 0 1.205 1.205 0 1 1 2.411 0z"/><path d="M143.839 76.384a1.205 1.205 0 1 1-2.411 0 1.205 1.205 0 1 1 2.411 0z" transform="matrix(1.296 0 0 1.296 -163.399 867.964)"/><path transform="matrix(1.296 0 0 1.296 93.802 868.026)" d="M143.839 76.384a1.205 1.205 0 1 1-2.411 0 1.205 1.205 0 1 1 2.411 0z"/><path d="M143.839 76.384a1.205 1.205 0 1 1-2.411 0 1.205 1.205 0 1 1 2.411 0z" transform="matrix(1.296 0 0 1.296 28.53 938.465)"/><text y="1021.333" x="76.259" style="line-height:125%" font-size="11.194" letter-spacing="0" word-spacing="0" font-family="Sans"><tspan y="1021.333" x="76.259">-π</tspan></text><path d="M6.429 975.569c2.728-3.092 5.456-5.464 8.184-6.931 2.728-1.467 5.456-2.025 8.184-1.635 2.728.39 5.456 1.733 8.184 3.919 2.728 2.186 5.456 5.218 8.184 8.855 2.728 3.637 5.456 7.879 8.184 12.392 2.728 4.513 5.456 9.296 8.184 13.973 2.728 4.677 5.456 9.245 8.184 13.348 2.728 4.103 5.456 7.735 8.184 10.616 2.728 2.881 5.456 5.003 8.184 6.207 2.728 1.204 5.456 1.482 8.184.819 2.728-.663 5.456-2.273 8.184-4.699 2.728-2.426 5.456-5.67 8.184-9.475 2.728-3.805 5.456-8.171 8.184-12.755 2.728-4.584 5.456-9.382 8.184-14.021 2.728-4.639 5.456-9.112 8.184-13.074 2.728-3.961 5.456-7.404 8.184-10.062 2.728-2.659 5.456-4.526 8.184-5.462 2.728-.936 5.456-.934 8.184 0 2.728.934 5.456 2.805 8.184 5.462 2.728 2.657 5.456 6.102 8.184 10.062 2.728 3.96 5.456 8.435 8.184 13.074 2.728 4.638 5.456 9.437 8.184 14.021 2.728 4.584 5.456 8.949 8.184 12.755 2.728 3.806 5.456 7.047 8.184 9.475 2.728 2.427 5.456 4.034 8.184 4.699 2.728.665 5.456.383 8.184-.819 2.728-1.202 5.456-3.328 8.184-6.207 2.728-2.879 5.456-6.514 8.184-10.616 2.728-4.102 5.456-8.671 8.184-13.348 2.728-4.677 5.456-9.459 8.184-13.973 2.728-4.514 5.456-8.754 8.184-12.392 2.728-3.638 5.456-6.667 8.184-8.855 2.728-2.188 5.456-3.527 8.184-3.919 2.728-.392 5.456.169 8.184 1.635 2.728 1.466 5.456 3.839 8.184 6.931" stroke="#000" fill="none"/></g></svg>