<svg xmlns="http://www.w3.org/2000/svg" width="100" height="100"><defs><marker orient="auto" overflow="visible"><path d="M0 0l5-5-17.5 5 17.5 5-5-5z" transform="matrix(.4 0 0 .4 4 0)" fill-rule="evenodd" stroke="#000" stroke-width="1pt"/></marker><marker orient="auto" overflow="visible"><path d="M-5.231-2.42l6.556 2.411-6.556 2.411c1.047-1.423 1.041-3.37 0-4.821z" fill-rule="evenodd"/></marker></defs><g transform="translate(0 -952.362)"><text style="line-height:125%" x="6.061" y="46.462" transform="translate(0 952.362)" font-size="40" letter-spacing="0" word-spacing="0" font-family="Sans"/><path d="M83.036 54.821a34.643 34.643 0 1 1-69.286 0 34.643 34.643 0 1 1 69.286 0z" transform="translate(.321 946.112)" stroke="#000" fill="none"/><path d="M4.696 1000.934h88.036" stroke="#000" fill="none"/><path d="M48.714 1044.773v-87.679" stroke="#000" fill="none"/><text style="line-height:125%" x=".761" y="997.881" font-size="11.194" letter-spacing="0" word-spacing="0" font-family="Sans"><tspan x=".761" y="997.881">π</tspan></text><text style="line-height:125%" x="85.389" y="1011.123" font-size="11.194" letter-spacing="0" word-spacing="0" font-family="Sans"><tspan x="85.389" y="1011.123">2π</tspan></text><text y="961.48" x="29.868" style="line-height:125%" font-size="11.194" letter-spacing="0" word-spacing="0" font-family="Sans"><tspan y="961.48" x="29.868">π/2</tspan></text><text style="line-height:125%" x="89.332" y="998.934" font-size="11.194" letter-spacing="0" word-spacing="0" font-family="Sans"><tspan x="89.332" y="998.934">0</tspan></text><text y="1049.846" x="49.868" style="line-height:125%" font-size="11.194" letter-spacing="0" word-spacing="0" font-family="Sans"><tspan y="1049.846" x="49.868">3π/2</tspan></text></g></svg>