<svg xmlns="http://www.w3.org/2000/svg" width="100" height="100"><defs><marker orient="auto" overflow="visible"><path d="M0 0l5-5-17.5 5 17.5 5-5-5z" transform="matrix(.4 0 0 .4 4 0)" fill-rule="evenodd" stroke="#000" stroke-width="1pt"/></marker><marker orient="auto" overflow="visible"><path d="M-5.231-2.42l6.556 2.411-6.556 2.411c1.047-1.423 1.041-3.37 0-4.821z" fill-rule="evenodd"/></marker></defs><g transform="translate(0 -952.362)"><path d="M81.59 1001.838h-10.556c0 1.807.475 3.283 1.269 4.773z" stroke="#000" fill="none"/><rect width="3.657" height="3.657" x="-384.236" y="925.159" transform="rotate(-27.13)" fill="#808080"/><rect width="3.536" height="3.536" x="64.595" y="998.298" fill="#808080"/><rect width="17.13" height="34.988" x="64.595" y="1001.833" stroke="#4d4d4d" fill="none"/><path d="M26.894 1018.723l-13.425 18.112h22.532c0-7.42-3.607-13.989-9.107-18.112z" stroke="#4d4d4d" fill="none"/><path d="M13.459 1036.821l22.541.013c0-2.991-.586-5.844-1.646-8.454-.222-.546-.561-1.342-.823-1.866z" stroke="#000" fill="none"/><path d="M64.595 968.178v10.556c1.807.01 3.229-.458 4.724-1.244z" stroke="#000" fill="none"/><path d="M64.595 968.178v68.643h-51.135m0 0l51.135-68.643" stroke="#000" fill="none"/><text style="line-height:125%" x="6.061" y="46.462" transform="translate(0 952.362)" font-size="40" letter-spacing="0" word-spacing="0" font-family="Sans"/><text style="line-height:125%" x="31.154" y="1021.659" font-size="11.194" letter-spacing="0" word-spacing="0" font-family="Sans"><tspan x="31.154" y="1021.659">α</tspan></text><text y="1033.129" x="38.14" style="line-height:125%" font-size="11.194" letter-spacing="0" word-spacing="0" font-family="Sans"><tspan y="1033.129" x="38.14">β</tspan></text><path d="M13.459 1036.821l73.201-37.56" stroke="#4d4d4d" fill="none"/><path d="M64.595 968.178l19.597 38.582" stroke="#4d4d4d" fill="none"/><text y="1040.409" x="3.654" style="line-height:125%" font-size="11.194" letter-spacing="0" word-spacing="0" font-family="Sans"><tspan y="1040.409" x="3.654">A</tspan></text><text style="line-height:125%" x="60.618" y="965.23" font-size="11.194" letter-spacing="0" word-spacing="0" font-family="Sans"><tspan x="60.618" y="965.23">B</tspan></text><text y="1047.73" x="60.797" style="line-height:125%" font-size="11.194" letter-spacing="0" word-spacing="0" font-family="Sans"><tspan y="1047.73" x="60.797">C</tspan></text><text style="line-height:125%" x="54.904" y="1006.457" font-size="11.194" letter-spacing="0" word-spacing="0" fill="#4d4d4d" font-family="Sans"><tspan x="54.904" y="1006.457">D</tspan></text><text y="1006.457" x="87.3" style="line-height:125%" font-size="11.194" letter-spacing="0" word-spacing="0" fill="#4d4d4d" font-family="Sans"><tspan y="1006.457" x="87.3">E</tspan></text><text style="line-height:125%" x="87.267" y="1039.248" font-size="11.194" letter-spacing="0" word-spacing="0" fill="#4d4d4d" font-family="Sans"><tspan x="87.267" y="1039.248">F</tspan></text><path d="M93.214 68.839a.982.982 0 1 1-1.964 0 .982.982 0 1 1 1.964 0z" transform="matrix(1.318 0 0 1.318 -40.033 911.091)"/><path transform="matrix(1.318 0 0 1.318 -39.854 945.92)" d="M93.214 68.839a.982.982 0 1 1-1.964 0 .982.982 0 1 1 1.964 0z"/><path d="M93.214 68.839a.982.982 0 1 1-1.964 0 .982.982 0 1 1 1.964 0z" transform="matrix(1.318 0 0 1.318 -56.993 946.079)"/><path transform="matrix(1.318 0 0 1.318 -56.984 911.269)" d="M93.214 68.839a.982.982 0 1 1-1.964 0 .982.982 0 1 1 1.964 0z"/><path d="M93.214 68.839a.982.982 0 1 1-1.964 0 .982.982 0 1 1 1.964 0z" transform="matrix(1.318 0 0 1.318 -56.984 877.612)"/><path transform="matrix(1.318 0 0 1.318 -108.127 946.092)" d="M93.214 68.839a.982.982 0 1 1-1.964 0 .982.982 0 1 1 1.964 0z"/></g></svg>