<svg xmlns="http://www.w3.org/2000/svg" xmlns:xlink="http://www.w3.org/1999/xlink" width="140" height="140"><defs><marker orient="auto" overflow="visible"><path d="M0 0l5-5-17.5 5 17.5 5-5-5z" transform="matrix(.4 0 0 .4 4 0)" fill-rule="evenodd" stroke="#000" stroke-width="1pt"/></marker><marker orient="auto" overflow="visible"><path d="M-5.231-2.42l6.556 2.411-6.556 2.411c1.047-1.423 1.041-3.37 0-4.821z" fill-rule="evenodd"/></marker><linearGradient xlink:href="#a" x1="17.93" y1="125.605" x2="39.901" y2="118.029" gradientUnits="userSpaceOnUse"/><linearGradient id="a"><stop offset="0" stop-color="#f60"/><stop offset="1" stop-color="#f60" stop-opacity="0"/></linearGradient><linearGradient gradientTransform="matrix(-.607 0 0 -.607 129.93 1056.51)" y2="118.029" x2="39.901" y1="125.605" x1="17.93" gradientUnits="userSpaceOnUse" xlink:href="#b"/><linearGradient id="b"><stop offset="0" stop-color="#f60"/><stop offset="1" stop-color="#f60" stop-opacity="0"/></linearGradient></defs><g transform="translate(0 -912.362)"><text style="line-height:125%" x="6.061" y="46.462" transform="translate(0 952.362)" font-size="40" letter-spacing="0" word-spacing="0" font-family="Sans"/><text style="line-height:125%" x="49.084" y="1033.023" font-size="11.194" letter-spacing="0" word-spacing="0" font-family="Sans"><tspan x="49.084" y="1033.023">α</tspan></text><text y="1011.064" x="41.707" style="line-height:125%" font-size="11.194" letter-spacing="0" word-spacing="0" font-family="Sans"><tspan y="1011.064" x="41.707">β</tspan></text><text y="1052.159" x=".251" style="line-height:125%" font-size="11.194" letter-spacing="0" word-spacing="0" font-family="Sans"><tspan y="1052.159" x=".251">A</tspan></text><text style="line-height:125%" x="84.167" y="920.594" font-size="11.194" letter-spacing="0" word-spacing="0" font-family="Sans"><tspan x="84.167" y="920.594">B</tspan></text><text y="1052.083" x="91.859" style="line-height:125%" font-size="11.194" letter-spacing="0" word-spacing="0" font-family="Sans"><tspan y="1052.083" x="91.859">C</tspan></text><text style="line-height:125%" x="83.946" y="985.37" font-size="11.194" letter-spacing="0" word-spacing="0" fill="#4d4d4d" font-family="Sans"><tspan x="83.946" y="985.37">D</tspan></text><text y="985.496" x="131.242" style="line-height:125%" font-size="11.194" letter-spacing="0" word-spacing="0" fill="#4d4d4d" font-family="Sans"><tspan y="985.496" x="131.242">E</tspan></text><text style="line-height:125%" x="123.476" y="1052.121" font-size="11.194" letter-spacing="0" word-spacing="0" fill="#4d4d4d" font-family="Sans"><tspan x="123.476" y="1052.121">F</tspan></text><g transform="matrix(1.762 0 0 1.762 -17.767 -786.43)"><path d="M81.59 1001.838h-10.556c0 1.807.475 3.283 1.269 4.773z" stroke="#000" stroke-width=".568" fill="none"/><rect transform="matrix(.879 -.477 .435 .9 0 0)" y="915.886" x="-362.599" height="4.614" width="4.459" fill="#808080"/><rect y="997.151" x="64.595" height="4.682" width="4.682" fill="#808080"/><rect y="1001.833" x="64.595" height="34.988" width="17.13" stroke="#4d4d4d" stroke-width=".568" fill="none"/><path d="M26.894 1018.723l-13.425 18.112h22.532c0-7.42-3.607-13.989-9.107-18.112z" stroke="#666" stroke-width=".568" fill="none"/><path d="M13.459 1036.821l22.541.013c0-2.991-.586-5.844-1.646-8.454-.222-.546-.561-1.342-.823-1.866z" stroke="#000" stroke-width=".568" fill="none"/><path d="M64.595 968.178v10.556c1.807.01 3.229-.458 4.724-1.244z" stroke="#000" stroke-width=".568" fill="none"/><path d="M64.595 968.178v68.643h-51.135m0 0l51.135-68.643" stroke="#000" stroke-width=".568" fill="none"/><path d="M13.459 1036.821l73.201-37.56" stroke="#4d4d4d" stroke-width=".568" fill="none"/><path d="M64.595 968.178l19.597 38.582" stroke="#4d4d4d" stroke-width=".568" fill="none"/><path d="M82.841 1001.833c0 .715-.58 1.295-1.295 1.295s-1.295-.58-1.295-1.295.58-1.295 1.295-1.295 1.295.58 1.295 1.295z"/><path d="M83.019 1036.663c0 .715-.58 1.295-1.295 1.295s-1.295-.58-1.295-1.295.58-1.295 1.295-1.295 1.295.58 1.295 1.295z"/><path d="M65.881 1036.821c0 .715-.58 1.295-1.295 1.295s-1.295-.58-1.295-1.295.58-1.295 1.295-1.295 1.295.58 1.295 1.295z"/><path d="M65.889 1002.012c0 .715-.58 1.295-1.295 1.295s-1.295-.58-1.295-1.295.58-1.295 1.295-1.295 1.295.58 1.295 1.295z"/><path d="M65.889 968.355c0 .715-.58 1.295-1.295 1.295s-1.295-.58-1.295-1.295.58-1.295 1.295-1.295 1.295.58 1.295 1.295z"/><path d="M14.747 1036.835c0 .715-.58 1.295-1.295 1.295s-1.295-.58-1.295-1.295.58-1.295 1.295-1.295 1.295.58 1.295 1.295z"/></g><path d="M32.325 103.382l5.556-5.556" transform="translate(0 912.362)" stroke="#000" fill="none"/><path d="M34.793 1018.325l5.924-5.162" stroke="#000" fill="none"/><path d="M40.701 1032.455l7.658-1.758" stroke="#000" fill="none"/><path d="M104.151 984.031l7.658-1.758" stroke="#000" fill="none"/><path d="M101.242 941.297l-1.758-7.658" stroke="#000" fill="none"/></g></svg>