<svg xmlns="http://www.w3.org/2000/svg" width="300" height="100"><g transform="translate(0 -952.362)"><path d="M6.328 1001.39h286.884" stroke="#000" fill="none"/><path d="M149.503 956.178v91.94" stroke="#000" fill="none"/><text y="970.246" x="138.361" style="line-height:125%" font-size="11.194" letter-spacing="0" word-spacing="0" font-family="Sans"><tspan y="970.246" x="138.361">1</tspan></text><text y="1021.333" x="209.692" style="line-height:125%" font-size="11.194" letter-spacing="0" word-spacing="0" font-family="Sans"><tspan y="1021.333" x="209.692">π</tspan></text><text y="1021.333" x="270.927" style="line-height:125%" font-size="11.194" letter-spacing="0" word-spacing="0" font-family="Sans"><tspan y="1021.333" x="270.927">2π</tspan></text><text y="1041.757" x="155.481" style="line-height:125%" font-size="11.194" letter-spacing="0" word-spacing="0" font-family="Sans"><tspan y="1041.757" x="155.481">-1</tspan></text><text y="1021.333" x="12.64" style="line-height:125%" font-size="11.194" letter-spacing="0" word-spacing="0" font-family="Sans"><tspan y="1021.333" x="12.64">-2π</tspan></text><path d="M151.065 1037.675c0 .863-.7 1.563-1.562 1.563-.863 0-1.563-.7-1.563-1.563s.7-1.562 1.563-1.562 1.562.7 1.562 1.562z"/><path transform="translate(0 952.362)" stroke="#000" fill="none"/><path d="M6.429 1025.377c2.728-3.549 5.456-7.723 8.184-12.195 2.728-4.472 5.456-9.241 8.184-13.931 2.728-4.691 5.456-9.3 8.184-13.468 2.728-4.169 5.456-7.891 8.184-10.879 2.728-2.988 5.456-5.236 8.184-6.572 2.728-1.336 5.456-1.754 8.184-1.227 2.728.527 5.456 2.004 8.184 4.311 2.728 2.307 5.456 5.446 8.184 9.169 2.728 3.722 5.456 8.028 8.184 12.579 2.728 4.55 5.456 9.343 8.184 14.003 2.728 4.66 5.456 9.183 8.184 13.216 2.728 4.034 5.456 7.573 8.184 10.343 2.728 2.771 5.456 4.767 8.184 5.837 2.728 1.07 5.456 1.209 8.184.41 2.728-.799 5.456-2.54 8.184-5.083 2.728-2.542 5.456-5.888 8.184-9.773 2.728-3.884 5.456-8.307 8.184-12.92l8.184-14.027c2.728-4.613 5.456-9.034 8.184-12.92 2.728-3.885 5.456-7.229 8.184-9.773 2.728-2.544 5.456-4.282 8.184-5.083 2.728-.801 5.456-.659 8.184.41 2.728 1.069 5.456 3.068 8.184 5.837 2.728 2.769 5.456 6.311 8.184 10.343 2.728 4.033 5.456 8.557 8.184 13.216 2.728 4.66 5.456 9.452 8.184 14.003 2.728 4.551 5.456 8.855 8.184 12.579 2.728 3.724 5.456 6.86 8.184 9.169 2.728 2.308 5.456 3.782 8.184 4.311 2.728.529 5.456.107 8.184-1.227 2.728-1.334 5.456-3.585 8.184-6.572 2.728-2.987 5.456-6.711 8.184-10.879 2.728-4.168 5.456-8.778 8.184-13.468 2.728-4.691 5.456-9.458 8.184-13.931 2.728-4.473 5.456-8.646 8.184-12.195" stroke="#000" fill="none"/><path d="M151.065 966.603c0 .863-.7 1.563-1.562 1.563-.863 0-1.563-.7-1.563-1.563s.7-1.562 1.563-1.562 1.562.7 1.562 1.562z"/><path d="M86.393 1001.405c0 .863-.7 1.563-1.562 1.563-.863 0-1.563-.7-1.563-1.563s.7-1.562 1.563-1.562 1.562.7 1.562 1.562z"/><path d="M23.06 1001.388c0 .863-.7 1.563-1.562 1.563-.863 0-1.563-.7-1.563-1.563s.7-1.562 1.563-1.562 1.562.7 1.562 1.562z"/><path d="M280.26 1001.45c0 .863-.7 1.563-1.562 1.563-.863 0-1.563-.7-1.563-1.563s.7-1.562 1.563-1.562 1.562.7 1.562 1.562z"/><path d="M214.989 1001.499c0 .863-.7 1.563-1.562 1.563-.863 0-1.563-.7-1.563-1.563s.7-1.562 1.563-1.562 1.562.7 1.562 1.562z"/><text style="line-height:125%" x="76.259" y="1021.333" font-size="11.194" letter-spacing="0" word-spacing="0" font-family="Sans"><tspan x="76.259" y="1021.333">-π</tspan></text></g></svg>