<svg xmlns="http://www.w3.org/2000/svg" width="100" height="100"><defs><marker orient="auto" overflow="visible"><path d="M0 0l5-5-17.5 5 17.5 5-5-5z" transform="matrix(.4 0 0 .4 4 0)" fill-rule="evenodd" stroke="#000" stroke-width="1pt"/></marker><marker orient="auto" overflow="visible"><path d="M-5.231-2.42l6.556 2.411-6.556 2.411c1.047-1.423 1.041-3.37 0-4.821z" fill-rule="evenodd"/></marker></defs><g transform="translate(0 -952.362)"><text style="line-height:125%" x="6.061" y="46.462" transform="translate(0 952.362)" font-size="40" letter-spacing="0" word-spacing="0" font-family="Sans"/><path d="M6.373 1046.01l81.475-47.042" stroke="#666" fill="none"/><path d="M5.853 1045.489l47.04-81.48" stroke="#666" fill="none"/><path d="M75.497 1051.602c.164-1.953.251-3.909.251-5.904 0-38.456-31.137-69.595-69.592-69.595-2.039 0-4.035.08-6.03.251" stroke="#000" fill="none"/><path d="M6.147 957.599v88.116h88.47" stroke="#000" fill="none"/><text y="997.719" x="83.018" style="line-height:125%" font-size="11.194" letter-spacing="0" word-spacing="0" font-family="Sans"><tspan y="997.719" x="83.018">π/6</tspan></text><path d="M6.147 1045.715l66.524-66.528" stroke="#000" fill="none"/><text style="line-height:125%" x="71.093" y="977.862" font-size="11.194" letter-spacing="0" word-spacing="0" font-family="Sans"><tspan x="71.093" y="977.862">π/4</tspan></text><text y="962.937" x="48.915" style="line-height:125%" font-size="11.194" letter-spacing="0" word-spacing="0" font-family="Sans"><tspan y="962.937" x="48.915">π/3</tspan></text></g></svg>