<svg xmlns="http://www.w3.org/2000/svg" width="100" height="100"><defs><marker orient="auto" overflow="visible"><path d="M0 0l5-5-17.5 5 17.5 5-5-5z" transform="matrix(.4 0 0 .4 4 0)" fill-rule="evenodd" stroke="#000" stroke-width="1pt"/></marker><marker orient="auto" overflow="visible"><path d="M-5.231-2.42l6.556 2.411-6.556 2.411c1.047-1.423 1.041-3.37 0-4.821z" fill-rule="evenodd"/></marker></defs><g transform="translate(0 -952.362)"><text style="line-height:125%" x="6.061" y="46.462" transform="translate(0 952.362)" font-size="40" letter-spacing="0" word-spacing="0" font-family="Sans"/><text y="990.102" x="20.189" style="line-height:125%" font-size="11.194" letter-spacing="0" word-spacing="0" font-family="Sans"><tspan y="990.102" x="20.189">1</tspan></text><text style="line-height:125%" x="83.765" y="1003.595" font-size="11.194" letter-spacing="0" word-spacing="0" font-family="Sans"/><path d="M52.991 955.472v17.368m0 12.716v46.031" stroke="#666" fill="none"/><path d="M96.937 1031.588h-87.89l43.945-76.115z" stroke="#000" fill="none"/><text y="1044.389" x="23.737" style="line-height:125%" font-size="11.194" letter-spacing="0" word-spacing="0" font-family="Sans"><tspan y="1044.389" x="23.737">1/2</tspan></text><path d="M14.316 70.097a10.54 10.54 0 0 1 5.27 9.128h-10.54z" transform="matrix(1.125 0 0 1.125 -1.133 942.441)" stroke="#666" stroke-width=".889" fill="none"/><path transform="matrix(-1.125 0 0 1.125 107.116 942.441)" d="M14.316 70.097a10.54 10.54 0 0 1 5.27 9.128h-10.54z" stroke="#666" stroke-width=".889" fill="none"/><path d="M52.991 955.472l-5.93 10.271c1.803 1.041 3.848 1.589 5.93 1.589v-11.86" stroke="#666" fill="none"/><text style="line-height:125%" x="18.613" y="1027.162" font-size="11.194" letter-spacing="0" word-spacing="0" fill="#666" font-family="Sans"><tspan x="18.613" y="1027.162">π/3</tspan></text><text y="982.915" x="43.434" style="line-height:125%" font-size="11.194" letter-spacing="0" word-spacing="0" fill="#666" font-family="Sans"><tspan y="982.915" x="43.434">π/6</tspan></text><g transform="translate(-22.42 2.178)"><text y="1002.838" x="77.287" style="line-height:125%" font-size="11.194" letter-spacing="0" word-spacing="0" font-family="Sans"><tspan y="1002.838" x="77.287"><tspan font-size="13">√3</tspan></tspan></text><text style="line-height:125%" x="82.587" y="1014.341" font-size="11.194" letter-spacing="0" word-spacing="0" font-family="Sans"><tspan x="82.587" y="1014.341">2</tspan></text><path transform="translate(0 952.362)" d="M78.666 52.712l.379-.126h13.448" stroke="#000" stroke-width=".5" fill="none"/></g></g></svg>