<svg xmlns="http://www.w3.org/2000/svg" width="100" height="100"><defs><marker orient="auto" overflow="visible"><path d="M0 0l5-5-17.5 5 17.5 5-5-5z" transform="matrix(.4 0 0 .4 4 0)" fill-rule="evenodd" stroke="#000" stroke-width="1pt"/></marker><marker orient="auto" overflow="visible"><path d="M-5.231-2.42l6.556 2.411-6.556 2.411c1.047-1.423 1.041-3.37 0-4.821z" fill-rule="evenodd"/></marker></defs><g transform="translate(0 -952.362)"><text style="line-height:125%" x="6.061" y="46.462" transform="translate(0 952.362)" font-size="40" letter-spacing="0" word-spacing="0" font-family="Sans"/><text y="985.221" x="26.732" style="line-height:125%" font-size="11.194" letter-spacing="0" word-spacing="0" font-family="Sans"><tspan y="985.221" x="26.732">1</tspan></text><g transform="translate(-18.395 -4.737)" stroke="#000" fill="none"><path d="M91.681 958.408l-71.489 71.489h71.489z"/><rect transform="scale(-1 1)" y="1022.848" x="-91.681" height="7.048" width="7.048"/></g><text style="line-height:125%" x="83.765" y="1003.595" font-size="11.194" letter-spacing="0" word-spacing="0" font-family="Sans"/><g transform="translate(.571 -9.286)"><text y="1002.838" x="77.287" style="line-height:125%" font-size="11.194" letter-spacing="0" word-spacing="0" font-family="Sans"><tspan y="1002.838" x="77.287"><tspan font-size="13">√</tspan>2</tspan></text><text style="line-height:125%" x="82.587" y="1014.341" font-size="11.194" letter-spacing="0" word-spacing="0" font-family="Sans"><tspan x="82.587" y="1014.341">2</tspan></text><path transform="translate(0 952.362)" d="M78.666 52.712l.379-.126h13.448" stroke="#000" stroke-width=".5" fill="none"/></g><g transform="translate(-45.179 36.464)"><text style="line-height:125%" x="77.287" y="1002.838" font-size="11.194" letter-spacing="0" word-spacing="0" font-family="Sans"><tspan x="77.287" y="1002.838"><tspan font-size="13">√</tspan>2</tspan></text><text y="1014.341" x="82.587" style="line-height:125%" font-size="11.194" letter-spacing="0" word-spacing="0" font-family="Sans"><tspan y="1014.341" x="82.587">2</tspan></text><path d="M78.666 52.712l.379-.126h13.448" transform="translate(0 952.362)" stroke="#000" stroke-width=".5" fill="none"/></g></g></svg>