<?xml version="1.0" encoding="UTF-8" standalone="no"?>
<svg
   xmlns:dc="http://purl.org/dc/elements/1.1/"
   xmlns:cc="http://creativecommons.org/ns#"
   xmlns:rdf="http://www.w3.org/1999/02/22-rdf-syntax-ns#"
   xmlns:svg="http://www.w3.org/2000/svg"
   xmlns="http://www.w3.org/2000/svg"
   xmlns:sodipodi="http://sodipodi.sourceforge.net/DTD/sodipodi-0.dtd"
   xmlns:inkscape="http://www.inkscape.org/namespaces/inkscape"
   version="1.1"
   width="140"
   height="190"
   id="testsvg3"
   inkscape:version="0.48.4 r9939"
   sodipodi:docname="costrigsub2.svg">
  <metadata
     id="metadata18">
    <rdf:RDF>
      <cc:Work
         rdf:about="">
        <dc:format>image/svg+xml</dc:format>
        <dc:type
           rdf:resource="http://purl.org/dc/dcmitype/StillImage" />
      </cc:Work>
    </rdf:RDF>
  </metadata>
  <defs
     id="defs16" />
  <sodipodi:namedview
     pagecolor="#ffffff"
     bordercolor="#666666"
     borderopacity="1"
     objecttolerance="10"
     gridtolerance="10"
     guidetolerance="10"
     inkscape:pageopacity="0"
     inkscape:pageshadow="2"
     inkscape:window-width="640"
     inkscape:window-height="480"
     id="namedview14"
     showgrid="false"
     inkscape:zoom="1.2421053"
     inkscape:cx="70"
     inkscape:cy="95"
     inkscape:window-x="1487"
     inkscape:window-y="425"
     inkscape:window-maximized="0"
     inkscape:current-layer="testsvg3" />
  <rect
     width="20.0"
     height="20.0"
     x="85.0"
     y="140.0"
     style="fill:#E0E0E0;stroke:#808080"
     id="rect3" />
  <line
     x1="105"
     y1="20"
     x2="105"
     y2="140"
     style="stroke:#808080;stroke-width:1px"
     id="line5" />
  <path
     d="M 30 130 q 20 7 13 30"
     stroke="#000000"
     stroke-width="1px"
     fill="none"
     id="path7" />
  <path
     d="m 10,160 95,-140 0,140 z"
     style="fill:none;stroke:#000000;stroke-width:1px;stroke-linecap:butt;stroke-linejoin:miter;stroke-opacity:1"
     id="path9" />
  <g
     style="font-size:30px;font-style:normal;fill:#999999;stroke:none;font-family:Serif"
     id="text3011">
    <path
       d="m 28.515625,72.084961 4.833984,-2.358399 0.483399,0 0,16.772461 c -9e-6,1.113284 0.04638,1.806643 0.13916,2.080079 0.09276,0.273438 0.285635,0.483399 0.578613,0.629882 0.292959,0.146485 0.888662,0.229493 1.78711,0.249024 l 0,0.541992 -7.470704,0 0,-0.541992 c 0.937496,-0.01953 1.542964,-0.100097 1.816407,-0.241699 0.273431,-0.141601 0.463861,-0.332031 0.571289,-0.571289 0.107415,-0.239257 0.161126,-0.954588 0.161133,-2.145997 l 0,-10.722656 c -7e-6,-1.445297 -0.04884,-2.37303 -0.146485,-2.783203 -0.06837,-0.312483 -0.192877,-0.541975 -0.373535,-0.688477 -0.18067,-0.146466 -0.397955,-0.219708 -0.651855,-0.219726 -0.361333,1.8e-5 -0.864263,0.151385 -1.508789,0.454101 z"
       style="font-size:30px;font-style:normal;fill:#999999;stroke:none;font-family:Serif"
       id="path2996" />
  </g>
  <g
     style="font-size:30px;font-style:normal;fill:#999999;stroke:none;font-family:Serif"
     id="text3003">
    <path
       d="m 112.39551,96.582031 6.31347,0 0,0.541992 c -0.40039,1.3e-5 -0.68115,0.06837 -0.84228,0.205079 -0.16114,0.136731 -0.24171,0.317395 -0.2417,0.541992 -1e-5,0.234387 0.17089,0.595714 0.5127,1.083984 0.10741,0.156261 0.26854,0.400401 0.48339,0.732422 l 0.95215,1.52344 1.09864,-1.52344 c 0.70311,-0.966786 1.05467,-1.577137 1.05468,-1.831055 -1e-5,-0.205065 -0.083,-0.378405 -0.24902,-0.520019 -0.16603,-0.141589 -0.43458,-0.21239 -0.80566,-0.212403 l 0,-0.541992 4.54101,0 0,0.541992 c -0.47853,0.02931 -0.89357,0.161146 -1.24512,0.395508 -0.47852,0.332044 -1.13282,1.054699 -1.96289,2.167969 l -1.83105,2.44629 3.33984,4.80469 c 0.8203,1.18164 1.40624,1.89209 1.75781,2.13134 0.35155,0.23926 0.80565,0.37354 1.36231,0.40284 l 0,0.52734 -6.32813,0 0,-0.52734 c 0.43945,0 0.78124,-0.0977 1.02539,-0.29297 0.18554,-0.13672 0.27832,-0.31738 0.27833,-0.54199 -1e-5,-0.22461 -0.31251,-0.79102 -0.9375,-1.69922 l -1.9629,-2.8711 -2.15332,2.8711 c -0.66406,0.88867 -0.99609,1.41601 -0.99609,1.58203 0,0.23437 0.10986,0.44678 0.32959,0.6372 0.21972,0.19044 0.54931,0.29542 0.98877,0.31495 l 0,0.52734 -4.37988,0 0,-0.52734 c 0.35156,-0.0488 0.65918,-0.1709 0.92285,-0.36621 0.37109,-0.28321 0.99609,-1.00586 1.875,-2.16797 l 2.8125,-3.73535 -2.54883,-3.691411 c -0.72266,-1.054676 -1.28174,-1.716297 -1.67725,-1.984864 -0.39551,-0.268541 -0.89111,-0.402819 -1.48681,-0.402832 z"
       style="font-size:30px;font-style:normal;fill:#999999;stroke:none;font-family:Serif"
       id="path3002" />
  </g>
  <g
     style="font-size:25px;font-style:normal;fill:#000000;stroke:none;font-family:Serif"
     id="textgreek1">
    <path
       d="m 52.103516,125.66602 c 1.375318,1e-5 2.534984,0.80364 3.479004,2.41088 0.943999,1.60728 1.416004,3.70078 1.416015,6.28052 -1.1e-5,2.78321 -0.508637,4.97641 -1.525879,6.57959 -1.017261,1.60319 -2.193204,2.40479 -3.527832,2.40479 -1.310226,0 -2.463789,-0.77922 -3.460693,-2.33765 -0.996909,-1.55843 -1.495362,-3.67228 -1.495361,-6.34155 -1e-6,-2.6774 0.494383,-4.84618 1.483154,-6.50635 0.988766,-1.66014 2.199295,-2.49022 3.631592,-2.49023 z m 2.624511,8.42285 c -8e-6,-5.14322 -0.903328,-7.71483 -2.709961,-7.71485 -1.855473,2e-5 -2.783206,2.57163 -2.783203,7.71485 z m -5.493164,0.75683 c -3e-6,2.66114 0.248206,4.62444 0.744629,5.8899 0.496415,1.26546 1.163732,1.89819 2.001953,1.89819 1.814771,0 2.730298,-2.59603 2.746582,-7.78809 z"
       style="font-size:25px;font-style:normal;fill:#000000;stroke:none;font-family:Serif"
       id="path2999" />
  </g>
</svg>
