<?xml version="1.0" encoding="UTF-8" standalone="no"?>
<svg
   xmlns:dc="http://purl.org/dc/elements/1.1/"
   xmlns:cc="http://creativecommons.org/ns#"
   xmlns:rdf="http://www.w3.org/1999/02/22-rdf-syntax-ns#"
   xmlns:svg="http://www.w3.org/2000/svg"
   xmlns="http://www.w3.org/2000/svg"
   xmlns:sodipodi="http://sodipodi.sourceforge.net/DTD/sodipodi-0.dtd"
   xmlns:inkscape="http://www.inkscape.org/namespaces/inkscape"
   version="1.1"
   width="200"
   height="200"
   id="testsvg1"
   inkscape:version="0.48.4 r9939"
   sodipodi:docname="law_cosine.svg">
  <metadata
     id="metadata22">
    <rdf:RDF>
      <cc:Work
         rdf:about="">
        <dc:format>image/svg+xml</dc:format>
        <dc:type
           rdf:resource="http://purl.org/dc/dcmitype/StillImage" />
      </cc:Work>
    </rdf:RDF>
  </metadata>
  <defs
     id="defs20" />
  <sodipodi:namedview
     pagecolor="#ffffff"
     bordercolor="#666666"
     borderopacity="1"
     objecttolerance="10"
     gridtolerance="10"
     guidetolerance="10"
     inkscape:pageopacity="0"
     inkscape:pageshadow="2"
     inkscape:window-width="640"
     inkscape:window-height="480"
     id="namedview18"
     showgrid="false"
     inkscape:zoom="1.18"
     inkscape:cx="100"
     inkscape:cy="100"
     inkscape:window-x="174"
     inkscape:window-y="59"
     inkscape:window-maximized="0"
     inkscape:current-layer="testsvg1" />
  <rect
     width="20.0"
     height="20.0"
     x="105.0"
     y="140.0"
     style="fill:#E0E0E0;stroke:#808080"
     id="rect3" />
  <line
     x1="105"
     y1="20"
     x2="105"
     y2="140"
     style="stroke:#808080;stroke-width:1px"
     id="line5" />
  <path
     d="M 30 130 q 20 7 13 30"
     stroke="#000000"
     stroke-width="1px"
     fill="none"
     id="path7" />
  <path
     d="m 10.0,160.0 95,-140.00000 85.000,140 z"
     style="fill:none;stroke:#000000;stroke-width:1px;stroke-linecap:butt;stroke-linejoin:miter;stroke-opacity:1"
     id="path9" />
  <g
     style="font-size:35px;font-style:normal;fill:#000000;stroke:none;font-family:Serif"
     id="text3007">
    <path
       d="m 101.16699,188.17383 c 1.60643,0.34181 2.80841,0.88868 3.60596,1.64062 1.10512,1.04819 1.65769,2.32993 1.65771,3.84522 -2e-5,1.15072 -0.3646,2.25301 -1.09375,3.30688 -0.72918,1.05388 -1.72894,1.82292 -2.99926,2.30713 C 101.06729,199.75789 99.12759,200 96.518555,200 l -10.9375,0 0,-0.63232 0.871582,0 c 0.968422,0 1.663408,-0.30762 2.084961,-0.92286 0.26204,-0.39876 0.393062,-1.24755 0.393066,-2.54638 l 0,-14.97071 c -4e-6,-1.43552 -0.165206,-2.34128 -0.495605,-2.71728 -0.444339,-0.50128 -1.105146,-0.75193 -1.982422,-0.75195 l -0.871582,0 0,-0.63233 10.014648,0 c 1.868477,3e-5 3.366685,0.13674 4.494627,0.41016 1.70897,0.41018 3.01349,1.13649 3.91358,2.17895 0.90004,1.0425 1.35007,2.24164 1.35009,3.59742 -2e-5,1.16212 -0.35321,2.20175 -1.05957,3.11889 -0.7064,0.91717 -1.74887,1.59791 -3.12744,2.04224 z m -8.955076,-0.92285 c 0.421542,0.0798 0.902905,0.13958 1.444092,0.17944 0.541169,0.0399 1.136465,0.0598 1.785889,0.0598 1.663399,2e-5 2.913805,-0.17943 3.75122,-0.53833 0.837385,-0.35887 1.478255,-0.90859 1.922605,-1.64917 0.44432,-0.74054 0.66649,-1.54946 0.66651,-2.42675 -2e-5,-1.35578 -0.55259,-2.51219 -1.65772,-3.46924 -1.105156,-0.95701 -2.717296,-1.43553 -4.836424,-1.43555 -1.139332,2e-5 -2.164722,0.12535 -3.076172,0.37598 z m 0,11.07422 c 1.321606,0.30761 2.62613,0.46142 3.913574,0.46142 2.062162,0 3.634426,-0.46427 4.716802,-1.39282 1.08234,-0.92855 1.62351,-2.07641 1.62353,-3.4436 -2e-5,-0.90006 -0.24497,-1.76595 -0.73486,-2.59766 -0.48993,-0.8317 -1.28745,-1.48681 -2.392581,-1.96533 -1.105157,-0.47851 -2.472343,-0.71777 -4.101563,-0.71778 -0.706389,1e-5 -1.31023,0.0114 -1.811523,0.0342 -0.50131,0.0228 -0.905769,0.0627 -1.213379,0.11963 z"
       style="font-size:35px;font-style:normal;fill:#000000;stroke:none;font-family:Serif"
       id="path3015" />
  </g>
  <g
     style="font-size:35px;font-style:normal;fill:#000000;stroke:none;font-family:Serif"
     id="text3011">
    <path
       d="m 28.571777,71.296387 0.529785,7.878418 -0.529785,0 c -0.7064,-2.358381 -1.7147,-4.05597 -3.024902,-5.092774 -1.310238,-1.036762 -2.882502,-1.555153 -4.716797,-1.555176 -1.538098,2.3e-5 -2.92807,0.390241 -4.169922,1.170655 -1.24187,0.780456 -2.218838,2.025166 -2.930908,3.734131 -0.712082,1.709 -1.06812,3.833835 -1.068115,6.374511 -5e-6,2.096364 0.336095,3.913582 1.008301,5.45166 0.672193,1.538091 1.683341,2.717289 3.033447,3.537598 1.350087,0.820314 2.89102,1.23047 4.622803,1.230469 1.503891,10e-7 2.8312,-0.321858 3.981933,-0.965576 1.150697,-0.643715 2.415345,-1.922604 3.793945,-3.83667 l 0.529786,0.341797 c -1.162131,2.062178 -2.517924,3.571779 -4.067383,4.528808 -1.549496,0.957031 -3.389501,1.435547 -5.52002,1.435547 -3.839527,0 -6.813156,-1.424153 -8.920898,-4.272461 -1.5722678,-2.119135 -2.3583998,-4.614249 -2.3583986,-7.485351 -1.2e-6,-2.312812 0.5183902,-4.437647 1.5551756,-6.374512 1.03678,-1.936829 2.463781,-3.437886 4.281006,-4.503174 1.817211,-1.065244 3.802479,-1.597877 5.955811,-1.5979 1.67479,2.3e-5 3.326806,0.410179 4.956054,1.230468 0.478497,0.250674 0.820294,0.375999 1.025391,0.375977 0.307598,2.2e-5 0.575338,-0.108213 0.803223,-0.324707 0.296203,-0.307594 0.506978,-0.73484 0.632324,-1.281738 z"
       style="font-size:35px;font-style:normal;fill:#000000;stroke:none;font-family:Serif"
       id="path3000" />
  </g>
  <g
     style="font-size:35px;font-style:normal;fill:#606060;stroke:none;font-family:Serif"
     id="text3012">
    <path
       d="m 181.51318,87.241211 -8.97216,0 -1.57227,3.657226 c -0.38737,0.900069 -0.58106,1.572269 -0.58105,2.016602 -1e-5,0.353192 0.16804,0.663657 0.50415,0.931397 0.33609,0.267741 1.06241,0.441488 2.17895,0.52124 l 0,0.632324 -7.29736,0 0,-0.632324 c 0.96842,-0.170898 1.59505,-0.393066 1.87988,-0.666504 0.58105,-0.546873 1.22477,-1.657712 1.93115,-3.33252 l 8.15186,-19.072265 0.59814,0 8.06641,19.277343 c 0.64939,1.549483 1.23899,2.554934 1.7688,3.016358 0.52976,0.461427 1.26747,0.720622 2.21313,0.777588 l 0,0.632324 -9.14306,0 0,-0.632324 c 0.92283,-0.04557 1.54661,-0.199381 1.87133,-0.461426 0.32469,-0.262043 0.48705,-0.581053 0.48706,-0.957031 -1e-5,-0.5013 -0.22788,-1.293128 -0.68359,-2.375489 z m -0.47851,-1.264649 -3.93067,-9.365234 -4.0332,9.365234 z"
       style="font-size:35px;font-style:normal;fill:#606060;stroke:none;font-family:Serif"
       id="path3003" />
  </g>
  <g
     style="font-size:30px;font-style:normal;fill:#999999;stroke:none;font-family:Serif"
     id="text3001">
    <path
       d="m 47.193359,176.63574 c -0.0098,1.9922 0.47363,3.55469 1.450196,4.6875 0.976557,1.13282 2.124016,1.69922 3.442382,1.69922 0.878898,0 1.643057,-0.2417 2.292481,-0.7251 0.649403,-0.48339 1.193836,-1.31103 1.633301,-2.48291 l 0.454101,0.29297 c -0.20509,1.3379 -0.800793,2.55616 -1.787109,3.65479 -0.986338,1.09863 -2.221688,1.64795 -3.706055,1.64795 -1.611333,0 -2.990726,-0.62744 -4.138183,-1.88233 -1.147463,-1.25488 -1.721193,-2.94189 -1.721192,-5.06103 -10e-7,-2.29492 0.588377,-4.08447 1.765137,-5.36866 1.176754,-1.28416 2.653803,-1.92625 4.431152,-1.92627 1.503898,2e-5 2.739248,0.49562 3.706055,1.48682 0.966785,0.99122 1.450183,2.31691 1.450195,3.97705 z m 0,-0.84961 6.210938,0 c -0.04884,-0.85936 -0.151377,-1.46483 -0.307617,-1.8164 -0.24415,-0.54687 -0.607919,-0.97655 -1.091309,-1.28907 -0.483406,-0.31248 -0.988776,-0.46873 -1.516113,-0.46875 -0.810553,2e-5 -1.53565,0.31496 -2.175293,0.94483 -0.639652,0.62989 -1.013187,1.50636 -1.120606,2.62939 z"
       style="font-size:30px;font-style:normal;fill:#999999;stroke:none;font-family:Serif"
       id="path3012" />
  </g>
  <g
     style="font-size:30px;font-style:normal;fill:#999999;stroke:none;font-family:Serif"
     id="text3002">
    <path
       d="m 141.18164,172.63672 0,8.81836 c -10e-6,1.25 0.13671,2.04102 0.41016,2.37304 0.36132,0.42969 0.84472,0.64454 1.45019,0.64454 l 1.21582,0 0,0.52734 -8.01269,0 0,-0.52734 0.60058,0 c 0.39063,0 0.74707,-0.0977 1.06934,-0.29297 0.32226,-0.19531 0.54443,-0.45899 0.6665,-0.79102 0.12207,-0.33203 0.1831,-0.97656 0.18311,-1.93359 l 0,-8.81836 -2.60742,0 0,-1.05469 2.60742,0 0,-0.87891 c -10e-6,-1.33787 0.21484,-2.47068 0.64453,-3.39843 0.42968,-0.92772 1.08642,-1.67723 1.97021,-2.24854 0.88379,-0.57127 1.87744,-0.85691 2.98096,-0.85693 1.02538,2e-5 1.96776,0.33205 2.82715,0.99609 0.56639,0.43947 0.8496,0.93264 0.84961,1.47949 -1e-5,0.29299 -0.12697,0.56887 -0.38086,0.82764 -0.25392,0.25881 -0.52736,0.3882 -0.82031,0.38818 -0.22462,2e-5 -0.46144,-0.0805 -0.71045,-0.24169 -0.24904,-0.16112 -0.55421,-0.5078 -0.91553,-1.04004 -0.36134,-0.53221 -0.69337,-0.8911 -0.99609,-1.07666 -0.30275,-0.18553 -0.63966,-0.2783 -1.01075,-0.27832 -0.44922,2e-5 -0.83008,0.11964 -1.14257,0.35888 -0.31251,0.23928 -0.53712,0.61037 -0.67383,1.11328 -0.13673,0.50295 -0.20509,1.79934 -0.20508,3.88916 l 0,0.9668 3.45703,0 0,1.05469 z"
       style="font-size:30px;font-style:normal;fill:#999999;stroke:none;font-family:Serif"
       id="path3018" />
  </g>
  <g
     style="font-size:30px;font-style:normal;fill:#999999;stroke:none;font-family:Serif"
     id="text3003">
    <path
       d="m 114.87793,89.169922 0,9.814453 c 1.08398,-1.191394 1.94335,-1.955553 2.57812,-2.29248 0.63476,-0.336901 1.26953,-0.505358 1.9043,-0.505372 0.76171,1.4e-5 1.41601,0.209975 1.96289,0.629883 0.54687,0.419935 0.95214,1.079114 1.21582,1.977539 0.18554,0.625011 0.27831,1.767585 0.27832,3.427735 l 0,4.74609 c -1e-5,0.84961 0.0683,1.43067 0.20508,1.74317 0.0976,0.23437 0.26366,0.41992 0.49805,0.55664 0.23436,0.13672 0.66405,0.20508 1.28906,0.20508 l 0,0.52734 -6.5918,0 0,-0.52734 0.30762,0 c 0.62499,0 1.05956,-0.0952 1.30371,-0.28565 0.24413,-0.19043 0.41503,-0.47119 0.5127,-0.84228 0.0293,-0.15625 0.0439,-0.61524 0.0439,-1.37696 l 0,-4.74609 c -1e-5,-1.46483 -0.0757,-2.426748 -0.22705,-2.885743 -0.15138,-0.458973 -0.39307,-0.803211 -0.7251,-1.032714 -0.33204,-0.229481 -0.73243,-0.344227 -1.20117,-0.344239 -0.47852,1.2e-5 -0.97657,0.126965 -1.49414,0.38086 -0.51758,0.253917 -1.1377,0.766612 -1.86035,1.538086 l 0,7.08984 c -1e-5,0.91797 0.0513,1.48926 0.15381,1.71387 0.10253,0.22461 0.29296,0.4126 0.57129,0.56397 0.27831,0.15136 0.75927,0.22705 1.44287,0.22705 l 0,0.52734 -6.65039,0 0,-0.52734 c 0.5957,0 1.06445,-0.0928 1.40625,-0.27832 0.19531,-0.0977 0.35156,-0.28321 0.46875,-0.55664 0.11718,-0.27344 0.17578,-0.83008 0.17578,-1.66993 l 0,-12.143551 c 0,-1.533187 -0.0366,-2.475569 -0.10986,-2.827149 -0.0732,-0.351544 -0.18555,-0.590801 -0.33692,-0.717773 -0.15137,-0.126934 -0.354,-0.190411 -0.60791,-0.19043 -0.20508,1.9e-5 -0.53711,0.07814 -0.99609,0.234375 l -0.20508,-0.512695 4.01367,-1.640625 z"
       style="font-size:30px;font-style:normal;fill:#999999;stroke:none;font-family:Serif"
       id="path3006" />
  </g>
  <g
     style="font-size:25px;font-style:normal;fill:#000000;stroke:none;font-family:Serif"
     id="textgreek1">
    <path
       d="m 55.619141,131.81836 2.075195,0 -1.257324,5.65185 c -0.244151,1.07423 -0.41098,1.73341 -0.500489,1.97754 0.325511,1.4974 0.797516,2.2461 1.416016,2.2461 0.73241,0 1.110827,-0.50456 1.135254,-1.51367 l 0.439453,0 c -0.02443,0.94401 -0.19736,1.70695 -0.518799,2.28881 -0.321464,0.58187 -0.742606,0.87281 -1.263427,0.87281 -0.431326,0 -0.752778,-0.17497 -0.964356,-0.52491 -0.211598,-0.34993 -0.439463,-1.06607 -0.683594,-2.14843 -0.846363,1.78222 -2.229825,2.67334 -4.15039,2.67334 -1.310226,0 -2.351891,-0.51066 -3.125,-1.53199 -0.773114,-1.02131 -1.159669,-2.48412 -1.159668,-4.38842 -1e-6,-1.87174 0.423175,-3.32844 1.269531,-4.37012 0.846351,-1.04166 1.863603,-1.56249 3.051758,-1.5625 0.83821,1e-5 1.525872,0.29705 2.062988,0.89111 0.537101,0.59409 1.013175,1.56251 1.428223,2.90528 z m -1.074219,4.78516 c -0.382495,-1.31022 -0.809741,-2.33357 -1.281738,-3.07007 -0.472012,-0.73648 -1.037604,-1.10473 -1.696778,-1.10474 -1.489262,1e-5 -2.23389,1.74155 -2.233886,5.22461 -4e-6,3.30404 0.712072,4.95606 2.13623,4.95605 1.236972,10e-6 2.152499,-1.4567 2.746582,-4.37011 z"
       style="font-size:25px;font-style:normal;fill:#000000;stroke:none;font-family:Serif"
       id="path3009" />
  </g>
</svg>
