<?xml version="1.0" encoding="UTF-8" standalone="no"?>
<!-- Created with Inkscape (http://www.inkscape.org/) -->

<svg
   xmlns:dc="http://purl.org/dc/elements/1.1/"
   xmlns:cc="http://creativecommons.org/ns#"
   xmlns:rdf="http://www.w3.org/1999/02/22-rdf-syntax-ns#"
   xmlns:svg="http://www.w3.org/2000/svg"
   xmlns="http://www.w3.org/2000/svg"
   xmlns:sodipodi="http://sodipodi.sourceforge.net/DTD/sodipodi-0.dtd"
   xmlns:inkscape="http://www.inkscape.org/namespaces/inkscape"
   width="210"
   height="195"
   id="svg2"
   version="1.1"
   inkscape:version="0.48.4 r9939"
   sodipodi:docname="newton_step2.svg">
  <defs
     id="defs4">
    <marker
       inkscape:stockid="EmptyTriangleOutM"
       orient="auto"
       refY="0"
       refX="0"
       id="EmptyTriangleOutM"
       style="overflow:visible">
      <path
         id="path3969"
         d="m 5.77,0 -8.65,5 0,-10 8.65,5 z"
         style="fill:#ffffff;fill-rule:evenodd;stroke:#000000;stroke-width:1pt"
         transform="matrix(0.4,0,0,0.4,-1.8,0)"
         inkscape:connector-curvature="0" />
    </marker>
    <marker
       inkscape:stockid="Arrow2Mend"
       orient="auto"
       refY="0"
       refX="0"
       id="Arrow2Mend"
       style="overflow:visible">
      <path
         id="path3833"
         style="fill-rule:evenodd;stroke-width:0.625;stroke-linejoin:round"
         d="M 8.7185878,4.0337352 -2.2072895,0.01601326 8.7185884,-4.0017078 c -1.7454984,2.3720609 -1.7354408,5.6174519 -6e-7,8.035443 z"
         transform="scale(-0.6,-0.6)"
         inkscape:connector-curvature="0" />
    </marker>
    <marker
       inkscape:stockid="Arrow2Lend"
       orient="auto"
       refY="0"
       refX="0"
       id="Arrow2Lend"
       style="overflow:visible">
      <path
         id="path3827"
         style="fill-rule:evenodd;stroke-width:0.625;stroke-linejoin:round"
         d="M 8.7185878,4.0337352 -2.2072895,0.01601326 8.7185884,-4.0017078 c -1.7454984,2.3720609 -1.7354408,5.6174519 -6e-7,8.035443 z"
         transform="matrix(-1.1,0,0,-1.1,-1.1,0)"
         inkscape:connector-curvature="0" />
    </marker>
  </defs>
  <sodipodi:namedview
     id="base"
     pagecolor="#ffffff"
     bordercolor="#666666"
     borderopacity="1.0"
     inkscape:pageopacity="0.0"
     inkscape:pageshadow="2"
     inkscape:zoom="11.2"
     inkscape:cx="57.899749"
     inkscape:cy="34.567748"
     inkscape:document-units="px"
     inkscape:current-layer="layer1"
     showgrid="false"
     showguides="true"
     inkscape:guide-bbox="true"
     inkscape:window-width="1276"
     inkscape:window-height="852"
     inkscape:window-x="94"
     inkscape:window-y="50"
     inkscape:window-maximized="0" />
  <metadata
     id="metadata7">
    <rdf:RDF>
      <cc:Work
         rdf:about="">
        <dc:format>image/svg+xml</dc:format>
        <dc:type
           rdf:resource="http://purl.org/dc/dcmitype/StillImage" />
        <dc:title />
      </cc:Work>
    </rdf:RDF>
  </metadata>
  <g
     inkscape:label="Layer 1"
     inkscape:groupmode="layer"
     id="layer1"
     transform="translate(0,-857.36218)">
    <path
       inkscape:connector-curvature="0"
       id="path3878"
       d="m 0.95800983,1004.2992 206.57191017,0"
       style="fill:none;stroke:#000000;stroke-width:0.67476755px;stroke-linecap:butt;stroke-linejoin:miter;stroke-opacity:1;marker-end:url(#EmptyTriangleOutM)" />
    <path
       inkscape:connector-curvature="0"
       id="path3880"
       d="m 47.8784,1042.794 0,-183.68254"
       style="fill:none;stroke:#000000;stroke-width:0.7819171px;stroke-linecap:butt;stroke-linejoin:miter;stroke-opacity:1;marker-end:url(#EmptyTriangleOutM)" />
    <path
       sodipodi:nodetypes="cssc"
       inkscape:connector-curvature="0"
       id="path3882"
       d="m 0.17777981,1019.085 c 3.15524999,1.0885 6.36545999,2.0714 9.61477999,2.9418 26.3104402,7.0479 55.1846902,6.7206 78.2011822,-4.5956 49.403098,-24.28944 57.653558,-92.16844 85.283388,-141.69354"
       style="fill:none;stroke:#000000;stroke-width:2;stroke-linecap:butt;stroke-linejoin:miter;stroke-opacity:1" />
    <path
       inkscape:connector-curvature="0"
       id="path3884"
       d="M -6.9604907,1050.0648 205.95978,979.72546"
       style="fill:none;stroke:#000000;stroke-width:1;stroke-linecap:butt;stroke-linejoin:miter;stroke-miterlimit:4;stroke-opacity:1;stroke-dasharray:2, 2;stroke-dashoffset:0" />
    <path
       transform="translate(-262.55339,319.52992)"
       d="m 341.93664,702.3443 a 2.5253813,2.5253813 0 1 1 -5.05077,0 2.5253813,2.5253813 0 1 1 5.05077,0 z"
       sodipodi:ry="2.5253813"
       sodipodi:rx="2.5253813"
       sodipodi:cy="702.3443"
       sodipodi:cx="339.41125"
       id="path3886"
       style="fill:#ffffff;fill-opacity:1;stroke:#000000"
       sodipodi:type="arc" />
    <path
       style="font-size:40px;font-style:normal;font-weight:normal;line-height:125%;letter-spacing:0px;word-spacing:0px;fill:#000000;fill-opacity:1;stroke:none;font-family:Sans"
       d="m 73.27612,1008.0766 2.94504,-3.6931 -2.72492,-3.412 1.70782,0 1.23722,1.6659 c 0.23277,0.3166 0.41999,0.582 0.56168,0.7961 0.22265,-0.2944 0.42758,-0.5553 0.61482,-0.7828 l 1.35866,-1.6792 1.63192,0 -2.78564,3.3451 2.99817,3.76 -1.67746,0 -1.65469,-2.2078 -0.44024,-0.5955 -2.11769,2.8033 z"
       id="path3890"
       inkscape:connector-curvature="0" />
    <path
       style="font-size:40px;font-style:normal;font-weight:normal;line-height:125%;letter-spacing:0px;word-spacing:0px;fill:none;stroke:#000000;stroke-width:1px;stroke-linecap:butt;stroke-linejoin:miter;stroke-opacity:1;marker-end:url(#Arrow2Mend);font-family:Sans"
       d="m 76.91089,1006.6243 0,8.3928 0,5.0893"
       id="path3894"
       inkscape:connector-curvature="0" />
    <path
       transform="matrix(1.1475611,0,0,1.1475611,-282.49569,198.3759)"
       d="m 341.93664,702.3443 a 2.5253813,2.5253813 0 1 1 -5.05077,0 2.5253813,2.5253813 0 1 1 5.05077,0 z"
       sodipodi:ry="2.5253813"
       sodipodi:rx="2.5253813"
       sodipodi:cy="702.3443"
       sodipodi:cx="339.41125"
       id="path3900"
       style="fill:#000000;fill-opacity:1;stroke:#000000"
       sodipodi:type="arc" />
  </g>
</svg>
