<?xml version="1.0" encoding="UTF-8" standalone="no"?>
<!-- Created with Inkscape (http://www.inkscape.org/) -->

<svg
   xmlns:dc="http://purl.org/dc/elements/1.1/"
   xmlns:cc="http://creativecommons.org/ns#"
   xmlns:rdf="http://www.w3.org/1999/02/22-rdf-syntax-ns#"
   xmlns:svg="http://www.w3.org/2000/svg"
   xmlns="http://www.w3.org/2000/svg"
   xmlns:sodipodi="http://sodipodi.sourceforge.net/DTD/sodipodi-0.dtd"
   xmlns:inkscape="http://www.inkscape.org/namespaces/inkscape"
   width="210"
   height="210"
   id="svg2"
   version="1.1"
   inkscape:version="0.48.4 r9939"
   sodipodi:docname="newton_step3.svg">
  <defs
     id="defs4">
    <marker
       inkscape:stockid="EmptyTriangleOutM"
       orient="auto"
       refY="0"
       refX="0"
       id="EmptyTriangleOutM"
       style="overflow:visible">
      <path
         id="path3969"
         d="m 5.77,0 -8.65,5 0,-10 8.65,5 z"
         style="fill:#ffffff;fill-rule:evenodd;stroke:#000000;stroke-width:1pt"
         transform="matrix(0.4,0,0,0.4,-1.8,0)"
         inkscape:connector-curvature="0" />
    </marker>
    <marker
       inkscape:stockid="Arrow2Mend"
       orient="auto"
       refY="0"
       refX="0"
       id="Arrow2Mend"
       style="overflow:visible">
      <path
         id="path3833"
         style="fill-rule:evenodd;stroke-width:0.625;stroke-linejoin:round"
         d="M 8.7185878,4.0337352 -2.2072895,0.01601326 8.7185884,-4.0017078 c -1.7454984,2.3720609 -1.7354408,5.6174519 -6e-7,8.035443 z"
         transform="scale(-0.6,-0.6)"
         inkscape:connector-curvature="0" />
    </marker>
    <marker
       inkscape:stockid="Arrow2Lend"
       orient="auto"
       refY="0"
       refX="0"
       id="Arrow2Lend"
       style="overflow:visible">
      <path
         id="path3827"
         style="fill-rule:evenodd;stroke-width:0.625;stroke-linejoin:round"
         d="M 8.7185878,4.0337352 -2.2072895,0.01601326 8.7185884,-4.0017078 c -1.7454984,2.3720609 -1.7354408,5.6174519 -6e-7,8.035443 z"
         transform="matrix(-1.1,0,0,-1.1,-1.1,0)"
         inkscape:connector-curvature="0" />
    </marker>
  </defs>
  <sodipodi:namedview
     id="base"
     pagecolor="#ffffff"
     bordercolor="#666666"
     borderopacity="1.0"
     inkscape:pageopacity="0.0"
     inkscape:pageshadow="2"
     inkscape:zoom="1.979899"
     inkscape:cx="100.63991"
     inkscape:cy="124.68318"
     inkscape:document-units="px"
     inkscape:current-layer="layer1"
     showgrid="false"
     showguides="true"
     inkscape:guide-bbox="true"
     inkscape:window-width="766"
     inkscape:window-height="679"
     inkscape:window-x="225"
     inkscape:window-y="79"
     inkscape:window-maximized="0" />
  <metadata
     id="metadata7">
    <rdf:RDF>
      <cc:Work
         rdf:about="">
        <dc:format>image/svg+xml</dc:format>
        <dc:type
           rdf:resource="http://purl.org/dc/dcmitype/StillImage" />
        <dc:title />
      </cc:Work>
    </rdf:RDF>
  </metadata>
  <g
     inkscape:label="Layer 1"
     inkscape:groupmode="layer"
     id="layer1"
     transform="translate(0,-842.36218)">
    <path
       style="fill:none;stroke:#000000;stroke-width:0.67402649px;stroke-linecap:butt;stroke-linejoin:miter;stroke-opacity:1;marker-end:url(#EmptyTriangleOutM)"
       d="m 2.54729,990.82261 206.06789,0"
       id="path2985-1"
       inkscape:connector-curvature="0" />
    <path
       style="fill:none;stroke:#000000;stroke-width:0.78179991px;stroke-linecap:butt;stroke-linejoin:miter;stroke-opacity:1;marker-end:url(#EmptyTriangleOutM)"
       d="m 48.67221,1029.3176 0,-183.68209"
       id="path2987-7"
       inkscape:connector-curvature="0" />
    <path
       style="fill:none;stroke:#000000;stroke-width:2;stroke-linecap:butt;stroke-linejoin:miter;stroke-opacity:1"
       d="m 0.76379003,1005.4354 c 5.41932997,1.8923 11.00388997,3.4728 16.67284997,4.7067 24.47535,5.3274 50.52406,4.1953 71.641672,-6.1875 49.403088,-24.28939 57.653548,-92.16829 85.283378,-141.69349"
       id="path2993-4"
       inkscape:connector-curvature="0"
       sodipodi:nodetypes="cssc" />
    <path
       style="fill:none;stroke:#000000;stroke-width:1;stroke-linecap:butt;stroke-linejoin:miter;stroke-miterlimit:4;stroke-opacity:1;stroke-dasharray:2, 2;stroke-dashoffset:0"
       d="M -5.8759205,1036.5883 207.04434,966.24901"
       id="path3789"
       inkscape:connector-curvature="0" />
    <path
       style="font-size:40px;font-style:normal;font-weight:normal;line-height:125%;letter-spacing:0px;word-spacing:0px;fill:#000000;fill-opacity:1;stroke:none;font-family:Sans"
       d="m 128.53011,994.60011 2.94504,-3.6931 -2.72492,-3.4121 1.70782,0 1.23722,1.6659 c 0.23277,0.3167 0.41999,0.5821 0.56168,0.7962 0.22265,-0.2944 0.42758,-0.5553 0.61482,-0.7828 l 1.35866,-1.6793 1.63192,0 -2.78564,3.3452 2.99817,3.76 -1.67746,0 -1.65469,-2.2079 -0.44024,-0.5954 -2.11769,2.8033 z"
       id="path3798"
       inkscape:connector-curvature="0" />
    <path
       style="font-size:40px;font-style:normal;font-weight:normal;line-height:125%;letter-spacing:0px;word-spacing:0px;fill:none;stroke:#000000;stroke-width:1px;stroke-linecap:butt;stroke-linejoin:miter;stroke-opacity:1;marker-end:url(#Arrow2Mend);font-family:Sans"
       d="m 132.17512,984.93501 0,-8.3928 0,-5.0893"
       id="path5170"
       inkscape:connector-curvature="0" />
    <path
       transform="translate(-207.09383,256.05343)"
       d="m 341.93664,702.3443 a 2.5253813,2.5253813 0 1 1 -5.05077,0 2.5253813,2.5253813 0 1 1 5.05077,0 z"
       sodipodi:ry="2.5253813"
       sodipodi:rx="2.5253813"
       sodipodi:cy="702.3443"
       sodipodi:cx="339.41125"
       id="path5172"
       style="fill:#ffffff;fill-opacity:1;stroke:#000000"
       sodipodi:type="arc" />
    <path
       sodipodi:type="arc"
       style="fill:#000000;fill-opacity:1;stroke:#000000"
       id="path3820"
       sodipodi:cx="339.41125"
       sodipodi:cy="702.3443"
       sodipodi:rx="2.5253813"
       sodipodi:ry="2.5253813"
       d="m 341.93664,702.3443 a 2.5253813,2.5253813 0 1 1 -5.05077,0 2.5253813,2.5253813 0 1 1 5.05077,0 z"
       transform="matrix(1.1475611,0,0,1.1475611,-281.41113,184.89941)" />
  </g>
</svg>
