<?xml version="1.0" encoding="UTF-8" standalone="no"?>
<!-- Created with Inkscape (http://www.inkscape.org/) -->

<svg
   xmlns:dc="http://purl.org/dc/elements/1.1/"
   xmlns:cc="http://creativecommons.org/ns#"
   xmlns:rdf="http://www.w3.org/1999/02/22-rdf-syntax-ns#"
   xmlns:svg="http://www.w3.org/2000/svg"
   xmlns="http://www.w3.org/2000/svg"
   xmlns:sodipodi="http://sodipodi.sourceforge.net/DTD/sodipodi-0.dtd"
   xmlns:inkscape="http://www.inkscape.org/namespaces/inkscape"
   width="744.09448819"
   height="1052.3622047"
   id="svg2"
   version="1.1"
   inkscape:version="0.48.4 r9939"
   sodipodi:docname="newton_method1.svg">
  <defs
     id="defs4">
    <marker
       inkscape:stockid="EmptyTriangleOutM"
       orient="auto"
       refY="0.0"
       refX="0.0"
       id="EmptyTriangleOutM"
       style="overflow:visible">
      <path
         id="path3969"
         d="M 5.77,0.0 L -2.88,5.0 L -2.88,-5.0 L 5.77,0.0 z "
         style="fill-rule:evenodd;fill:#FFFFFF;stroke:#000000;stroke-width:1.0pt"
         transform="scale(0.4) translate(-4.5,0)" />
    </marker>
    <marker
       inkscape:stockid="Arrow2Mend"
       orient="auto"
       refY="0.0"
       refX="0.0"
       id="Arrow2Mend"
       style="overflow:visible;">
      <path
         id="path3833"
         style="fill-rule:evenodd;stroke-width:0.62500000;stroke-linejoin:round;"
         d="M 8.7185878,4.0337352 L -2.2072895,0.016013256 L 8.7185884,-4.0017078 C 6.9730900,-1.6296469 6.9831476,1.6157441 8.7185878,4.0337352 z "
         transform="scale(0.6) rotate(180) translate(0,0)" />
    </marker>
    <marker
       inkscape:stockid="Arrow2Lend"
       orient="auto"
       refY="0.0"
       refX="0.0"
       id="Arrow2Lend"
       style="overflow:visible;">
      <path
         id="path3827"
         style="fill-rule:evenodd;stroke-width:0.62500000;stroke-linejoin:round;"
         d="M 8.7185878,4.0337352 L -2.2072895,0.016013256 L 8.7185884,-4.0017078 C 6.9730900,-1.6296469 6.9831476,1.6157441 8.7185878,4.0337352 z "
         transform="scale(1.1) rotate(180) translate(1,0)" />
    </marker>
  </defs>
  <sodipodi:namedview
     id="base"
     pagecolor="#ffffff"
     bordercolor="#666666"
     borderopacity="1.0"
     inkscape:pageopacity="0.0"
     inkscape:pageshadow="2"
     inkscape:zoom="1.4"
     inkscape:cx="361.51025"
     inkscape:cy="785.81054"
     inkscape:document-units="px"
     inkscape:current-layer="layer1"
     showgrid="false"
     showguides="true"
     inkscape:guide-bbox="true"
     inkscape:window-width="763"
     inkscape:window-height="852"
     inkscape:window-x="85"
     inkscape:window-y="3"
     inkscape:window-maximized="0" />
  <metadata
     id="metadata7">
    <rdf:RDF>
      <cc:Work
         rdf:about="">
        <dc:format>image/svg+xml</dc:format>
        <dc:type
           rdf:resource="http://purl.org/dc/dcmitype/StillImage" />
        <dc:title />
      </cc:Work>
    </rdf:RDF>
  </metadata>
  <g
     inkscape:label="Layer 1"
     inkscape:groupmode="layer"
     id="layer1">
    <path
       style="fill:none;stroke:#000000;stroke-width:0.67402649px;stroke-linecap:butt;stroke-linejoin:miter;stroke-opacity:1;marker-end:url(#EmptyTriangleOutM)"
       d="m 262.58754,683.16208 206.0679,0"
       id="path2985-1"
       inkscape:connector-curvature="0" />
    <path
       style="fill:none;stroke:#000000;stroke-width:0.78179991px;stroke-linecap:butt;stroke-linejoin:miter;stroke-opacity:1;marker-end:url(#EmptyTriangleOutM)"
       d="m 308.71246,721.65697 0,-183.68204"
       id="path2987-7"
       inkscape:connector-curvature="0" />
    <path
       style="fill:none;stroke:#000000;stroke-width:2;stroke-linecap:butt;stroke-linejoin:miter;stroke-opacity:1"
       d="m 260.80404,697.7748 c 5.41933,1.89231 11.00389,3.47276 16.67285,4.70667 24.47535,5.32735 50.52406,4.19522 71.64167,-6.18741 49.4031,-24.28941 57.65356,-92.16836 85.28339,-141.6935"
       id="path2993-4"
       inkscape:connector-curvature="0"
       sodipodi:nodetypes="cssc" />
    <path
       style="fill:none;stroke:#000000;stroke-width:1;stroke-linecap:butt;stroke-linejoin:miter;stroke-opacity:1;stroke-miterlimit:4;stroke-dasharray:2,2;stroke-dashoffset:0"
       d="M 254.16433,728.92766 467.0846,658.5884"
       id="path3789"
       inkscape:connector-curvature="0" />
    <path
       style="font-size:40px;font-style:normal;font-weight:normal;line-height:125%;letter-spacing:0px;word-spacing:0px;fill:#000000;fill-opacity:1;stroke:none;font-family:Sans"
       d="m 388.57037,686.93949 2.94504,-3.69306 -2.72492,-3.41207 1.70782,0 1.23722,1.66589 c 0.23277,0.31668 0.41999,0.58206 0.56168,0.79615 0.22265,-0.29437 0.42758,-0.55529 0.61482,-0.78277 l 1.35866,-1.67927 1.63192,0 -2.78564,3.34516 2.99817,3.75997 -1.67746,0 -1.65469,-2.20781 -0.44024,-0.59544 -2.11769,2.80325 z"
       id="path3798"
       inkscape:connector-curvature="0" />
    <path
       style="font-size:40px;font-style:normal;font-weight:normal;line-height:125%;letter-spacing:0px;word-spacing:0px;fill:none;stroke:#000000;stroke-width:1px;stroke-linecap:butt;stroke-linejoin:miter;stroke-opacity:1;marker-end:url(#Arrow2Mend);font-family:Sans"
       d="m 392.21538,677.27447 0,-8.39286 0,-5.08928"
       id="path5170"
       inkscape:connector-curvature="0" />
    <path
       transform="translate(52.946429,-51.607142)"
       d="m 341.93664,702.3443 a 2.5253813,2.5253813 0 1 1 -5.05077,0 2.5253813,2.5253813 0 1 1 5.05077,0 z"
       sodipodi:ry="2.5253813"
       sodipodi:rx="2.5253813"
       sodipodi:cy="702.3443"
       sodipodi:cx="339.41125"
       id="path5172"
       style="fill:#ffffff;fill-opacity:1;stroke:#000000"
       sodipodi:type="arc" />
    <path
       inkscape:connector-curvature="0"
       id="path3007"
       d="m 268.55843,196.45207 200.10536,0"
       style="fill:none;stroke:#000000;stroke-width:0.66517496px;stroke-linecap:butt;stroke-linejoin:miter;stroke-opacity:1;marker-end:url(#EmptyTriangleOutM)" />
    <path
       inkscape:connector-curvature="0"
       id="path3009"
       d="m 309.31141,234.9432 0,-187.711062"
       style="fill:none;stroke:#000000;stroke-width:0.78932869px;stroke-linecap:butt;stroke-linejoin:miter;stroke-opacity:1;marker-end:url(#EmptyTriangleOutM)" />
    <path
       sodipodi:nodetypes="cssc"
       inkscape:connector-curvature="0"
       id="path3011"
       d="m 268.45114,213.49536 c 11.86566,3.4073 24.31392,5.31844 36.55722,5.39548 15.57561,0.098 30.81951,-2.77232 44.1102,-9.30679 49.4031,-24.28941 57.65356,-92.16836 85.28339,-141.693503"
       style="fill:none;stroke:#000000;stroke-width:2;stroke-linecap:butt;stroke-linejoin:miter;stroke-opacity:1" />
    <path
       transform="matrix(1.1475611,0,0,1.1475611,-21.244609,-609.7237)"
       d="m 341.93664,702.3443 a 2.5253813,2.5253813 0 1 1 -5.05077,0 2.5253813,2.5253813 0 1 1 5.05077,0 z"
       sodipodi:ry="2.5253813"
       sodipodi:rx="2.5253813"
       sodipodi:cy="702.3443"
       sodipodi:cx="339.41125"
       id="path3015"
       style="fill:#000000;fill-opacity:1;stroke:#000000"
       sodipodi:type="arc" />
    <path
       style="font-size:40px;font-style:normal;font-weight:normal;line-height:125%;letter-spacing:0px;word-spacing:0px;fill:#000000;fill-opacity:1;stroke:none;font-family:Sans"
       d="m 334.40094,200.22948 2.94504,-3.69306 -2.72492,-3.41207 1.70782,0 1.23722,1.66589 c 0.23277,0.31668 0.41999,0.58206 0.56168,0.79615 0.22265,-0.29437 0.42758,-0.55529 0.61482,-0.78277 l 1.35866,-1.67927 1.63192,0 -2.78564,3.34516 2.99817,3.75997 -1.67746,0 -1.65469,-2.20781 -0.44024,-0.59544 -2.11769,2.80325 z"
       id="path3020"
       inkscape:connector-curvature="0" />
    <path
       sodipodi:type="arc"
       style="fill:#000000;fill-opacity:1;stroke:#000000"
       id="path3820"
       sodipodi:cx="339.41125"
       sodipodi:cy="702.3443"
       sodipodi:rx="2.5253813"
       sodipodi:ry="2.5253813"
       d="m 341.93664,702.3443 a 2.5253813,2.5253813 0 1 1 -5.05077,0 2.5253813,2.5253813 0 1 1 5.05077,0 z"
       transform="matrix(1.1475611,0,0,1.1475611,-21.370878,-122.76116)" />
    <path
       inkscape:connector-curvature="0"
       id="path3822"
       d="m 261.06575,963.16208 196.99754,0"
       style="fill:none;stroke:#000000;stroke-width:0.66091383px;stroke-linecap:butt;stroke-linejoin:miter;stroke-opacity:1;marker-end:url(#EmptyTriangleOutM)" />
    <path
       inkscape:connector-curvature="0"
       id="path3824"
       d="m 308.71246,1001.656 0,-184.68926"
       style="fill:none;stroke:#000000;stroke-width:0.78369164px;stroke-linecap:butt;stroke-linejoin:miter;stroke-opacity:1;marker-end:url(#EmptyTriangleOutM)" />
    <path
       sodipodi:nodetypes="csc"
       inkscape:connector-curvature="0"
       id="path3826"
       d="m 261.95393,978.17079 c 28.55466,9.69677 61.50098,10.741 87.16463,-1.87673 49.4031,-24.28941 57.65356,-92.16836 85.28339,-141.6935"
       style="fill:none;stroke:#000000;stroke-width:2;stroke-linecap:butt;stroke-linejoin:miter;stroke-opacity:1" />
    <path
       style="font-size:40px;font-style:normal;font-weight:normal;line-height:125%;letter-spacing:0px;word-spacing:0px;fill:#000000;fill-opacity:1;stroke:none;font-family:Sans"
       inkscape:connector-curvature="0"
       id="path3836"
       d="m 372.1418,966.93949 2.94504,-3.69306 -2.72492,-3.41207 1.70782,0 1.23722,1.66589 c 0.23277,0.31668 0.41999,0.58206 0.56168,0.79615 0.22265,-0.29437 0.42758,-0.55529 0.61482,-0.78277 l 1.35866,-1.67927 1.63192,0 -2.78564,3.34516 2.99817,3.75997 -1.67746,0 -1.65469,-2.20781 -0.44024,-0.59544 -2.11769,2.80325 z" />
    <path
       transform="matrix(1.1475611,0,0,1.1475611,-21.370878,157.23884)"
       d="m 341.93664,702.3443 a 2.5253813,2.5253813 0 1 1 -5.05077,0 2.5253813,2.5253813 0 1 1 5.05077,0 z"
       sodipodi:ry="2.5253813"
       sodipodi:rx="2.5253813"
       sodipodi:cy="702.3443"
       sodipodi:cx="339.41125"
       id="path3844"
       style="fill:#000000;fill-opacity:1;stroke:#000000"
       sodipodi:type="arc" />
    <path
       style="fill:none;stroke:#000000;stroke-width:1;stroke-linecap:butt;stroke-linejoin:miter;stroke-miterlimit:4;stroke-opacity:1;stroke-dasharray:2, 2;stroke-dashoffset:0"
       d="M 350.17982,1008.2626 457.77058,811.52202"
       id="path3846"
       inkscape:connector-curvature="0"
       inkscape:transform-center-x="-11.783467"
       inkscape:transform-center-y="-20.681683" />
    <path
       sodipodi:type="arc"
       style="fill:#ffffff;fill-opacity:1;stroke:#000000"
       id="path3842"
       sodipodi:cx="339.41125"
       sodipodi:cy="702.3443"
       sodipodi:rx="2.5253813"
       sodipodi:ry="2.5253813"
       d="m 341.93664,702.3443 a 2.5253813,2.5253813 0 1 1 -5.05077,0 2.5253813,2.5253813 0 1 1 5.05077,0 z"
       transform="translate(52.946429,228.39286)" />
    <path
       inkscape:connector-curvature="0"
       id="path3878"
       d="m 262.08283,436.01922 206.57191,0"
       style="fill:none;stroke:#000000;stroke-width:0.67476755px;stroke-linecap:butt;stroke-linejoin:miter;stroke-opacity:1;marker-end:url(#EmptyTriangleOutM)" />
    <path
       inkscape:connector-curvature="0"
       id="path3880"
       d="m 309.00322,474.51405 0,-183.68247"
       style="fill:none;stroke:#000000;stroke-width:0.7819171px;stroke-linecap:butt;stroke-linejoin:miter;stroke-opacity:1;marker-end:url(#EmptyTriangleOutM)" />
    <path
       sodipodi:nodetypes="cssc"
       inkscape:connector-curvature="0"
       id="path3882"
       d="m 261.3026,450.80499 c 3.15525,1.08858 6.36546,2.07147 9.61478,2.94188 26.31044,7.04789 55.18469,6.72056 78.20118,-4.59567 49.4031,-24.28941 57.65356,-92.16836 85.28339,-141.6935"
       style="fill:none;stroke:#000000;stroke-width:2;stroke-linecap:butt;stroke-linejoin:miter;stroke-opacity:1" />
    <path
       inkscape:connector-curvature="0"
       id="path3884"
       d="M 254.16433,481.7848 467.0846,411.44554"
       style="fill:none;stroke:#000000;stroke-width:1;stroke-linecap:butt;stroke-linejoin:miter;stroke-miterlimit:4;stroke-opacity:1;stroke-dasharray:2, 2;stroke-dashoffset:0" />
    <path
       transform="translate(-1.4285714,-248.75)"
       d="m 341.93664,702.3443 a 2.5253813,2.5253813 0 1 1 -5.05077,0 2.5253813,2.5253813 0 1 1 5.05077,0 z"
       sodipodi:ry="2.5253813"
       sodipodi:rx="2.5253813"
       sodipodi:cy="702.3443"
       sodipodi:cx="339.41125"
       id="path3886"
       style="fill:#ffffff;fill-opacity:1;stroke:#000000"
       sodipodi:type="arc" />
    <path
       style="font-size:40px;font-style:normal;font-weight:normal;line-height:125%;letter-spacing:0px;word-spacing:0px;fill:#000000;fill-opacity:1;stroke:none;font-family:Sans"
       d="m 334.40094,439.79663 2.94504,-3.69306 -2.72492,-3.41207 1.70782,0 1.23722,1.66589 c 0.23277,0.31668 0.41999,0.58206 0.56168,0.79615 0.22265,-0.29437 0.42758,-0.55529 0.61482,-0.78277 l 1.35866,-1.67927 1.63192,0 -2.78564,3.34516 2.99817,3.75997 -1.67746,0 -1.65469,-2.20781 -0.44024,-0.59544 -2.11769,2.80325 z"
       id="path3890"
       inkscape:connector-curvature="0" />
    <path
       style="font-size:40px;font-style:normal;font-weight:normal;line-height:125%;letter-spacing:0px;word-spacing:0px;fill:none;stroke:#000000;stroke-width:1px;stroke-linecap:butt;stroke-linejoin:miter;stroke-opacity:1;marker-end:url(#Arrow2Mend);font-family:Sans"
       d="m 338.03571,438.34432 0,8.39286 0,5.08928"
       id="path3894"
       inkscape:connector-curvature="0" />
    <path
       transform="matrix(1.1475611,0,0,1.1475611,-21.370878,-369.90402)"
       d="m 341.93664,702.3443 a 2.5253813,2.5253813 0 1 1 -5.05077,0 2.5253813,2.5253813 0 1 1 5.05077,0 z"
       sodipodi:ry="2.5253813"
       sodipodi:rx="2.5253813"
       sodipodi:cy="702.3443"
       sodipodi:cx="339.41125"
       id="path3900"
       style="fill:#000000;fill-opacity:1;stroke:#000000"
       sodipodi:type="arc" />
  </g>
</svg>
