<?xml version="1.0" encoding="UTF-8" standalone="no"?>
<!-- Created with Inkscape (http://www.inkscape.org/) -->

<svg
   xmlns:dc="http://purl.org/dc/elements/1.1/"
   xmlns:cc="http://creativecommons.org/ns#"
   xmlns:rdf="http://www.w3.org/1999/02/22-rdf-syntax-ns#"
   xmlns:svg="http://www.w3.org/2000/svg"
   xmlns="http://www.w3.org/2000/svg"
   xmlns:sodipodi="http://sodipodi.sourceforge.net/DTD/sodipodi-0.dtd"
   xmlns:inkscape="http://www.inkscape.org/namespaces/inkscape"
   width="100"
   height="50"
   id="svg2"
   version="1.1"
   inkscape:version="0.48.4 r9939"
   sodipodi:docname="silver_ratio.svg">
  <defs
     id="defs4" />
  <sodipodi:namedview
     id="base"
     pagecolor="#ffffff"
     bordercolor="#666666"
     borderopacity="1.0"
     inkscape:pageopacity="0.0"
     inkscape:pageshadow="2"
     inkscape:zoom="7.9195959"
     inkscape:cx="37.203927"
     inkscape:cy="36.075759"
     inkscape:document-units="px"
     inkscape:current-layer="layer1"
     showgrid="false"
     inkscape:snap-bbox="false"
     inkscape:bbox-nodes="false"
     inkscape:snap-global="true"
     inkscape:snap-nodes="true"
     inkscape:object-nodes="true"
     inkscape:snap-object-midpoints="true"
     inkscape:window-width="1600"
     inkscape:window-height="837"
     inkscape:window-x="1272"
     inkscape:window-y="332"
     inkscape:window-maximized="1" />
  <metadata
     id="metadata7">
    <rdf:RDF>
      <cc:Work
         rdf:about="">
        <dc:format>image/svg+xml</dc:format>
        <dc:type
           rdf:resource="http://purl.org/dc/dcmitype/StillImage" />
        <dc:title />
      </cc:Work>
    </rdf:RDF>
  </metadata>
  <g
     inkscape:label="Layer 1"
     inkscape:groupmode="layer"
     id="layer1"
     transform="translate(0,-1002.3622)">
    <path
       sodipodi:type="arc"
       style="fill:#000000;fill-opacity:1;stroke:none"
       id="path3987"
       sodipodi:cx="10.357142"
       sodipodi:cy="12.678572"
       sodipodi:rx="3.5714285"
       sodipodi:ry="3.5714285"
       d="m 13.928571,12.678572 c 0,1.972445 -1.598983,3.571428 -3.571429,3.571428 -1.9724451,0 -3.5714281,-1.598983 -3.5714281,-3.571428 0,-1.972446 1.598983,-3.5714288 3.5714281,-3.5714288 1.972446,0 3.571429,1.5989828 3.571429,3.5714288 z"
       transform="matrix(0.47499999,0,0,0.47499999,3.3132288,1008.7852)" />
    <path
       style="fill:none;stroke:#008000;stroke-width:1px;stroke-linecap:butt;stroke-linejoin:miter;stroke-opacity:1"
       d="m 8.232871,1014.8075 58.28417,10e-5"
       id="path3989"
       inkscape:connector-curvature="0" />
    <path
       style="fill:none;stroke:#000080;stroke-width:1px;stroke-linecap:butt;stroke-linejoin:miter;stroke-opacity:1"
       d="m 90.65917,1014.8076 -24.142129,0"
       id="path3991"
       inkscape:connector-curvature="0" />
    <path
       transform="matrix(0.47499999,0,0,0.47499999,61.597398,1008.7852)"
       d="m 13.928571,12.678572 c 0,1.972445 -1.598983,3.571428 -3.571429,3.571428 -1.9724451,0 -3.5714281,-1.598983 -3.5714281,-3.571428 0,-1.972446 1.598983,-3.5714288 3.5714281,-3.5714288 1.972446,0 3.571429,1.5989828 3.571429,3.5714288 z"
       sodipodi:ry="3.5714285"
       sodipodi:rx="3.5714285"
       sodipodi:cy="12.678572"
       sodipodi:cx="10.357142"
       id="path3993"
       style="fill:#000000;fill-opacity:1;stroke:none"
       sodipodi:type="arc" />
    <path
       sodipodi:type="arc"
       style="fill:#000000;fill-opacity:1;stroke:none"
       id="path3995"
       sodipodi:cx="10.357142"
       sodipodi:cy="12.678572"
       sodipodi:rx="3.5714285"
       sodipodi:ry="3.5714285"
       d="m 13.928571,12.678572 c 0,1.972445 -1.598983,3.571428 -3.571429,3.571428 -1.9724451,0 -3.5714281,-1.598983 -3.5714281,-3.571428 0,-1.972446 1.598983,-3.5714288 3.5714281,-3.5714288 1.972446,0 3.571429,1.5989828 3.571429,3.5714288 z"
       transform="matrix(0.47499999,0,0,0.47499999,85.739527,1008.7852)" />
    <path
       transform="matrix(0.47499999,0,0,0.47499999,3.3132288,1031.8924)"
       d="m 13.928571,12.678572 c 0,1.972445 -1.598983,3.571428 -3.571429,3.571428 -1.9724451,0 -3.5714281,-1.598983 -3.5714281,-3.571428 0,-1.972446 1.598983,-3.5714288 3.5714281,-3.5714288 1.972446,0 3.571429,1.5989828 3.571429,3.5714288 z"
       sodipodi:ry="3.5714285"
       sodipodi:rx="3.5714285"
       sodipodi:cy="12.678572"
       sodipodi:cx="10.357142"
       id="path3997"
       style="fill:#000000;fill-opacity:1;stroke:none"
       sodipodi:type="arc" />
    <path
       inkscape:connector-curvature="0"
       id="path4013"
       d="m 8.232871,1037.9148 47.927027,0"
       style="fill:none;stroke:#008000;stroke-width:1px;stroke-linecap:butt;stroke-linejoin:miter;stroke-opacity:1" />
    <path
       sodipodi:type="arc"
       style="fill:#000000;fill-opacity:1;stroke:none"
       id="path3999"
       sodipodi:cx="10.357142"
       sodipodi:cy="12.678572"
       sodipodi:rx="3.5714285"
       sodipodi:ry="3.5714285"
       d="m 13.928571,12.678572 c 0,1.972445 -1.598983,3.571428 -3.571429,3.571428 -1.9724451,0 -3.5714281,-1.598983 -3.5714281,-3.571428 0,-1.972446 1.598983,-3.5714288 3.5714281,-3.5714288 1.972446,0 3.571429,1.5989828 3.571429,3.5714288 z"
       transform="matrix(0.47499999,0,0,0.47499999,27.455328,1031.8925)" />
    <path
       inkscape:connector-curvature="0"
       id="path4015"
       d="m 66.661135,1037.9148 -9.965493,0"
       style="fill:none;stroke:#000080;stroke-width:1px;stroke-linecap:butt;stroke-linejoin:miter;stroke-opacity:1" />
    <path
       transform="matrix(0.47499999,0,0,0.47499999,51.597428,1031.8925)"
       d="m 13.928571,12.678572 c 0,1.972445 -1.598983,3.571428 -3.571429,3.571428 -1.9724451,0 -3.5714281,-1.598983 -3.5714281,-3.571428 0,-1.972446 1.598983,-3.5714288 3.5714281,-3.5714288 1.972446,0 3.571429,1.5989828 3.571429,3.5714288 z"
       sodipodi:ry="3.5714285"
       sodipodi:rx="3.5714285"
       sodipodi:cy="12.678572"
       sodipodi:cx="10.357142"
       id="path4001"
       style="fill:#000000;fill-opacity:1;stroke:none"
       sodipodi:type="arc" />
    <path
       inkscape:connector-curvature="0"
       id="path4013-5"
       d="m 66.626192,1037.9148 23.998457,0"
       style="fill:none;stroke:#008000;stroke-width:0.99999994px;stroke-linecap:butt;stroke-linejoin:miter;stroke-opacity:1" />
    <path
       transform="matrix(0.47499999,0,0,0.47499999,85.739528,1031.8925)"
       d="m 13.928571,12.678572 c 0,1.972445 -1.598983,3.571428 -3.571429,3.571428 -1.9724451,0 -3.5714281,-1.598983 -3.5714281,-3.571428 0,-1.972446 1.598983,-3.5714288 3.5714281,-3.5714288 1.972446,0 3.571429,1.5989828 3.571429,3.5714288 z"
       sodipodi:ry="3.5714285"
       sodipodi:rx="3.5714285"
       sodipodi:cy="12.678572"
       sodipodi:cx="10.357142"
       id="path4005"
       style="fill:#000000;fill-opacity:1;stroke:none"
       sodipodi:type="arc" />
    <path
       sodipodi:type="arc"
       style="fill:#000000;fill-opacity:1;stroke:none"
       id="path4007"
       sodipodi:cx="10.357142"
       sodipodi:cy="12.678572"
       sodipodi:rx="3.5714285"
       sodipodi:ry="3.5714285"
       d="m 13.928571,12.678572 c 0,1.972445 -1.598983,3.571428 -3.571429,3.571428 -1.9724451,0 -3.5714281,-1.598983 -3.5714281,-3.571428 0,-1.972446 1.598983,-3.5714288 3.5714281,-3.5714288 1.972446,0 3.571429,1.5989828 3.571429,3.5714288 z"
       transform="matrix(0.47499999,0,0,0.47499999,61.597398,1031.8924)" />
    <path
       style="fill:none;stroke:#000000;stroke-width:1;stroke-linecap:butt;stroke-linejoin:miter;stroke-miterlimit:4;stroke-opacity:1;stroke-dasharray:1, 2;stroke-dashoffset:0"
       d="m 8.232871,1014.8075 24.1421,23.1073"
       id="path4035"
       inkscape:connector-curvature="0"
       sodipodi:nodetypes="cc" />
    <path
       style="fill:none;stroke:#000000;stroke-width:1;stroke-linecap:butt;stroke-linejoin:miter;stroke-miterlimit:4;stroke-opacity:1;stroke-dasharray:1, 2;stroke-dashoffset:0"
       d="M 66.517041,1037.9148 90.65917,1014.8076"
       id="path4037"
       inkscape:connector-curvature="0" />
    <path
       inkscape:connector-curvature="0"
       id="path4039"
       d="m 56.695642,1037.9148 9.821399,-23.1072"
       style="fill:none;stroke:#000000;stroke-width:1;stroke-linecap:butt;stroke-linejoin:miter;stroke-miterlimit:4;stroke-opacity:1;stroke-dasharray:1, 2;stroke-dashoffset:0"
       sodipodi:nodetypes="cc" />
    <text
       sodipodi:linespacing="125%"
       id="text3007"
       y="1011.4198"
       x="33.72517"
       style="font-size:11.19372177px;font-style:normal;font-weight:normal;line-height:125%;letter-spacing:0px;word-spacing:0px;fill:#000000;fill-opacity:1;stroke:none;font-family:Sans"
       xml:space="preserve"><tspan
         y="1011.4198"
         x="33.72517"
         id="tspan3009"
         sodipodi:role="line">a</tspan></text>
    <text
       sodipodi:linespacing="125%"
       id="text4084"
       y="1011.4198"
       x="75.461212"
       style="font-size:11.19372177px;font-style:normal;font-weight:normal;line-height:125%;letter-spacing:0px;word-spacing:0px;fill:#000000;fill-opacity:1;stroke:none;font-family:Sans"
       xml:space="preserve"><tspan
         y="1011.4198"
         x="75.461212"
         id="tspan4086"
         sodipodi:role="line">b</tspan></text>
    <text
       xml:space="preserve"
       style="font-size:11.19372177px;font-style:normal;font-weight:normal;line-height:125%;letter-spacing:0px;word-spacing:0px;fill:#000000;fill-opacity:1;stroke:none;font-family:Sans"
       x="16.493027"
       y="1051.9556"
       id="text4146"
       sodipodi:linespacing="125%"><tspan
         sodipodi:role="line"
         id="tspan4148"
         x="16.493027"
         y="1051.9556">a'</tspan></text>
    <text
       sodipodi:linespacing="125%"
       id="text4150"
       y="1051.9556"
       x="39.796597"
       style="font-size:11.19372177px;font-style:normal;font-weight:normal;line-height:125%;letter-spacing:0px;word-spacing:0px;fill:#000000;fill-opacity:1;stroke:none;font-family:Sans"
       xml:space="preserve"><tspan
         y="1051.9556"
         x="39.796597"
         id="tspan4152"
         sodipodi:role="line">a'</tspan></text>
    <text
       xml:space="preserve"
       style="font-size:11.19372177px;font-style:normal;font-weight:normal;line-height:125%;letter-spacing:0px;word-spacing:0px;fill:#000000;fill-opacity:1;stroke:none;font-family:Sans"
       x="56.493027"
       y="1051.9556"
       id="text4154"
       sodipodi:linespacing="125%"><tspan
         sodipodi:role="line"
         id="tspan4156"
         x="56.493027"
         y="1051.9556">b'</tspan></text>
    <text
       sodipodi:linespacing="125%"
       id="text4158"
       y="1051.9556"
       x="76.225174"
       style="font-size:11.19372177px;font-style:normal;font-weight:normal;line-height:125%;letter-spacing:0px;word-spacing:0px;fill:#000000;fill-opacity:1;stroke:none;font-family:Sans"
       xml:space="preserve"><tspan
         y="1051.9556"
         x="76.225174"
         id="tspan4160"
         sodipodi:role="line">a'</tspan></text>
  </g>
</svg>
