<?xml version="1.0" encoding="UTF-8" standalone="no"?>
<svg
   xmlns:dc="http://purl.org/dc/elements/1.1/"
   xmlns:cc="http://creativecommons.org/ns#"
   xmlns:rdf="http://www.w3.org/1999/02/22-rdf-syntax-ns#"
   xmlns:svg="http://www.w3.org/2000/svg"
   xmlns="http://www.w3.org/2000/svg"
   xmlns:sodipodi="http://sodipodi.sourceforge.net/DTD/sodipodi-0.dtd"
   xmlns:inkscape="http://www.inkscape.org/namespaces/inkscape"
   version="1.1"
   width="140"
   height="190"
   id="testsvg2"
   inkscape:version="0.48.4 r9939"
   sodipodi:docname="tantrigsub1.svg">
  <metadata
     id="metadata19">
    <rdf:RDF>
      <cc:Work
         rdf:about="">
        <dc:format>image/svg+xml</dc:format>
        <dc:type
           rdf:resource="http://purl.org/dc/dcmitype/StillImage" />
      </cc:Work>
    </rdf:RDF>
  </metadata>
  <defs
     id="defs17" />
  <sodipodi:namedview
     pagecolor="#ffffff"
     bordercolor="#666666"
     borderopacity="1"
     objecttolerance="10"
     gridtolerance="10"
     guidetolerance="10"
     inkscape:pageopacity="0"
     inkscape:pageshadow="2"
     inkscape:window-width="640"
     inkscape:window-height="480"
     id="namedview15"
     showgrid="false"
     inkscape:zoom="1.2421053"
     inkscape:cx="70"
     inkscape:cy="95"
     inkscape:window-x="0"
     inkscape:window-y="0"
     inkscape:window-maximized="0"
     inkscape:current-layer="testsvg2" />
  <rect
     width="20.0"
     height="20.0"
     x="85.0"
     y="140.0"
     style="fill:#E0E0E0;stroke:#808080"
     id="rect3" />
  <line
     x1="105"
     y1="20"
     x2="105"
     y2="140"
     style="stroke:#808080;stroke-width:1px"
     id="line5" />
  <path
     d="M 30 130 q 20 7 13 30"
     stroke="#000000"
     stroke-width="1px"
     fill="none"
     id="path7" />
  <path
     d="m 10,160 95,-140 0,140 z"
     style="fill:none;stroke:#000000;stroke-width:1px;stroke-linecap:butt;stroke-linejoin:miter;stroke-opacity:1"
     id="path9" />
  <g
     style="font-size:30px;font-style:normal;fill:#999999;stroke:none;font-family:Serif"
     id="text3011">
    <path
       d="m 29.87793,69.169922 0,9.814453 c 1.083978,-1.191394 1.943352,-1.955553 2.578125,-2.29248 0.634757,-0.336901 1.269522,-0.505358 1.904297,-0.505372 0.761708,1.4e-5 1.416004,0.209975 1.96289,0.629883 0.546863,0.419935 0.952136,1.079114 1.21582,1.977539 0.185535,0.625011 0.278308,1.767588 0.278321,3.427735 l 0,4.746093 c -1.3e-5,0.849612 0.06835,1.430666 0.205078,1.743164 0.09764,0.234377 0.263659,0.419923 0.498047,0.556641 0.234361,0.136719 0.664048,0.205079 1.289062,0.205078 l 0,0.527344 -6.591797,0 0,-0.527344 0.307618,0 c 0.62499,10e-7 1.05956,-0.09521 1.303711,-0.285644 0.24413,-0.190429 0.415028,-0.47119 0.512695,-0.842285 0.02929,-0.156249 0.04393,-0.615233 0.04395,-1.376954 l 0,-4.746093 c -1e-5,-1.464835 -0.07569,-2.426748 -0.227051,-2.885743 -0.151377,-0.458973 -0.393076,-0.803211 -0.725097,-1.032714 -0.332041,-0.229481 -0.732431,-0.344227 -1.201172,-0.344239 -0.478524,1.2e-5 -0.97657,0.126965 -1.494141,0.38086 -0.517584,0.253917 -1.137701,0.766612 -1.860351,1.538086 l 0,7.089843 c -5e-6,0.917971 0.05126,1.48926 0.153808,1.713868 0.102534,0.22461 0.292964,0.412598 0.571289,0.563964 0.278315,0.151368 0.759271,0.227052 1.442871,0.227051 l 0,0.527344 -6.65039,0 0,-0.527344 c 0.595702,10e-7 1.064451,-0.09277 1.40625,-0.27832 0.19531,-0.09766 0.35156,-0.283202 0.46875,-0.556641 0.117185,-0.273436 0.175779,-0.830076 0.175781,-1.669922 l 0,-12.143554 c -2e-6,-1.533187 -0.03662,-2.475569 -0.109863,-2.827149 -0.07325,-0.351544 -0.185549,-0.590801 -0.336914,-0.717773 -0.151369,-0.126934 -0.354006,-0.190411 -0.60791,-0.19043 -0.20508,1.9e-5 -0.537111,0.07814 -0.996094,0.234375 l -0.205078,-0.512695 4.013672,-1.640625 z"
       style="font-size:30px;font-style:normal;fill:#999999;stroke:none;font-family:Serif"
       id="path3003" />
  </g>
  <g
     style="font-size:30px;font-style:normal;fill:#999999;stroke:none;font-family:Serif"
     id="text3001">
    <path
       d="m 57.540039,183.06641 c -1.37696,1.06445 -2.241217,1.67968 -2.592773,1.8457 -0.52735,0.24414 -1.088872,0.36621 -1.684571,0.36621 -0.927737,0 -1.691897,-0.31738 -2.29248,-0.95215 -0.600587,-0.63476 -0.90088,-1.46972 -0.900879,-2.50488 -10e-7,-0.65429 0.146483,-1.2207 0.439453,-1.69922 0.400389,-0.66406 1.096189,-1.28906 2.087402,-1.875 0.991207,-0.58593 2.639154,-1.29882 4.943848,-2.13867 l 0,-0.52735 c -8e-6,-1.33788 -0.212411,-2.25584 -0.637207,-2.7539 -0.424812,-0.49804 -1.042487,-0.74706 -1.853027,-0.74707 -0.61524,1e-5 -1.103521,0.16603 -1.464844,0.49804 -0.371098,0.33205 -0.556645,0.71291 -0.556641,1.14258 l 0.0293,0.84961 c -4e-6,0.44923 -0.11475,0.79591 -0.344238,1.04004 -0.229496,0.24415 -0.529788,0.36622 -0.900879,0.36621 -0.361331,1e-5 -0.65674,-0.12694 -0.88623,-0.38086 -0.229494,-0.25389 -0.34424,-0.60057 -0.344239,-1.04004 -10e-7,-0.83983 0.429686,-1.61131 1.289063,-2.31445 0.859371,-0.70311 2.065425,-1.05467 3.618164,-1.05469 1.191398,2e-5 2.16796,0.20021 2.929687,0.60059 0.576162,0.30275 1.000966,0.77638 1.274414,1.4209 0.175771,0.41993 0.263661,1.27931 0.263672,2.57812 l 0,4.55567 c -1.1e-5,1.2793 0.0244,2.06299 0.07324,2.35107 0.04882,0.28809 0.129384,0.48096 0.2417,0.57861 0.112293,0.0977 0.241687,0.14649 0.388183,0.14649 0.156238,0 0.292957,-0.0342 0.410156,-0.10254 0.205066,-0.12695 0.600574,-0.4834 1.186524,-1.06934 l 0,0.82032 c -1.093762,1.46484 -2.138683,2.19726 -3.134766,2.19726 -0.478525,0 -0.859384,-0.16601 -1.142578,-0.49805 -0.283212,-0.33203 -0.429696,-0.89843 -0.439453,-1.69921 z m 0,-0.95215 0,-5.11231 c -1.474616,0.58595 -2.426764,1.00099 -2.856445,1.24512 -0.77149,0.42969 -1.323247,0.87891 -1.655274,1.34766 -0.332035,0.46875 -0.49805,0.98145 -0.498047,1.53808 -3e-6,0.70313 0.209958,1.28663 0.629883,1.75049 0.419918,0.46387 0.903315,0.6958 1.450196,0.6958 0.742181,0 1.718742,-0.48828 2.929687,-1.46484 z"
       style="font-size:30px;font-style:normal;fill:#999999;stroke:none;font-family:Serif"
       id="path3006" />
  </g>
  <g
     style="font-size:30px;font-style:normal;fill:#999999;stroke:none;font-family:Serif"
     id="text3003">
    <path
       d="m 117.5,96.186523 c 2.03124,1.4e-5 3.6621,0.771498 4.89258,2.314454 1.04491,1.318369 1.56737,2.832043 1.56738,4.541013 -10e-6,1.20118 -0.2881,2.417 -0.86426,3.64746 -0.57618,1.23047 -1.36964,2.15821 -2.38037,2.78321 -1.01075,0.625 -2.13624,0.9375 -3.37646,0.9375 -2.02149,0 -3.62794,-0.80567 -4.81934,-2.417 -1.00586,-1.35741 -1.50879,-2.88085 -1.50879,-4.57031 0,-1.23046 0.30518,-2.4536 0.91553,-3.669432 0.61035,-1.215809 1.41357,-2.114245 2.40967,-2.695313 0.99609,-0.581041 2.05077,-0.871568 3.16406,-0.871582 z m -0.4541,0.952149 c -0.51759,1.3e-5 -1.03761,0.153821 -1.56006,0.461426 -0.52247,0.307629 -0.94483,0.847179 -1.26709,1.618652 -0.32227,0.771494 -0.4834,1.7627 -0.4834,2.97363 0,1.95313 0.38818,3.6377 1.16455,5.05371 0.77636,1.41602 1.79931,2.12403 3.06885,2.12403 0.94726,0 1.72851,-0.39063 2.34375,-1.17188 0.61522,-0.78125 0.92284,-2.12402 0.92285,-4.02832 -1e-5,-2.3828 -0.5127,-4.257801 -1.53808,-5.624998 -0.69337,-0.937488 -1.57716,-1.406237 -2.65137,-1.40625 z"
       style="font-size:30px;font-style:normal;fill:#999999;stroke:none;font-family:Serif"
       id="path2997" />
  </g>
  <g
     style="font-size:25px;font-style:normal;fill:#000000;stroke:none;font-family:Serif"
     id="textgreek1">
    <path
       d="m 52.103516,125.66602 c 1.375318,1e-5 2.534984,0.80364 3.479004,2.41088 0.943999,1.60728 1.416004,3.70078 1.416015,6.28052 -1.1e-5,2.78321 -0.508637,4.97641 -1.525879,6.57959 -1.017261,1.60319 -2.193204,2.40479 -3.527832,2.40479 -1.310226,0 -2.463789,-0.77922 -3.460693,-2.33765 -0.996909,-1.55843 -1.495362,-3.67228 -1.495361,-6.34155 -1e-6,-2.6774 0.494383,-4.84618 1.483154,-6.50635 0.988766,-1.66014 2.199295,-2.49022 3.631592,-2.49023 z m 2.624511,8.42285 c -8e-6,-5.14322 -0.903328,-7.71483 -2.709961,-7.71485 -1.855473,2e-5 -2.783206,2.57163 -2.783203,7.71485 z m -5.493164,0.75683 c -3e-6,2.66114 0.248206,4.62444 0.744629,5.8899 0.496415,1.26546 1.163732,1.89819 2.001953,1.89819 1.814771,0 2.730298,-2.59603 2.746582,-7.78809 z"
       style="font-size:25px;font-style:normal;fill:#000000;stroke:none;font-family:Serif"
       id="path3000" />
  </g>
</svg>
